<?xml version="1.0" encoding="UTF-8"?>
<svg xmlns="http://www.w3.org/2000/svg" xmlns:inkscape="http://www.inkscape.org/namespaces/inkscape"
     viewBox="0 0 1400 786" width="1400" height="786">
<g id="layer-brand_graphic" inkscape:label="Merrell side branding" data-z="9" data-kind="marking" data-regions="3" data-strokes="42">
      <path d="M1327 398C1329.02 401.03 1329.86 403.57 1331 407C1331.52 407.89 1332.03 408.77 1332.56 409.69C1334.53 414.22 1335.55 419.05 1335 424C1332.48 426.56 1331.4 426.98 1327.75 427.19C1326.84 427.13 1325.94 427.06 1325 427C1325 426.34 1325 425.68 1325 425C1324.34 425 1323.68 425 1323 425C1323.14 425.89 1323.28 426.78 1323.43 427.7C1323 431 1323 431 1320.07 433.42C1318.77 434.22 1317.45 434.99 1316.13 435.75C1301.05 445.11 1286.71 460.89 1281 478C1280.34 478 1279.68 478 1279 478C1278.73 478.97 1278.46 479.94 1278.19 480.94C1277.8 481.95 1277.4 482.96 1277 484C1276.01 484.33 1275.02 484.66 1274 485C1274 486.65 1274 488.3 1274 490C1273.01 490.33 1273.01 490.33 1268 492C1268.1 492.87 1268.21 493.73 1268.31 494.63C1267.89 499.2 1266.35 500.94 1263 504C1259.69 504.38 1259.69 504.38 1257 504C1257.33 504.33 1257.66 504.66 1258 505C1258.36 507.3 1258.36 507.3 1258 510C1255.92 512.17 1255.92 512.17 1253.19 514.19C1252.29 514.86 1251.4 515.54 1250.48 516.23C1245.77 519.59 1243 520.26 1237.31 520.13C1236.61 520.12 1235.91 520.11 1235.19 520.1C1233.46 520.07 1231.73 520.04 1230 520C1230.33 522.64 1230.66 525.28 1231 528C1225.47 530.11 1220.93 531.38 1215 531C1215 530.01 1215 529.02 1215 528C1213.68 528 1212.36 528 1211 528C1211 529.65 1211 531.3 1211 533C1208.29 533.9 1206.76 534.12 1203.99 534.1C1203.23 534.09 1202.47 534.09 1201.69 534.09C1200.91 534.08 1200.12 534.07 1199.31 534.06C1198.51 534.06 1197.72 534.05 1196.9 534.05C1194.93 534.04 1192.96 534.02 1191 534C1191 532.68 1191 531.36 1191 530C1189.06 530.31 1189.06 530.31 1187 531C1186.67 531.99 1186.34 532.98 1186 534C1180.22 534.24 1175.49 533.87 1170 532C1170 531.01 1170 530.02 1170 529C1166.7 529.33 1163.4 529.66 1160 530C1160 528.35 1160 526.7 1160 525C1159.51 525.17 1159.51 525.17 1157 526C1154.67 526.04 1152.33 526.04 1150 526C1150 524.35 1150 522.7 1150 521C1148.51 521.17 1148.51 521.17 1141 522C1141 520.02 1141 518.04 1141 516C1139.68 516 1138.36 516 1137 516C1137 516.66 1137 517.32 1137 518C1131.01 517.54 1126.91 515.69 1121.75 512.69C1121.37 512.47 1121.37 512.47 1119.43 511.37C1109.4 505.61 1099.62 499.41 1090 493C1090 491.68 1090 490.36 1090 489C1089.03 489.02 1088.06 489.04 1087.06 489.06C1084 489 1084 489 1083 488C1082.96 486.33 1082.96 484.67 1083 483C1082.05 483.17 1081.1 483.33 1080.13 483.5C1075.18 483.47 1072.45 480.56 1068.85 477.46C1066.85 475.73 1064.87 474.11 1062.77 472.51C1053.29 465.3 1044.43 457.43 1036 449C1035.81 446.56 1035.81 446.56 1036 444C1038 442 1038 442 1040.36 441.71C1043.45 442.05 1044.74 442.85 1047.19 444.71C1047.96 445.29 1048.74 445.87 1049.54 446.47C1050.35 447.1 1051.16 447.73 1052 448.38C1052.42 448.69 1052.42 448.69 1054.56 450.31C1057.05 452.19 1059.53 454.09 1062 456C1062.66 456.51 1063.32 457.01 1063.99 457.53C1066.71 459.62 1069.41 461.71 1072.12 463.81C1082.65 471.82 1082.65 471.82 1087 474C1087 474.99 1087 475.98 1087 477C1088.65 477.33 1090.3 477.66 1092 478C1092 479.65 1092 481.3 1092 483C1092.55 482.93 1092.55 482.93 1095.31 482.56C1101.61 482.55 1106.02 486.55 1111 490C1114.3 492.06 1117.65 494.03 1121 496C1121.56 496.33 1122.11 496.65 1122.69 496.99C1124.52 498.06 1126.35 499.13 1128.19 500.19C1129.32 500.84 1130.44 501.5 1131.61 502.17C1134.06 503.49 1136.3 504.55 1138.86 505.55C1139.9 506.03 1140.93 506.51 1142 507C1142.33 507.99 1142.66 508.98 1143 510C1145.97 510.33 1148.94 510.66 1152 511C1152 512.65 1152 514.3 1152 516C1152.99 516 1153.98 516 1155 516C1155 515.34 1155 514.68 1155 514C1161.48 514.62 1167.71 515.67 1174.06 517.06C1174.93 517.25 1175.79 517.43 1176.69 517.63C1178.79 518.08 1180.9 518.54 1183 519C1183 520.65 1183 522.3 1183 524C1183.99 523.67 1184.98 523.34 1186 523C1186.69 520.94 1186.69 520.94 1187 519C1187.94 518.96 1188.89 518.92 1189.86 518.89C1208.09 517.95 1208.09 517.95 1216 514C1222.47 513.65 1222.47 513.65 1226 516C1225.94 515.05 1225.88 514.1 1225.81 513.13C1225.87 512.09 1225.94 511.06 1226 510C1229.09 507.94 1229.71 507.76 1233.19 507.88C1234.45 507.92 1235.7 507.96 1237 508C1237 506.35 1237 504.7 1237 503C1238.03 502.9 1238.03 502.9 1243.15 502.41C1243.76 502.28 1244.37 502.14 1245 502C1245.33 501.34 1245.66 500.68 1246 500C1246.99 499.67 1247.98 499.34 1249 499C1249 497.02 1249 495.04 1249 493C1251.31 493 1253.62 493 1256 493C1255.67 492.67 1255.34 492.34 1255 492C1254.58 488.82 1254.66 487.45 1256.62 484.85C1257.36 484.12 1258.11 483.38 1258.88 482.63C1269.08 471.8 1276.12 458.57 1283.45 445.72C1286.38 440.59 1289.34 435.48 1292.31 430.38C1292.6 429.88 1292.6 429.88 1294.05 427.36C1297.5 421.43 1301.12 415.66 1305 410C1305.26 409.62 1305.26 409.62 1306.55 407.71C1311.48 400.52 1317.86 395.93 1327 398Z" fill="#cbcbcb" fill-rule="evenodd"/>
      <path d="M989 428C1001.52 427.15 1012.92 431.73 1023 439C1025.69 441.43 1028.21 443.96 1030.7 446.59C1033.32 449.33 1036.09 451.78 1038.96 454.24C1041.23 456.2 1043.42 458.22 1045.63 460.25C1051.28 465.35 1057.25 470.01 1063.28 474.66C1064.84 475.88 1066.39 477.12 1067.94 478.36C1103.31 506.43 1146.24 532.77 1192 537C1192.06 537.4 1192.06 537.4 1192.35 539.43C1192.57 540.28 1192.78 541.13 1193 542C1195.38 543.19 1195.38 543.19 1198 544C1198.99 544.66 1199.98 545.32 1201 546C1201 544.68 1201 543.36 1201 542C1201.49 541.84 1201.49 541.84 1204 541C1204 539.35 1204 537.7 1204 536C1208.92 535.61 1211.18 536.36 1215.06 539.38C1218.3 541.86 1221.15 543.64 1225 545C1225 546.65 1225 548.3 1225 550C1224.34 550.33 1223.68 550.66 1223 551C1232.97 554.57 1242.51 556.04 1253 557C1253 558.32 1253 559.64 1253 561C1255.97 560.67 1258.94 560.34 1262 560C1262 558.35 1262 556.7 1262 555C1271.67 551.46 1271.67 551.46 1276 552C1276.33 552.33 1276.66 552.66 1277 553C1278.67 553.04 1280.33 553.04 1282 553C1282 554.65 1282 556.3 1282 558C1284.81 558.17 1284.81 558.17 1299 559C1299 564.63 1299 564.63 1296.4 567.74C1295.85 568.42 1295.29 569.09 1294.72 569.79C1294.13 570.48 1293.54 571.16 1292.94 571.88C1292.38 572.56 1291.82 573.24 1291.24 573.94C1285.52 580.8 1280.03 587.03 1272 591.13C1270.85 591.75 1269.69 592.37 1268.5 593.01C1257.43 598.22 1245.49 601.04 1233.56 603.5C1232.14 603.8 1230.71 604.11 1229.29 604.41C1221.96 605.95 1214.64 607.26 1207.2 608.21C1182.14 611.45 1182.14 611.45 1173.84 619.43C1160.95 631.08 1139.72 635.26 1123 635C1123.33 632.03 1123.66 629.06 1124 626C1124.69 625.82 1125.38 625.64 1126.09 625.45C1131.47 624.01 1136.77 622.48 1142.03 620.65C1144 620 1145.98 619.48 1148 619C1148 618.34 1148 617.68 1148 617C1151.96 616.67 1155.92 616.34 1160 616C1160 616.66 1160 617.32 1160 618C1160.83 617.67 1160.83 617.67 1165 616C1164.34 615.67 1163.68 615.34 1163 615C1163.11 613.52 1163.24 612.04 1163.38 610.56C1163.45 609.74 1163.51 608.92 1163.59 608.07C1163.72 607.38 1163.86 606.7 1164 606C1164.66 605.67 1165.32 605.34 1166 605C1165.51 598.66 1165.51 598.66 1163.25 595.75C1161 594 1161 594 1158.25 592.56C1157.51 592.05 1156.76 591.53 1156 591C1155.63 588.38 1155.63 588.38 1156 586C1156.33 585.67 1156.66 585.34 1157 585C1154.69 584.34 1152.38 583.68 1150 583C1150 582.34 1150 581.68 1150 581C1147.69 580.34 1145.38 579.68 1143 579C1143 579.99 1143 580.98 1143 582C1141.68 582 1140.36 582 1139 582C1139 582.99 1139 583.98 1139 585C1132.85 584.51 1128.18 582.48 1122.69 579.75C1121.85 579.35 1121.02 578.94 1120.16 578.52C1117.77 577.36 1115.38 576.18 1113 575C1111.86 574.44 1110.72 573.87 1109.54 573.29C1107.35 572.21 1105.17 571.11 1103 570C1103 568.35 1103 566.7 1103 565C1102.48 564.72 1102.48 564.72 1099.82 563.32C1098.45 562.59 1097.07 561.86 1095.69 561.13C1095 560.76 1094.31 560.4 1093.6 560.02C1092.93 559.67 1092.26 559.31 1091.57 558.94C1091.27 558.78 1091.27 558.78 1089.72 557.96C1088.1 557.06 1086.55 556.03 1085 555C1083.35 554.62 1081.68 554.27 1080 554C1080 553.01 1080 552.02 1080 551C1079.36 550.79 1078.72 550.59 1078.07 550.38C1077.24 550.11 1076.41 549.84 1075.56 549.56C1074.74 549.3 1073.92 549.03 1073.07 548.75C1071 548 1071 548 1070 547C1069.96 545.33 1069.96 543.67 1070 542C1070.66 541.67 1071.32 541.34 1072 541C1070.68 540.34 1069.36 539.68 1068 539C1068 540.32 1068 541.64 1068 543C1064.53 542.54 1061.33 542.11 1058 541C1058 539.68 1058 538.36 1058 537C1057.44 536.93 1057.44 536.93 1054.63 536.56C1051 536 1051 536 1049 535C1049 533.35 1049 531.7 1049 530C1049.99 529.67 1050.98 529.34 1052 529C1051.67 528.84 1051.67 528.84 1050.02 528.05C1045.1 525.64 1040.47 523.17 1036 520C1036 520.99 1036 521.98 1036 523C1033.36 523 1030.72 523 1028 523C1028 521.02 1028 519.04 1028 517C1028.66 516.67 1029.32 516.34 1030 516C1025.07 512.87 1020.09 509.86 1015 507C1015 506.34 1015 505.68 1015 505C1014.34 504.84 1014.34 504.84 1011 504C1010.67 504.66 1010.34 505.32 1010 506C1004.41 506.86 1001.42 504.7 997.04 501.6C994.85 499.88 992.97 497.97 991 496C990.32 495.84 989.64 495.67 988.94 495.5C986.2 494.79 985.43 493.36 984 491C984 490.34 984 489.68 984 489C982.68 488.67 981.36 488.34 980 488C980 487.34 980 486.68 980 486C979.42 485.71 978.85 485.42 978.25 485.13C977.51 484.75 976.77 484.38 976 484C975.34 483.73 974.68 483.46 974 483.19C971.34 481.61 969.92 479.4 968 477C966.68 476.32 965.34 475.65 964 475C960.65 471.9 957.85 468.56 955 465C950.44 460.22 950.44 460.22 948 459C947.13 459.14 946.27 459.29 945.38 459.44C940.74 458.84 938.9 456.62 935.64 453.43C933.55 450.33 933.31 447.69 933 444C935.01 442.98 937.04 441.99 939.06 441C940.19 440.44 941.31 439.89 942.47 439.31C946.32 437.88 948.94 437.53 953 438C954.86 439.32 954.86 439.32 956.31 441.13C959.7 444.95 963.32 447.06 967.86 449.35C970 451 970 451 970.86 453.95C972.19 457.5 973.59 458.35 976.96 459.97C977.59 460.25 978.22 460.53 978.88 460.81C979.5 461.11 980.13 461.41 980.77 461.72C987.44 464.84 994.09 466.52 1001.33 464.28C1003.43 463.34 1005.2 462.44 1007 461C1008 458.25 1008 458.25 1008 456C1007.34 456 1006.68 456 1006 456C1005.9 455.34 1005.8 454.67 1005.7 453.99C1005.55 453.11 1005.4 452.22 1005.25 451.31C1005.18 450.88 1005.18 450.88 1004.83 448.68C1002.71 441.82 996.98 438.77 991.27 435.06C989 433 989 433 988.67 430.25C988.78 429.51 988.89 428.77 989 428ZM1079 506C1076.36 509.63 1073.72 513.26 1071 517C1073.67 518.33 1075.17 517.67 1078 517C1078 518.32 1078 519.64 1078 521C1079.98 521 1081.96 521 1084 521C1084.33 521.99 1084.66 522.98 1085 524C1086.65 524 1088.3 524 1090 524C1090 524.66 1090 525.32 1090 526C1091.56 526.68 1093.12 527.34 1094.69 528C1095.56 528.37 1096.43 528.74 1097.32 529.13C1100.06 530.02 1102.15 530.16 1105 530C1105.17 530.5 1105.17 530.5 1106 533C1106.99 533 1107.98 533 1109 533C1109.33 531.68 1109.66 530.36 1110 529C1111.65 529.33 1113.3 529.66 1115 530C1115.02 530.93 1115.04 531.86 1115.06 532.81C1116 536 1116 536 1119.38 537.88C1123 539 1123 539 1126 539C1126 538.01 1126 537.02 1126 536C1127.65 536 1129.3 536 1131 536C1130.96 536.78 1130.92 537.57 1130.88 538.38C1131 541 1131 541 1133 543C1134.99 543.71 1136.99 544.37 1139 545C1144.85 547.16 1150.69 549.36 1156.38 551.94C1160.5 553.81 1164.68 555.54 1168.88 557.25C1169.53 557.52 1170.19 557.79 1170.86 558.07C1173.74 559.23 1175.87 560 1179 560C1175.38 557 1175.38 557 1172 557C1173.22 552.32 1174.7 548.29 1177 544C1175.25 544.13 1175.25 544.13 1173 545C1169 550.22 1169 550.22 1169 553C1166.03 552.34 1163.06 551.68 1160 551C1159.65 546.12 1160.58 543.23 1163 539C1148.46 532.68 1148.46 532.68 1142.38 531C1138.95 529.98 1136.11 528.58 1132.96 526.93C1131 526 1131 526 1127.63 525.06C1123.69 523.91 1120.38 522.24 1116.75 520.37C1109.73 516.88 1102.57 514.01 1095 512C1094.15 511.59 1093.31 511.18 1092.44 510.75C1089.1 509.72 1087.15 510.68 1084 512C1083.67 510.35 1083.34 508.7 1083 507C1081.68 506.67 1080.36 506.34 1079 506ZM1058 533C1058 533.99 1058 534.98 1058 536C1059.65 536 1061.3 536 1063 536C1062.67 535.34 1062.34 534.68 1062 534C1059.94 533.38 1059.94 533.38 1058 533ZM1086 534C1089.28 536.67 1092.7 538.42 1096.5 540.25C1123.21 553.37 1149.23 568.16 1175.13 582.81C1175.56 583.06 1175.56 583.06 1177.75 584.28C1178.53 584.73 1179.32 585.18 1180.13 585.65C1180.81 586.03 1181.49 586.42 1182.19 586.81C1184.82 588.54 1186.73 589.94 1187.51 593.04C1187.67 595.03 1187.84 597.01 1188 599C1198.53 598.48 1208.7 597.08 1219.06 595.25C1219.82 595.12 1220.59 594.99 1221.37 594.85C1253.13 589.33 1253.13 589.33 1263 585C1263 584.67 1263 584.34 1263 584C1262.21 583.93 1261.42 583.87 1260.6 583.8C1246.02 582.58 1231.54 581.17 1217.13 578.63C1216.59 578.53 1216.59 578.53 1213.88 578.07C1199.39 575.39 1185.65 570.72 1171.99 565.27C1168.88 564.03 1165.75 562.8 1162.63 561.57C1161.04 560.95 1159.45 560.32 1157.86 559.69C1147.12 555.46 1136.31 551.38 1125.51 547.32C1122.47 546.18 1119.43 545.03 1116.4 543.88C1113.35 542.73 1110.3 541.58 1107.25 540.44C1106.15 540.02 1105.05 539.6 1103.91 539.17C1097.98 536.96 1092.22 535.2 1086 534ZM1171 595C1171.33 595.66 1171.66 596.32 1172 597C1172.22 598.54 1172.41 600.08 1172.56 601.63C1172.65 602.44 1172.73 603.26 1172.82 604.1C1172.88 604.73 1172.94 605.36 1173 606C1173.66 605.67 1174.32 605.34 1175 605C1175.25 598.38 1175.25 598.38 1173 595C1172.34 595 1171.68 595 1171 595Z" fill="#cbcbcb" fill-rule="evenodd"/>
      <path d="M1204.88 494.31C1213.67 501.81 1213.67 501.81 1216 506C1216.18 509.75 1216.18 509.75 1216 513C1184.71 522.91 1157.26 513.02 1129.2 498.54C1118.11 492.74 1118.11 492.74 1114 490C1113.81 487.37 1113.81 487.37 1114 485C1141.54 479.38 1180.98 476.7 1204.88 494.31Z" fill="#cbcbcb" fill-rule="evenodd"/>
      <path d="M1081 484C1081.49 489.91 1084.62 487.12 1087.75 490.25C1093.76 496.26 1101.37 500.48 1109 505.25C1115.97 509.61 1123.15 514.81 1131 517.75C1133.2 518.57 1135.83 518.01 1138 519.25C1139.05 519.85 1138.95 521.15 1140 521.75C1141.75 522.75 1146.44 521.94 1147.75 523.25C1148.51 524.01 1147.81 525.07 1149 525.75C1150.96 526.87 1156.35 525.85 1157.75 527.25C1164.8 534.3 1181.93 534.16 1192 535" fill="none" stroke="#111111" stroke-width="4.75" stroke-linecap="round" stroke-linejoin="round"/>
      <path d="M1111 486C1113.19 491.26 1116.31 491.91 1121 494.25C1132.63 500.06 1143.17 507.31 1155 511.75C1156.6 512.35 1158.35 511.79 1160 512C1167.43 512.93 1177.06 515.69 1184 518" fill="none" stroke="#111111" stroke-width="5.75" stroke-linecap="round" stroke-linejoin="round"/>
      <path d="M1270 493C1265.95 505.14 1245.05 526 1232 526" fill="none" stroke="#111111" stroke-width="6" stroke-linecap="round" stroke-linejoin="round"/>
      <path d="M1080 510C1078.67 514 1076.97 514.01 1073 515" fill="none" stroke="#111111" stroke-width="6" stroke-linecap="round" stroke-linejoin="round"/>
      <path d="M1218 510C1212.07 515.44 1202.86 517 1195 517C1192.57 517 1188.2 516.15 1186 517.25C1184.08 518.21 1184.53 519.41 1184 521" fill="none" stroke="#111111" stroke-width="4" stroke-linecap="round" stroke-linejoin="round"/>
      <path d="M1013 512C1018.17 507.26 1022.35 509.53 1026 515" fill="none" stroke="#111111" stroke-width="4.75" stroke-linecap="round" stroke-linejoin="round"/>
      <path d="M1080 513C1083.26 517.49 1089.17 515.84 1094 518.25C1100.32 521.41 1096.68 527.42 1106 529.75C1109.49 530.62 1110.72 522.11 1117 525.25C1118.97 526.23 1119.03 528.77 1121 529.75C1124.31 531.4 1130.99 529.49 1133.75 532.25C1136.48 534.98 1140.28 539 1145 539C1147.77 539 1149.66 534.42 1153 535.25C1160 537 1159.34 540.66 1155 545" fill="none" stroke="#111111" stroke-width="6" stroke-linecap="round" stroke-linejoin="round"/>
      <path d="M1013 514C1021.93 519.95 1021.08 519.45 1028 527" fill="none" stroke="#111111" stroke-width="6" stroke-linecap="round" stroke-linejoin="round"/>
      <path d="M1096 519C1101.84 519 1108.17 519.32 1112 524" fill="none" stroke="#111111" stroke-width="6" stroke-linecap="round" stroke-linejoin="round"/>
      <path d="M1240 523C1234.89 517.89 1228.57 517.78 1232 526" fill="none" stroke="#111111" stroke-width="4.75" stroke-linecap="round" stroke-linejoin="round"/>
      <path d="M1232 526C1230.56 529.95 1224.86 529.42 1221 532" fill="none" stroke="#111111" stroke-width="6" stroke-linecap="round" stroke-linejoin="round"/>
      <path d="M1028 527C1038.96 527 1045.27 535.38 1053 541" fill="none" stroke="#111111" stroke-width="6" stroke-linecap="round" stroke-linejoin="round"/>
      <path d="M1051 529C1046.79 527.6 1045.43 527.86 1042 531" fill="none" stroke="#111111" stroke-width="6" stroke-linecap="round" stroke-linejoin="round"/>
      <path d="M1213 532C1216.25 532 1218.92 532.03 1222 531" fill="none" stroke="#111111" stroke-width="6" stroke-linecap="round" stroke-linejoin="round"/>
      <path d="M1213 532C1209.81 535.19 1206.87 532.32 1203 534.25C1200.18 535.66 1197.4 554.19 1191 535" fill="none" stroke="#111111" stroke-width="4.75" stroke-linecap="round" stroke-linejoin="round"/>
      <path d="M1213 534C1214.18 538.74 1222.34 544.89 1223 537" fill="none" stroke="#111111" stroke-width="5.75" stroke-linecap="round" stroke-linejoin="round"/>
      <path d="M1192 535C1195 535 1198 535 1201 535" fill="none" stroke="#111111" stroke-width="6" stroke-linecap="round" stroke-linejoin="round"/>
      <path d="M1147 539C1149.2 544.29 1152 545.92 1157 543" fill="none" stroke="#111111" stroke-width="6" stroke-linecap="round" stroke-linejoin="round"/>
      <path d="M1068 540C1061.28 530.76 1058.45 534.55 1052 541" fill="none" stroke="#111111" stroke-width="4" stroke-linecap="round" stroke-linejoin="round"/>
      <path d="M1068 540C1067.13 550.44 1057.7 544.13 1053 541" fill="none" stroke="#111111" stroke-width="6" stroke-linecap="round" stroke-linejoin="round"/>
      <path d="M1175 544C1172.57 547.24 1170.54 550.3 1169 554" fill="none" stroke="#111111" stroke-width="5.75" stroke-linecap="round" stroke-linejoin="round"/>
      <path d="M1155 545C1157.03 553.12 1162.42 551.81 1169 554" fill="none" stroke="#111111" stroke-width="5.75" stroke-linecap="round" stroke-linejoin="round"/>
      <path d="M1226 545C1231.86 545 1232.23 544.69 1234 550" fill="none" stroke="#111111" stroke-width="6" stroke-linecap="round" stroke-linejoin="round"/>
      <path d="M1066 546C1071.61 554.42 1078.84 557.17 1088 561.75C1089.64 562.57 1092.2 562.01 1093.75 563.25C1101.65 569.57 1110.7 573.6 1120 578.25C1124.51 580.51 1139.25 589.79 1144 587.75C1145.1 587.28 1145 585.94 1145 585C1145 578.02 1138.5 575.29 1133 573" fill="none" stroke="#111111" stroke-width="6" stroke-linecap="round" stroke-linejoin="round"/>
      <path d="M1286 546C1275.8 549.4 1253.67 554.33 1243 553C1239.78 552.6 1237.39 550.28 1234 550" fill="none" stroke="#111111" stroke-width="6" stroke-linecap="round" stroke-linejoin="round"/>
      <path d="M1224 550C1227.9 552.6 1230.1 552.6 1234 550" fill="none" stroke="#111111" stroke-width="4" stroke-linecap="round" stroke-linejoin="round"/>
      <path d="M1169 554C1171.16 556.96 1172.54 557.14 1176 558" fill="none" stroke="#111111" stroke-width="4.75" stroke-linecap="round" stroke-linejoin="round"/>
      <path d="M390 384C391.08 383.64 391.92 383.36 393 383" fill="none" stroke="#111111" stroke-width="6" stroke-linecap="round" stroke-linejoin="round"/>
      <path d="M1218 510C1220.28 510 1221.86 509.71 1224 509" fill="none" stroke="#111111" stroke-width="6" stroke-linecap="round" stroke-linejoin="round"/>
      <path d="M1218 510C1217.67 510.33 1216.33 511.67 1216 512" fill="none" stroke="#111111" stroke-width="6" stroke-linecap="round" stroke-linejoin="round"/>
      <path d="M1026 515C1028 515.5 1029.92 515.83 1032 516" fill="none" stroke="#111111" stroke-width="4" stroke-linecap="round" stroke-linejoin="round"/>
      <path d="M1026 515C1025.04 516.44 1024.26 517.63 1023 519" fill="none" stroke="#111111" stroke-width="6" stroke-linecap="round" stroke-linejoin="round"/>
      <path d="M1028 527C1027.67 527.33 1026.33 528.67 1026 529" fill="none" stroke="#111111" stroke-width="6" stroke-linecap="round" stroke-linejoin="round"/>
      <path d="M1212 530C1212.34 531.35 1212.55 532.64 1213 534" fill="none" stroke="#111111" stroke-width="6" stroke-linecap="round" stroke-linejoin="round"/>
      <path d="M1221 532C1221.55 533.65 1222.45 535.35 1223 537" fill="none" stroke="#111111" stroke-width="4" stroke-linecap="round" stroke-linejoin="round"/>
      <path d="M1068 540C1070 540.5 1071.92 540.83 1074 541" fill="none" stroke="#111111" stroke-width="4" stroke-linecap="round" stroke-linejoin="round"/>
      <path d="M1053 541C1054.65 539.35 1055.78 537.83 1057 536" fill="none" stroke="#111111" stroke-width="6" stroke-linecap="round" stroke-linejoin="round"/>
      <path d="M1223 541C1223.84 543.32 1223.82 543.42 1226 545" fill="none" stroke="#111111" stroke-width="6" stroke-linecap="round" stroke-linejoin="round"/>
      <path d="M1226 545C1225.45 546.65 1224.55 548.35 1224 550" fill="none" stroke="#111111" stroke-width="4" stroke-linecap="round" stroke-linejoin="round"/>
      <path d="M1066 546C1066.65 545.03 1067.48 543.78 1068 543" fill="none" stroke="#111111" stroke-width="6" stroke-linecap="round" stroke-linejoin="round"/>
      <path d="M1220 549C1221.58 549.53 1222.23 549.85 1224 550" fill="none" stroke="#111111" stroke-width="4" stroke-linecap="round" stroke-linejoin="round"/>
      <path d="M1234 550C1233.67 550.33 1232.33 551.67 1232 552" fill="none" stroke="#111111" stroke-width="6" stroke-linecap="round" stroke-linejoin="round"/>
    </g>
</svg>
