<?xml version="1.0" encoding="UTF-8"?>
<svg xmlns="http://www.w3.org/2000/svg" xmlns:inkscape="http://www.inkscape.org/namespaces/inkscape"
     viewBox="0 0 1400 786" width="1400" height="786">
<g id="layer-front_laces" inkscape:label="Foreground shoe laces" data-z="7" data-kind="component" data-regions="50" data-strokes="212">
      <path d="M805 264C807.63 263.81 807.63 263.81 810 264C810.17 264.33 810.17 264.33 811 266C813.06 266.63 813.06 266.63 815 267C815 268.65 815 270.3 815 272C814.11 272.29 813.23 272.58 812.31 272.88C808.16 275.54 807.22 278.1 805.23 282.48C803.57 285.89 801.64 288.29 799 291C798.34 291 797.68 291 797 291C797 291.66 797 292.32 797 293C798.98 293.33 800.96 293.66 803 294C803 295.65 803 297.3 803 299C802.42 299.18 801.84 299.37 801.24 299.56C794.2 302.17 791.78 305.75 788 312C782.82 319.63 782.82 319.63 778.56 320.5C776.31 320.5 774.21 320.36 772 320C771.82 316.05 771.91 313.4 774 310C773.67 309.67 773.34 309.34 773 309C772.96 307.33 772.96 305.67 773 304C773.28 304 773.28 304 774.69 303.98C779.11 303.54 781.35 302.71 784.41 299.37C790.1 291.19 790.1 291.19 789.77 287.18C789 285 789 285 788 284C787.96 282.33 787.96 280.67 788 279C788.58 278.8 789.16 278.61 789.76 278.41C796.23 275.93 799.36 272.82 803 267C803.66 266.01 804.32 265.02 805 264Z" fill="#ffffff" fill-rule="evenodd"/>
      <path d="M772.75 274.63C773.12 274.69 773.12 274.69 775 275C775.1 275.62 775.21 276.24 775.31 276.88C776 279 776 279 779 281C779.19 283.63 779.19 283.63 779 286C769.59 288.3 769.59 288.3 765 288C765.44 282.45 766.27 275.51 772.75 274.63Z" fill="#ffffff" fill-rule="evenodd"/>
      <path d="M726 284C726.17 285.32 726.17 285.32 727 292C724.03 293.65 721.06 295.3 718 297C718.66 297.33 719.32 297.66 720 298C720.58 302.9 718.72 305.04 716 309C714.86 311.63 713.94 314.28 713 317C708.45 317.37 708.45 317.37 706.19 315.5C705.99 315.25 705.99 315.25 705 314C705 315.65 705 317.3 705 319C701.04 319 697.08 319 693 319C693.88 312.25 693.88 312.25 695 310C697.06 309.38 697.06 309.38 699 309C698.01 308.67 697.02 308.34 696 308C696 306.35 696 304.7 696 303C694.02 302.67 692.04 302.34 690 302C690 299.69 690 297.38 690 295C693.23 294.05 696.42 293.13 699.72 292.41C706.54 290.89 712.2 288.62 718.31 285.21C721.14 283.94 722.94 283.75 726 284ZM701 301C701 301.33 701 301.66 701 302C702.65 302 704.3 302 706 302C706 301.67 706 301.34 706 301C704.35 301 702.7 301 701 301Z" fill="#ffffff" fill-rule="evenodd"/>
      <path d="M1007.56 294.66C1016.19 301.07 1023.16 309.52 1026 320C1026.04 322 1026.05 324 1026 326C1025.61 326.01 1025.61 326.01 1023.62 326.04C991.25 326.72 991.25 326.72 976.8 330.59C974.73 331.06 972.87 331.1 970.75 331.06C970.13 331.05 970.13 331.05 967 331C963.5 320.42 961.95 310.28 967 300C970.17 294.94 975.2 291.24 980.9 289.38C990.83 287.59 999.16 289.21 1007.56 294.66Z" fill="#ffffff" fill-rule="evenodd"/>
      <path d="M778.38 289.96C780.59 289.94 782.79 289.96 785 290C784.17 298.42 784.17 298.42 781 302C775.3 304.06 770.02 304.25 764 304C763.62 298.88 765.16 296.56 768.3 292.67C771.39 289.63 774.28 290.03 778.38 289.96Z" fill="#ffffff" fill-rule="evenodd"/>
      <path d="M753.19 301.69C754.12 301.79 755.04 301.89 756 302C756 302.66 756 303.32 756 304C757.32 304.33 758.64 304.66 760 305C760 306.65 760 308.3 760 310C755.46 311.45 751.82 312.24 747 312C746.74 308.95 746.98 307.06 748.13 304.19C750 302 750 302 753.19 301.69Z" fill="#ffffff" fill-rule="evenodd"/>
      <path d="M1028 306C1029.65 306 1031.3 306 1033 306C1034.15 308.25 1035.3 310.5 1036.44 312.75C1036.6 313.07 1036.6 313.07 1037.42 314.67C1041.89 323.52 1042.37 333.42 1040.35 343.11C1037.24 352.32 1031.7 362.98 1023 368C1020.06 368.38 1020.06 368.38 1018 368C1017.75 365.09 1017.62 363.53 1019.36 361.11C1019.96 360.52 1020.57 359.93 1021.19 359.31C1028.87 350.97 1031.89 341.21 1033 330C1032.67 323.04 1030.82 317.29 1028 311C1027.81 308.06 1027.81 308.06 1028 306Z" fill="#ffffff" fill-rule="evenodd"/>
      <path d="M743 313C745.63 312.81 745.63 312.81 748 313C747.84 320.17 744.28 324.46 740 330C739.77 330.33 739.77 330.33 738.6 331.97C737.38 333.63 737.38 333.63 735 336C732.19 336.38 732.19 336.38 730 336C730.38 329.96 732.09 326.84 735.94 322.25C736.84 321.13 737.75 320.01 738.65 318.89C739.43 317.94 740.2 316.98 741 316C741.66 315.01 742.32 314.02 743 313Z" fill="#ffffff" fill-rule="evenodd"/>
      <path d="M768 314C767.66 320.18 765.86 323.17 761.75 327.69C761.27 328.24 760.79 328.8 760.3 329.37C752.37 338.41 752.37 338.41 746 339C743.33 339.07 740.68 339.05 738 339C737.19 334.25 739.25 331.68 741.86 327.97C742.12 327.62 742.12 327.62 743.44 325.81C744.46 324.38 745.48 322.95 746.5 321.52C746.72 321.21 746.72 321.21 747.88 319.62C749 318 749 318 750 316C755.9 314.14 761.86 313.77 768 314Z" fill="#ffffff" fill-rule="evenodd"/>
      <path d="M953 319C954.65 319 956.3 319 958 319C958.68 320.73 959.34 322.46 960 324.19C960.19 324.67 960.19 324.67 961.13 327.11C961.98 329.92 962.17 332.08 962 335C959.69 335.31 959.69 335.31 957 335C953.01 329.87 952.88 325.33 953 319Z" fill="#ffffff" fill-rule="evenodd"/>
      <path d="M701 330C701 331.65 701 333.3 701 335C691.87 336.9 683.28 337.23 674 337C674 335.02 674 333.04 674 331C683.01 330.42 691.97 329.86 701 330Z" fill="#ffffff" fill-rule="evenodd"/>
      <path d="M696 337C696.38 339.13 696.38 339.13 696 342C691.61 347.55 691.61 347.55 687.91 348.58C685.63 348.81 683.42 348.88 681.13 348.88C680.34 348.9 679.56 348.92 678.75 348.94C676.83 348.98 674.92 349 673 349C672.87 342.2 672.87 342.2 675 339C680.87 336.07 689.5 336.85 696 337Z" fill="#ffffff" fill-rule="evenodd"/>
      <path d="M893 369C893.04 370.67 893.04 372.33 893 374C892 375 892 375 888.81 375.25C884.71 374.98 882.63 373.81 879 372C872.82 371.37 872.82 371.37 870.32 373.28C867.88 376.47 868.51 380.23 869 384C872.38 398.57 879.37 411.79 890.26 422.15C894.42 426.57 893.12 435.24 893 441C888.02 441.4 885.74 440.61 881.81 437.56C881.34 437.2 881.34 437.2 878.94 435.34C877.97 434.57 877 433.8 876 433C875.05 432.28 874.1 431.56 873.13 430.82C862.38 422.44 854.06 412.85 852 399C851.74 388.6 852.75 379.69 859 371C869.1 361.93 881.22 363.61 893 369Z" fill="#ffffff" fill-rule="evenodd"/>
      <path d="M878.63 379.88C879.18 379.9 879.18 379.9 882 380C882 381.65 882 383.3 882 385C878.87 386.86 876.63 387.2 873 387C872.88 384.63 872.88 384.63 873 382C875 380 875 380 878.63 379.88Z" fill="#ffffff" fill-rule="evenodd"/>
      <path d="M848 389C848.17 391.64 848.17 391.64 849 405C841.93 403.99 841.93 403.99 838 402C832.09 401.68 827.53 403.12 823 407C819.47 411.24 819.73 414.71 820 420C817.36 420 814.72 420 812 420C811.84 418.68 811.84 418.68 811 412C800.73 410.94 791.47 414.43 782.56 419.38C778.42 421.26 776.34 421.22 772 420C770 418 770 418 769.88 414.88C769.92 413.93 769.96 412.98 770 412C771.11 411.84 772.23 411.68 773.38 411.52C787.83 409.36 800.57 405.99 813.48 399.1C819.5 396.01 825.73 393.96 832.19 392C833.18 391.7 834.17 391.39 835.2 391.08C839.78 389.74 843.14 389 848 389Z" fill="#ffffff" fill-rule="evenodd"/>
      <path d="M921 394C921.18 397.52 920.94 400.23 920.01 403.65C918.84 408.18 918.7 412.46 918.75 417.13C918.74 417.88 918.74 418.63 918.73 419.41C918.78 435.48 923.42 450.25 927.98 465.49C934.1 486.03 934.1 486.03 933 496C926.46 496.45 921.33 496.15 916 492C900.8 475.34 895.41 444.23 896 422.51C896.86 406.19 896.86 406.19 901.73 401.24C907.51 396.61 913.43 393.45 921 394Z" fill="#ffffff" fill-rule="evenodd"/>
      <path d="M1037 399C1037.06 399.37 1037.06 399.37 1037.35 401.23C1037.88 404.57 1038.41 407.91 1038.94 411.25C1039.03 411.83 1039.03 411.83 1039.49 414.76C1039.67 415.88 1039.85 416.99 1040.03 418.14C1040.19 419.17 1040.35 420.19 1040.52 421.25C1041 424 1041 424 1041.56 426.13C1042.26 429.07 1042.06 431.99 1042 435C1037.24 435.34 1034.96 434.73 1031.13 431.94C1020.4 424.75 1008.72 420.22 996 418C994.74 417.77 993.48 417.55 992.19 417.31C989.44 417.05 986.72 416.96 983.96 416.95C983.23 416.94 982.5 416.94 981.74 416.94C978.5 416.94 975.25 416.97 972 417C972 415.35 972 413.7 972 412C988.2 407.23 1004.41 403.16 1021 400C1022.01 399.79 1023.01 399.58 1024.05 399.37C1028.37 398.83 1032.66 398.92 1037 399Z" fill="#ffffff" fill-rule="evenodd"/>
      <path d="M840 404C843.05 406.16 844.93 408.92 847 412C847.72 413.05 848.43 414.09 849.17 415.17C850.6 417.29 852.01 419.42 853.4 421.56C855 424 855 424 856 425C856.04 426.67 856.04 428.33 856 430C847.5 432.5 847.5 432.5 844 433C843.33 433.11 842.66 433.22 841.97 433.34C838.26 433.7 835.93 433.63 832.78 431.5C827.55 426.51 823.56 421.08 822.56 413.81C823.08 410.51 823.95 408.64 826 406C830.45 403.29 834.95 402.89 840 404Z" fill="#ffffff" fill-rule="evenodd"/>
      <path d="M927 405C934.75 404.88 934.75 404.88 937 406C937.36 410.45 937.36 410.45 935.81 412.81C933.44 414.37 931.78 414.23 929 414C929 412.68 929 411.36 929 410C928.34 410 927.68 410 927 410C927 408.35 927 406.7 927 405Z" fill="#ffffff" fill-rule="evenodd"/>
      <path d="M953 410C962.26 413.09 969.55 419.28 976.98 425.38C979.21 427.17 981.48 428.91 983.75 430.65C984.56 431.27 985.37 431.89 986.2 432.52C987.78 433.73 989.37 434.94 990.96 436.14C995.91 439.95 1000.13 443.23 1002.06 449.38C1001.99 453.57 1001.21 455.48 998.57 458.66C997 460 997 460 993.94 460.81C983.93 459.7 975.36 452.25 968 446C966.06 444.41 964.11 442.83 962.16 441.26C960.08 439.57 958 437.88 955.93 436.19C953.52 434.23 951.1 432.28 948.67 430.34C947.71 429.57 946.74 428.8 945.75 428C944.92 427.34 944.09 426.68 943.23 426C940.11 423.2 937.35 420.61 936.44 416.44C937 414 937 414 938.81 411.69C943.63 409.14 947.66 409.12 953 410Z" fill="#ffffff" fill-rule="evenodd"/>
      <path d="M745 412C744.39 416.35 743.73 420.67 743 425C730.6 424.3 718.31 422.6 706 421C706 419.35 706 417.7 706 416C710.16 413.92 715.3 413.99 719.88 413.44C720.96 413.3 722.04 413.16 723.16 413.02C730.47 412.13 737.63 411.83 745 412Z" fill="#ffffff" fill-rule="evenodd"/>
      <path d="M687 416C687.02 416.9 687.03 417.8 687.04 418.72C687.85 463.67 696.16 504.94 712.06 547.01C713.39 551.24 713.45 554.61 713 559C710.81 561.19 705.74 560.37 702.72 560.38C698.97 560.28 696.89 559.94 693.5 558.19C692.24 556.75 692.24 556.75 691 555C690.73 554.68 690.73 554.68 689.38 553.06C678.14 537.87 674.62 516.17 671 498C670.85 497.28 670.7 496.56 670.55 495.81C659.72 442.3 659.72 442.3 668.75 424.56C674.3 418.24 678.41 415.84 687 416Z" fill="#ffffff" fill-rule="evenodd"/>
      <path d="M761 416C769.01 418.07 774.9 423.69 781 429C781.82 429.68 782.64 430.37 783.48 431.07C787.6 434.56 787.6 434.56 789 436C789 436.66 789 437.32 789 438C790.32 438.66 791.64 439.32 793 440C792.67 447.17 789.35 452.77 786 459C782.31 459.38 780.52 459.36 777.42 457.23C776.54 456.37 775.66 455.51 774.75 454.63C774.26 454.15 773.77 453.68 773.26 453.19C771.49 451.48 769.75 449.74 768 448C766.44 446.48 764.88 444.96 763.32 443.44C761.69 441.84 760.07 440.23 758.44 438.63C757.65 437.85 756.87 437.08 756.06 436.28C755.31 435.54 754.57 434.8 753.81 434.04C753.15 433.38 752.49 432.72 751.8 432.05C748.97 428.83 747.16 426.15 746.56 421.88C747 419 747 419 748.73 417.35C752.69 415 756.55 415.43 761 416Z" fill="#ffffff" fill-rule="evenodd"/>
      <path d="M981.5 417.9C982.01 417.91 982.01 417.91 984.56 417.94C985.57 417.95 986.59 417.96 987.63 417.96C988.02 417.97 988.02 417.97 990 418C990.04 420 990.04 422 990 424C989 425 989 425 986.75 425.13C985.84 425.13 984.93 425.13 984 425.13C983.55 425.13 983.55 425.13 981.25 425.13C979 425 979 425 978 424C977.87 421.5 977.87 421.5 978 419C979 418 979 418 981.5 417.9Z" fill="#ffffff" fill-rule="evenodd"/>
      <path d="M924 424C928.09 424.03 931.87 424.45 935.56 426.25C937 428 937 428 937.25 430.69C937.17 431.45 937.09 432.21 937 433C928.74 437.59 928.74 437.59 924 437C922.75 434.5 922.87 432.73 922.88 429.94C922.87 429.04 922.87 428.14 922.87 427.22C923 425 923 425 924 424Z" fill="#ffffff" fill-rule="evenodd"/>
      <path d="M1011 425C1015.06 425.47 1018.47 425.88 1022 428C1022 429.65 1022 431.3 1022 433C1014.38 432.13 1014.38 432.13 1011 431C1011 429.02 1011 427.04 1011 425Z" fill="#ffffff" fill-rule="evenodd"/>
      <path d="M827 429C827.5 434.32 826.3 435.97 823 440C822.04 441.75 821.14 443.53 820.3 445.33C819.82 446.37 819.34 447.4 818.84 448.46C818.34 449.57 817.83 450.67 817.31 451.81C816.78 452.97 816.26 454.13 815.71 455.32C807.46 473.61 801.06 492.42 795.04 511.55C793.68 515.88 792.3 520.2 790.9 524.52C790.59 525.46 790.29 526.39 789.97 527.36C788.44 531.52 786.37 535.26 784 539C783.38 539.99 782.76 540.98 782.13 542C779.25 544.71 776.86 544.78 773 545C767.32 536.76 766.59 528.67 768.4 518.84C768.93 516.6 769.51 514.39 770.13 512.17C770.35 511.35 770.57 510.53 770.8 509.69C773.08 501.43 775.75 493.31 778.55 485.21C779.38 482.81 780.19 480.4 781.01 477.99C783.64 470.28 786.43 462.68 789.67 455.21C789.94 454.57 790.22 453.93 790.5 453.27C795.11 442.91 801.66 434.05 812.31 429.63C817.24 428.79 822.02 428.84 827 429Z" fill="#ffffff" fill-rule="evenodd"/>
      <path d="M694.5 430.56C699.68 431.21 702.87 433.96 707 437C707.39 437.25 707.39 437.25 709.36 438.52C714.8 442.16 714.8 442.16 715.75 446.06C714.85 449.57 713.4 451.32 711 454C710.29 455.31 709.61 456.64 709 458C706.5 458.5 706.5 458.5 703 458C699.96 455.66 697.5 452.91 695 450C694.18 449.09 693.35 448.19 692.5 447.25C690.22 442.31 690.49 437.36 691 432C692 431 692 431 694.5 430.56Z" fill="#ffffff" fill-rule="evenodd"/>
      <path d="M873.48 432.5C873.86 432.84 873.86 432.84 875.75 434.56C880.2 438.44 884.8 441.39 889.95 444.26C892 446 892 446 892.49 448.52C892 451 892 451 890.57 452.33C888.56 454.47 888.08 456.36 887.31 459.19C887.06 460.09 886.81 460.99 886.55 461.92C886.37 462.6 886.19 463.29 886 464C885.19 464.1 884.39 464.2 883.56 464.3C880.5 464.69 877.44 465.09 874.38 465.49C872.43 465.74 870.49 465.98 868.54 466.23C860.75 467.26 853.53 468.8 846.05 471.13C842.01 472.28 838.18 472.71 834 473C832.72 470.5 831.45 468 830.19 465.5C829.83 464.8 829.47 464.11 829.11 463.39C822.24 449.78 822.24 449.78 823 442C825.38 438.43 826.14 438.41 830.17 437.46C831.22 437.21 832.27 436.96 833.36 436.7C834.48 436.45 835.6 436.2 836.75 435.94C837.88 435.67 839.02 435.41 840.19 435.14C867.55 428.91 867.55 428.91 873.48 432.5Z" fill="#ffffff" fill-rule="evenodd"/>
      <path d="M752 435C752.29 437.18 752.29 437.18 752 440C750.02 442.54 750.02 442.54 747.38 445.19C726.58 466.92 727.6 497.74 727 526C724.94 526.67 722.88 527.34 720.81 528C719.66 528.37 718.52 528.74 717.33 529.13C714.36 529.91 712.05 530.18 709 530C708.19 527.75 707.37 525.5 706.56 523.25C706.45 522.93 706.45 522.93 705.87 521.33C698.91 501.96 702.24 475.49 710.75 457C714.09 451.33 718.23 446.52 723 442C723.84 441.21 724.67 440.42 725.53 439.6C733.52 432.91 742.05 432.09 752 435Z" fill="#ffffff" fill-rule="evenodd"/>
      <path d="M698 460C699.98 460 701.96 460 704 460C704 461.98 704 463.96 704 466C703.01 466 702.02 466 701 466C701 467.65 701 469.3 701 471C698.36 471 695.72 471 693 471C693.33 468.36 693.66 465.72 694 463C695.32 463 696.64 463 698 463C698 462.01 698 461.02 698 460Z" fill="#ffffff" fill-rule="evenodd"/>
      <path d="M813 467C817.12 466.78 819.57 466.83 822.88 469.38C823.47 469.82 824.07 470.26 824.68 470.71C825.12 471.14 825.55 471.56 826 472C826 472.66 826 473.32 826 474C826.56 474.23 827.11 474.45 827.69 474.69C830.75 476.43 832.77 478.27 835 481C835.31 484.31 835.31 484.31 835 487C833.89 487.54 832.77 488.07 831.63 488.63C828.55 490.35 828.07 490.84 826.56 494.25C826.38 495.16 826.19 496.07 826 497C820.32 496.61 816.89 494.98 812.56 491.44C812.02 491.01 811.48 490.59 810.92 490.15C809.61 489.11 808.3 488.06 807 487C807.43 479.64 809.98 473.68 813 467Z" fill="#ffffff" fill-rule="evenodd"/>
      <path d="M870 468C870.34 474.87 869.11 480.81 867.38 487.44C867.14 488.42 866.9 489.41 866.66 490.42C864.67 498.13 861.83 505.45 855 510C851.56 510 851.56 510 848 509C843.15 503.25 842.6 498.31 843 491C843.47 488.02 844.15 485.11 844.88 482.19C845.05 481.44 845.22 480.69 845.4 479.92C846.23 476.48 847.02 473.97 849 471C855.83 468.65 862.8 467.58 870 468Z" fill="#ffffff" fill-rule="evenodd"/>
      <path d="M887 470C887 473.63 887 477.26 887 481C878.77 480.21 878.77 480.21 876 477C875.75 473.81 875.75 473.81 876 471C879.73 470.12 883.17 469.91 887 470Z" fill="#ffffff" fill-rule="evenodd"/>
      <path d="M734 478C736.12 477.56 736.12 477.56 739 478C741.39 480.09 743.22 482.6 745.13 485.13C745.69 485.84 746.25 486.56 746.82 487.3C747.99 488.78 749.14 490.27 750.29 491.77C752.43 494.56 754.61 497.32 756.79 500.08C758.18 501.85 759.57 503.63 760.95 505.4C763 508 763 508 764 509C764.04 510.67 764.04 512.33 764 514C747.79 520.6 747.79 520.6 742 520C737.53 517.2 733.64 513.6 731 509C729.88 503.83 730.31 499.21 731 494C731.15 492.67 731.3 491.33 731.45 490C732.63 480.74 732.63 480.74 734 478Z" fill="#ffffff" fill-rule="evenodd"/>
      <path d="M667 493C667 495.31 667 497.62 667 500C663.7 500.33 660.4 500.66 657 501C657 496 657 496 658.06 494.19C660.99 492.39 663.65 492.81 667 493Z" fill="#ffffff" fill-rule="evenodd"/>
      <path d="M942 503C942 504.65 942 506.3 942 508C938.72 509.1 936.26 509.1 932.81 509.06C932.27 509.06 932.27 509.06 929.52 509.04C928.69 509.02 927.86 509.01 927 509C927 507.35 927 505.7 927 504C928.56 503.83 930.13 503.66 931.69 503.5C932.56 503.41 933.43 503.31 934.32 503.22C936.9 503.01 939.42 502.96 942 503Z" fill="#ffffff" fill-rule="evenodd"/>
      <path d="M999 330C1001.09 329.6 1001.09 329.6 1003.5 329.63C1004.29 329.62 1005.09 329.61 1005.91 329.6C1006.6 329.73 1007.29 329.87 1008 330C1008.33 330.5 1008.33 330.5 1010 333C1010.33 332.01 1010.66 331.02 1011 330C1012.46 329.97 1013.92 329.95 1015.38 329.94C1016.19 329.93 1017 329.91 1017.84 329.9C1020 330 1020 330 1022 331C1022 331.99 1022 332.98 1022 334C1023.32 334 1024.64 334 1026 334C1026.13 336.88 1026.13 336.88 1026 340C1025.34 340.66 1024.68 341.32 1024 342C1023.38 344.13 1023.38 344.13 1023 346C1022.42 346.12 1021.84 346.24 1021.24 346.37C1020.46 346.54 1019.68 346.7 1018.88 346.88C1018.11 347.04 1017.34 347.2 1016.56 347.37C1014 348 1014 348 1011.25 348.97C1007.26 350.23 1003.31 350.95 999.19 351.63C998.81 351.69 998.81 351.69 996.9 352.03C983.24 354.31 983.24 354.31 978.44 351.5C977.96 351.01 977.49 350.51 977 350C977 351.65 977 353.3 977 355C974.2 356.4 972.1 356.25 969 356C967.13 354.5 967.13 354.5 966 353C966 354.65 966 356.3 966 358C965.29 358.25 964.57 358.49 963.83 358.74C956.12 361.64 950.36 365.47 944.03 370.58C941.52 372.59 939.01 374.39 936.31 376.13C932.08 378.87 928.21 381.98 924.31 385.17C921.63 387.3 918.88 389.16 916 391C915.67 391.33 915.34 391.66 915 392C912.35 392.46 909.68 392.7 907 393C906.67 393.99 906.34 394.98 906 396C905.05 396.1 904.1 396.21 903.13 396.31C900 397 900 397 898 400C893.6 402.1 888.9 403.47 884 403C884 402.34 884 401.68 884 401C881.69 401 879.38 401 877 401C877 398.36 877 395.72 877 393C877.83 392.84 877.83 392.84 882 392C882.33 391.01 882.66 390.02 883 389C884.58 388.35 886.16 387.7 887.76 387.09C891.69 385.18 895.06 382.46 898.55 379.84C902.35 376.99 904.24 375.74 909 376C909.05 375.7 909.05 375.7 909.32 374.15C910.45 370.56 913.66 368.94 916.63 366.88C917.3 366.4 917.97 365.92 918.67 365.42C920.77 363.93 922.88 362.46 925 361C925.63 360.56 926.26 360.13 926.9 359.68C934.09 354.71 941.44 350.04 948.94 345.56C949.62 345.15 950.31 344.74 951.02 344.31C957.72 340.37 964.02 337.36 972 338C972.33 338.17 972.33 338.17 974 339C974.08 338.38 974.17 337.75 974.25 337.11C975 335 975 335 976.72 333.95C983.43 331.83 990.19 330.73 997 333C997.66 332.01 998.32 331.02 999 330Z" fill="#c2c2c2" fill-rule="evenodd"/>
      <path d="M1015 352C1015 353.65 1015 355.3 1015 357C1013.68 357.33 1012.36 357.66 1011 358C1011.66 358.33 1012.32 358.66 1013 359C1013.27 361.27 1013.27 361.27 1013 364C1011.17 365.98 1011.17 365.98 1008.75 367.75C1007.96 368.34 1007.17 368.94 1006.36 369.55C1002.79 371.75 999.89 372.13 995.75 372.06C995.13 372.05 995.13 372.05 992 372C992 371.01 992 370.02 992 369C991.34 369.33 990.68 369.66 990 370C989.67 370.99 989.34 371.98 989 373C987.35 373 985.7 373 984 373C984 372.34 984 371.68 984 371C983.34 371 982.68 371 982 371C982 369.35 982 367.7 982 366C982.66 365.67 983.32 365.34 984 365C981.69 364.67 979.38 364.34 977 364C977 362.02 977 360.04 977 358C978.03 357.71 979.06 357.42 980.13 357.13C982.51 356.45 984.79 355.72 987.13 354.88C989.97 354.01 992.05 353.67 995 354C995.66 354.66 996.32 355.32 997 356C999.13 356.63 999.13 356.63 1001 357C1001 355.68 1001 354.36 1001 353C1005.72 352.23 1010.22 351.9 1015 352ZM1003 359C1003 359.66 1003 360.32 1003 361C1004.32 360.67 1005.64 360.34 1007 360C1005.68 359.67 1004.36 359.34 1003 359Z" fill="#c2c2c2" fill-rule="evenodd"/>
      <path d="M972 361C973 362 973 362 973.25 365.13C972.83 371.66 969.98 376.88 966 382C961.38 385.89 957.84 386.6 952 387C952.48 379.58 953.2 371.94 956 365C958.94 362.81 958.94 362.81 962 362C962.66 361.77 963.32 361.55 964 361.31C966.7 360.89 969.28 360.88 972 361Z" fill="#c2c2c2" fill-rule="evenodd"/>
      <path d="M1007 376C1009.97 376 1012.94 376 1016 376C1016 376.99 1016 377.98 1016 379C1021.75 379.13 1021.75 379.13 1024 378C1029.16 377.5 1029.16 377.5 1032 378C1034.91 380.54 1035.91 381.95 1036.25 385.81C1036.17 386.53 1036.09 387.26 1036 388C1034.68 388.33 1033.36 388.66 1032 389C1032 390.32 1032 391.64 1032 393C1031.03 393.27 1030.06 393.54 1029.06 393.81C1028.05 394.2 1027.04 394.6 1026 395C1025.84 395.5 1025.84 395.5 1025 398C1019.23 400.43 1013.22 401.41 1007 401C1007 400.34 1007 399.68 1007 399C1005.35 399 1003.7 399 1002 399C1001.67 400.32 1001.34 401.64 1001 403C1000.43 403.16 1000.43 403.16 997.56 403.94C994 405 994 405 993 406C985.58 406.48 985.58 406.48 983.19 404.5C982.8 404.01 982.4 403.51 982 403C981.01 403 980.02 403 979 403C979 404.32 979 405.64 979 407C978.01 407.17 978.01 407.17 973 408C973 408.99 973 409.98 973 411C969.51 411.25 967.5 411.29 964.44 409.5C959.91 407.52 956.1 407.84 951.22 407.96C947.37 408.01 943.8 407.6 940 407C940 405.35 940 403.7 940 402C957.93 391.63 957.93 391.63 966.24 393.5C966.82 393.67 967.4 393.83 968 394C968.33 392.68 968.66 391.36 969 390C971.31 390 973.62 390 976 390C976 388.68 976 387.36 976 386C977.89 385.32 979.79 384.66 981.69 384C982.74 383.63 983.8 383.26 984.89 382.88C987.78 382.06 990.02 381.82 993 382C993.17 382.33 993.17 382.33 994 384C996.06 384.63 996.06 384.63 998 385C998 383.02 998 381.04 998 379C1000.64 379 1003.28 379 1006 379C1006.33 378.01 1006.66 377.02 1007 376Z" fill="#c2c2c2" fill-rule="evenodd"/>
      <path d="M986 377C986 378.65 986 380.3 986 382C976.59 385.44 976.59 385.44 972 385C972 383.35 972 381.7 972 380C976.93 377.96 980.58 376.59 986 377Z" fill="#c2c2c2" fill-rule="evenodd"/>
      <path d="M1040 383C1044.73 382.79 1044.73 382.79 1047.19 384.69C1050.15 388.47 1051.11 391.37 1051 396.13C1051 400 1051 400 1053 403C1053.5 405.28 1053.93 407.57 1054.31 409.88C1055.65 417.61 1057.43 425.21 1059.37 432.82C1060.49 437.32 1061.28 441.32 1061 446C1059.59 446.11 1058.17 446.19 1056.75 446.25C1055.96 446.3 1055.17 446.34 1054.36 446.39C1052 446 1052 446 1049.87 444.63C1047.03 440.63 1046.31 436.38 1045.31 431.63C1045.1 430.65 1044.88 429.67 1044.66 428.66C1043.23 421.88 1042.37 415.31 1042.14 408.39C1042 406 1042 406 1041 405C1040.84 403.37 1040.75 401.73 1040.68 400.09C1040.64 399.1 1040.6 398.11 1040.56 397.09C1040.52 396.05 1040.48 395.01 1040.44 393.94C1040.39 392.89 1040.35 391.85 1040.31 390.77C1040.2 388.18 1040.1 385.59 1040 383Z" fill="#c2c2c2" fill-rule="evenodd"/>
      <path d="M949 391C949 392.65 949 394.3 949 396C946.92 396.98 944.84 397.96 942.75 398.94C941.59 399.48 940.43 400.03 939.23 400.59C935.19 402.35 932.14 403.14 927.75 403.06C927.13 403.05 927.13 403.05 924 403C924.75 395.25 924.75 395.25 927 393C929.38 392.53 931.78 392.17 934.19 391.88C935.48 391.71 936.77 391.54 938.11 391.37C941.77 391.02 945.33 390.93 949 391Z" fill="#c2c2c2" fill-rule="evenodd"/>
      <path d="M793 420C798.36 419.56 798.36 419.56 801 420C802.88 422.44 802.88 422.44 804 425C804.66 425.33 805.32 425.66 806 426C806.34 429.05 806.19 430.67 804.69 433.38C800.88 435.68 797.89 435.13 793.56 434.75C790.42 433.83 789.57 432.83 788 430C787.81 427.25 787.81 427.25 788 425C789.32 424.67 790.64 424.34 792 424C792.33 422.68 792.66 421.36 793 420Z" fill="#c2c2c2" fill-rule="evenodd"/>
      <path d="M760 444C762.81 445.72 762.81 445.72 765.44 448.06C765.9 448.47 765.9 448.47 768.27 450.56C769.17 451.36 770.07 452.17 771 453C771.82 453.64 772.64 454.28 773.48 454.95C778.9 459.23 778.9 459.23 779.44 463.38C779.29 464.24 779.15 465.11 779 466C779.33 466.33 779.66 466.66 780 467C780.37 471.94 780.14 474.23 777 478C776.31 480.75 776.31 480.75 776 483C774.87 482.98 773.73 482.96 772.56 482.94C769 483 769 483 768 484C768.99 484.17 768.99 484.17 774 485C773.67 487.64 773.34 490.28 773 493C770.69 493.66 768.38 494.32 766 495C765.67 496.32 765.34 497.64 765 499C762.69 499 760.38 499 758 499C757.92 498.38 757.84 497.76 757.75 497.13C757.5 496.42 757.26 495.72 757 495C756.7 494.86 756.7 494.86 755.19 494.14C752.48 492.73 751.13 491.08 749.25 488.69C748.64 487.93 748.02 487.17 747.39 486.39C745.78 483.63 745.47 482.14 746 479C746.99 478.34 747.98 477.68 749 477C746.36 477 743.72 477 741 477C741 475.35 741 473.7 741 472C739.68 471.34 738.36 470.68 737 470C736.88 464.25 736.88 464.25 738 462C740.56 461.38 740.56 461.38 743 461C742.34 460.67 741.68 460.34 741 460C741 458.35 741 456.7 741 455C742.65 455 744.3 455 746 455C746 455.66 746 456.32 746 457C746.99 456.34 747.98 455.68 749 455C748.01 454.67 747.02 454.34 746 454C745.69 451.75 745.69 451.75 746 449C750.62 444.63 753.64 443.46 760 444Z" fill="#c2c2c2" fill-rule="evenodd"/>
      <path d="M927 447C929.31 447 931.62 447 934 447C934.21 447.87 934.41 448.73 934.63 449.63C935.94 452.85 936.67 453.83 939.13 456.06C941.96 458.67 941.96 458.67 942.38 461.88C942.25 462.58 942.13 463.28 942 464C938.53 465.16 935.64 465.07 932 465C929.67 461.37 929.84 458.23 930 454C929.01 453.67 928.02 453.34 927 453C927 451.02 927 449.04 927 447Z" fill="#c2c2c2" fill-rule="evenodd"/>
      <path d="M813 493C815.7 494.5 815.7 494.5 818.25 496.44C819.1 497.08 819.95 497.71 820.83 498.37C821.55 498.91 822.26 499.45 823 500C823.66 500.33 824.32 500.66 825 501C825 502.65 825 504.3 825 506C822.03 505.67 819.06 505.34 816 505C816.02 505.97 816.04 506.94 816.06 507.94C816 511 816 511 815 512C813.48 511.91 811.95 511.76 810.44 511.56C809.61 511.46 808.79 511.36 807.93 511.25C807.3 511.17 806.66 511.09 806 511C806 509.35 806 507.7 806 506C804.35 505.67 802.7 505.34 801 505C801.92 497 801.92 497 804 494C807.32 492.89 809.52 492.69 813 493Z" fill="#c2c2c2" fill-rule="evenodd"/>
      <path d="M731 516C733.38 515.88 733.38 515.88 736 516C738 518 738 518 738.13 520.63C738.08 521.41 738.04 522.19 738 523C735.69 523.33 733.38 523.66 731 524C731 521.36 731 518.72 731 516Z" fill="#c2c2c2" fill-rule="evenodd"/>
      <path d="M1016 519C1018.99 520.3 1021.59 521.79 1024 524C1024.5 526.81 1024.5 526.81 1024 529C1017.83 529.4 1012.82 527.97 1007 526C1006.81 523.63 1006.81 523.63 1007 521C1010.59 518.61 1011.76 518.44 1016 519Z" fill="#c2c2c2" fill-rule="evenodd"/>
      <path d="M678 250C681.81 255.71 679.03 261.07 681.25 267C682.49 270.32 685.51 272.68 686.75 276C687.33 277.55 688.68 280.38 687.75 282C684.56 287.58 677.6 280.45 674 280C667.99 279.25 657.11 283.67 652 280.75C650 279.61 651.6 276.7 650.75 275C646.14 265.78 647.56 260.04 658 267" fill="none" stroke="#111111" stroke-width="4.75" stroke-linecap="round" stroke-linejoin="round"/>
      <path d="M803 261C801.59 266.64 798.91 273.8 793 276.75C788.99 278.76 786.56 278.44 783 282" fill="none" stroke="#111111" stroke-width="4.75" stroke-linecap="round" stroke-linejoin="round"/>
      <path d="M744 270C745.41 273.39 747.39 275.39 750 278" fill="none" stroke="#111111" stroke-width="6" stroke-linecap="round" stroke-linejoin="round"/>
      <path d="M820 270C818.56 274.33 816.2 276.11 814.25 280C812.77 282.96 813.28 286.94 811.75 290C807.95 297.6 790.76 317.87 783 321.75C780.44 323.03 773.87 321.36 771 321C765.23 320.28 774.13 308.84 764 308" fill="none" stroke="#111111" stroke-width="6" stroke-linecap="round" stroke-linejoin="round"/>
      <path d="M776 271C767.8 274.42 762 281.89 762 291" fill="none" stroke="#111111" stroke-width="6" stroke-linecap="round" stroke-linejoin="round"/>
      <path d="M776 271C776.56 272.69 776.47 275.44 777.25 277C778.43 279.36 781.83 280.54 782.75 283C784.42 287.44 764.13 290.18 762 290" fill="none" stroke="#111111" stroke-width="6" stroke-linecap="round" stroke-linejoin="round"/>
      <path d="M750 278C747.2 284.72 742.21 292.79 737 298" fill="none" stroke="#111111" stroke-width="5.75" stroke-linecap="round" stroke-linejoin="round"/>
      <path d="M814 279C805.75 283.81 797.16 284.98 807 294" fill="none" stroke="#111111" stroke-width="6" stroke-linecap="round" stroke-linejoin="round"/>
      <path d="M783 285C796.6 294.07 772.34 303.66 768 308" fill="none" stroke="#111111" stroke-width="5.75" stroke-linecap="round" stroke-linejoin="round"/>
      <path d="M696 287C694.81 290.57 678.98 301.83 693 303" fill="none" stroke="#111111" stroke-width="5.75" stroke-linecap="round" stroke-linejoin="round"/>
      <path d="M762 291C757.55 297.67 753.4 296.97 749 302C746.87 304.43 746.25 307.37 744.75 310C741.26 316.11 734.2 321.69 730.25 328C729.25 329.61 728.35 332.84 727 334C724.76 335.92 718.11 333.23 716 332" fill="none" stroke="#111111" stroke-width="5.75" stroke-linecap="round" stroke-linejoin="round"/>
      <path d="M695 292C704.59 292 711.65 287.92 720 283.75C721.31 283.1 723.48 281.38 725 282.25C727.03 283.41 727.45 290.79 728 293" fill="none" stroke="#111111" stroke-width="4" stroke-linecap="round" stroke-linejoin="round"/>
      <path d="M728 293C731.1 294.81 734.11 295.83 737 298" fill="none" stroke="#111111" stroke-width="4" stroke-linecap="round" stroke-linejoin="round"/>
      <path d="M721 296C711.88 298.28 701.68 300.11 693 303" fill="none" stroke="#111111" stroke-width="4" stroke-linecap="round" stroke-linejoin="round"/>
      <path d="M721 296C721 300.82 718.35 303.8 716.25 308C715.03 310.43 711.08 323.77 706.25 317C704.61 314.71 704.22 311.94 702 310C697.85 306.37 696.07 309.11 692 303" fill="none" stroke="#111111" stroke-width="4.75" stroke-linecap="round" stroke-linejoin="round"/>
      <path d="M759 297C760.05 301.2 761.05 304.78 764 308" fill="none" stroke="#111111" stroke-width="6" stroke-linecap="round" stroke-linejoin="round"/>
      <path d="M737 298C731.88 310.29 721.12 319.71 716 332" fill="none" stroke="#111111" stroke-width="5.75" stroke-linecap="round" stroke-linejoin="round"/>
      <path d="M1023 300C1003.24 280.24 971.84 277.59 956.75 304C955.07 306.94 949.98 306.54 948.25 310C945.55 315.4 951.21 331.63 953 337" fill="none" stroke="#111111" stroke-width="6" stroke-linecap="round" stroke-linejoin="round"/>
      <path d="M1023 300C1048.53 306.38 1046.37 336.21 1035.25 354C1031.33 360.28 1023.03 375.91 1014 370.75C1013.16 370.27 1015 361.08 1015 359" fill="none" stroke="#111111" stroke-width="6" stroke-linecap="round" stroke-linejoin="round"/>
      <path d="M1023 300C1023 309.62 1031.07 319.78 1028 329" fill="none" stroke="#111111" stroke-width="6" stroke-linecap="round" stroke-linejoin="round"/>
      <path d="M957 305C958.88 307.05 963.02 316.46 959 318.75C956.79 320.01 951.53 319 949 319" fill="none" stroke="#111111" stroke-width="6" stroke-linecap="round" stroke-linejoin="round"/>
      <path d="M694 308C693.26 310.23 690.7 313.64 691 316C691.72 321.75 703.3 318.8 706 317" fill="none" stroke="#111111" stroke-width="4" stroke-linecap="round" stroke-linejoin="round"/>
      <path d="M764 308C759.61 312.02 754.89 313 749 313" fill="none" stroke="#111111" stroke-width="6" stroke-linecap="round" stroke-linejoin="round"/>
      <path d="M749 313C747.56 317.32 737.95 335.78 734 337.75C731.72 338.89 728.63 336.09 727 335" fill="none" stroke="#111111" stroke-width="4.75" stroke-linecap="round" stroke-linejoin="round"/>
      <path d="M960 319C961.98 323.76 964 328.73 964 334" fill="none" stroke="#111111" stroke-width="6" stroke-linecap="round" stroke-linejoin="round"/>
      <path d="M769 321C760.23 329.77 748.95 347.97 734 338" fill="none" stroke="#111111" stroke-width="6" stroke-linecap="round" stroke-linejoin="round"/>
      <path d="M1009 327C998.86 327 979.17 328.55 971 334" fill="none" stroke="#111111" stroke-width="6" stroke-linecap="round" stroke-linejoin="round"/>
      <path d="M1009 327C1015.76 327 1021.54 328.46 1028 329" fill="none" stroke="#111111" stroke-width="6" stroke-linecap="round" stroke-linejoin="round"/>
      <path d="M1028 329C1031.67 340 1021.16 351.78 1015 360" fill="none" stroke="#111111" stroke-width="6" stroke-linecap="round" stroke-linejoin="round"/>
      <path d="M716 332C711.52 332 707.42 333.63 703 334" fill="none" stroke="#111111" stroke-width="6" stroke-linecap="round" stroke-linejoin="round"/>
      <path d="M703 334C702.66 332.98 701.97 329.81 701 329.25C699.51 328.4 672.81 329.69 672.25 330.25C670.26 332.24 669.19 340.14 668 343" fill="none" stroke="#111111" stroke-width="4" stroke-linecap="round" stroke-linejoin="round"/>
      <path d="M964 334C960.22 336.52 957.61 337 953 337" fill="none" stroke="#111111" stroke-width="6" stroke-linecap="round" stroke-linejoin="round"/>
      <path d="M953 337C950.05 341.43 904.09 368.48 898 370" fill="none" stroke="#111111" stroke-width="6" stroke-linecap="round" stroke-linejoin="round"/>
      <path d="M671 338C677.84 336.29 692.31 334.21 698 338" fill="none" stroke="#111111" stroke-width="4" stroke-linecap="round" stroke-linejoin="round"/>
      <path d="M698 338C697.1 348.81 689.06 347.99 681 349C678.32 349.34 674.8 351.15 672 349.75C669.35 348.42 669.65 344.58 667 343.25C662.5 341 655.71 342.57 651 341" fill="none" stroke="#111111" stroke-width="6" stroke-linecap="round" stroke-linejoin="round"/>
      <path d="M1019 351C1017.96 350.31 1017.45 349 1016 349C1013.55 349 997.12 350.99 998.25 354C1001.34 362.25 1009.99 356.08 1015 359" fill="none" stroke="#111111" stroke-width="6" stroke-linecap="round" stroke-linejoin="round"/>
      <path d="M998 352C989.83 352 980.64 353.02 974 358" fill="none" stroke="#111111" stroke-width="6" stroke-linecap="round" stroke-linejoin="round"/>
      <path d="M960 353C964.99 351.75 966.55 352.64 967 358" fill="none" stroke="#111111" stroke-width="4" stroke-linecap="round" stroke-linejoin="round"/>
      <path d="M967 358C962.26 359.97 956.57 360.92 953 365C949.85 368.6 948.58 374.42 945 378C941.56 381.44 935.01 381.32 931 384" fill="none" stroke="#111111" stroke-width="6" stroke-linecap="round" stroke-linejoin="round"/>
      <path d="M974 364C991.79 364 974 377.87 974 364Z" fill="none" stroke="#111111" stroke-width="4" stroke-linecap="round" stroke-linejoin="round"/>
      <path d="M903 369C905.89 371.89 908.45 374.28 910 378" fill="none" stroke="#111111" stroke-width="6" stroke-linecap="round" stroke-linejoin="round"/>
      <path d="M898 370C894.19 366.19 891.73 366.52 887 364.75C875.7 360.51 863.44 361.36 855 371C852.81 373.5 849.88 385.25 849 385.75C846.96 386.92 843.3 386.39 841 387.25C826.87 392.55 806.16 394.89 794 403" fill="none" stroke="#111111" stroke-width="6" stroke-linecap="round" stroke-linejoin="round"/>
      <path d="M898 370C895.26 376.57 893.35 378.39 886 379" fill="none" stroke="#111111" stroke-width="6" stroke-linecap="round" stroke-linejoin="round"/>
      <path d="M974 370C972.05 375.86 969.17 385.67 963 388.75C960.28 390.11 955.07 389.23 952 390" fill="none" stroke="#111111" stroke-width="6" stroke-linecap="round" stroke-linejoin="round"/>
      <path d="M1013 371C1004 371.75 999.79 375.82 990 375" fill="none" stroke="#111111" stroke-width="6" stroke-linecap="round" stroke-linejoin="round"/>
      <path d="M1022 372C1025.9 377.36 1031.23 373.23 1037 379" fill="none" stroke="#111111" stroke-width="6" stroke-linecap="round" stroke-linejoin="round"/>
      <path d="M982 374C978.34 375.53 976.77 376.26 973 375" fill="none" stroke="#111111" stroke-width="6" stroke-linecap="round" stroke-linejoin="round"/>
      <path d="M989 376C985.44 382.11 974.9 388.3 968 386" fill="none" stroke="#111111" stroke-width="4.75" stroke-linecap="round" stroke-linejoin="round"/>
      <path d="M886 379C870.73 368.82 864.14 385.42 874 389" fill="none" stroke="#111111" stroke-width="6" stroke-linecap="round" stroke-linejoin="round"/>
      <path d="M886 379C884.4 385.4 880.77 389 874 389" fill="none" stroke="#111111" stroke-width="6" stroke-linecap="round" stroke-linejoin="round"/>
      <path d="M945 379C945 384.99 939.33 391.79 933 391C929 390.5 933.03 384 929 384C923.21 384 923.71 388.63 920 390.75C914.01 394.17 906.56 393.14 901 398C898.6 400.1 890 406.75 890 410C890 412.98 892.63 416.03 893 419C893.35 421.82 894.84 441.96 893 442.75C887.88 444.95 877.34 434.92 874 432C869.67 428.21 864.46 429.3 860 426.75C858.69 426 858.55 423.27 857.75 422C852.21 413.14 848.15 406.06 838 402.25C835.05 401.15 830.67 401.92 828 403.25C815.83 409.34 825.28 417.72 820 423C817.97 425.03 812.68 424 810 424" fill="none" stroke="#111111" stroke-width="6" stroke-linecap="round" stroke-linejoin="round"/>
      <path d="M1037 379C1044.67 381.56 1046.61 384.31 1052 387" fill="none" stroke="#111111" stroke-width="6" stroke-linecap="round" stroke-linejoin="round"/>
      <path d="M1037 379C1037 382 1037 385 1037 388" fill="none" stroke="#111111" stroke-width="6" stroke-linecap="round" stroke-linejoin="round"/>
      <path d="M945 384C947.22 386.22 949.52 388.14 952 390" fill="none" stroke="#111111" stroke-width="6" stroke-linecap="round" stroke-linejoin="round"/>
      <path d="M850 386C848.14 393.45 851.4 400.79 849 408" fill="none" stroke="#111111" stroke-width="6" stroke-linecap="round" stroke-linejoin="round"/>
      <path d="M1054 386C1050.07 391.9 1055.83 399.26 1047 400" fill="none" stroke="#111111" stroke-width="6" stroke-linecap="round" stroke-linejoin="round"/>
      <path d="M1037 388C1031.19 389.94 1030.42 395.04 1025 397.75C1018.42 401.04 1010.11 400.11 1003 401C999.26 401.47 995.57 404.41 992 405.75C988.71 406.98 984.44 405.51 981 406C977.28 406.53 971.32 410.79 968 413" fill="none" stroke="#111111" stroke-width="4.75" stroke-linecap="round" stroke-linejoin="round"/>
      <path d="M1037 388C1039.51 395.53 1036.53 398.51 1029 396" fill="none" stroke="#111111" stroke-width="6" stroke-linecap="round" stroke-linejoin="round"/>
      <path d="M874 389C874 399.9 877.93 406.99 890 408" fill="none" stroke="#111111" stroke-width="6" stroke-linecap="round" stroke-linejoin="round"/>
      <path d="M952 390C947.99 396.88 942.29 397.71 937 403" fill="none" stroke="#111111" stroke-width="5.75" stroke-linecap="round" stroke-linejoin="round"/>
      <path d="M921 391C924.71 393.17 927.3 392.47 931 390" fill="none" stroke="#111111" stroke-width="4.75" stroke-linecap="round" stroke-linejoin="round"/>
      <path d="M922 393C922 397.43 920.72 402.16 922 406" fill="none" stroke="#111111" stroke-width="6" stroke-linecap="round" stroke-linejoin="round"/>
      <path d="M1038 397C1038 400.17 1039 402.83 1039 406" fill="none" stroke="#111111" stroke-width="6" stroke-linecap="round" stroke-linejoin="round"/>
      <path d="M1053 399C1054.58 403.75 1063.77 444.28 1062.75 447C1061.75 449.66 1057.97 448.49 1056 447.75C1050.3 445.61 1046.78 443.04 1043 438" fill="none" stroke="#111111" stroke-width="6" stroke-linecap="round" stroke-linejoin="round"/>
      <path d="M794 403C779.13 403 765.29 409.21 751 411C748.43 411.32 745.97 409 743 409C734.09 409 725.68 410.92 717 412C713.1 412.49 707.55 411.47 704 413.25C700.69 414.91 697.61 419.39 695 422C692.56 424.44 688.46 427.3 688 431C687.1 438.19 689.44 444.29 690 451" fill="none" stroke="#111111" stroke-width="6" stroke-linecap="round" stroke-linejoin="round"/>
      <path d="M794 403C796.66 406.98 795.34 411.02 798 415" fill="none" stroke="#111111" stroke-width="4.75" stroke-linecap="round" stroke-linejoin="round"/>
      <path d="M937 403C934.08 403 928.62 401.94 926 403.25C919.2 406.65 917.09 414.13 921 420" fill="none" stroke="#111111" stroke-width="6" stroke-linecap="round" stroke-linejoin="round"/>
      <path d="M1039 406C1039 411.3 1045.66 434.34 1043 437C1041.5 438.5 1033.15 435.98 1031 434.75C1029.3 433.78 1030.1 431.3 1028 430.25C1019.64 426.07 1010.89 420 1001 420" fill="none" stroke="#111111" stroke-width="6" stroke-linecap="round" stroke-linejoin="round"/>
      <path d="M922 408C927.65 411.3 939.17 425.66 941 433" fill="none" stroke="#111111" stroke-width="6" stroke-linecap="round" stroke-linejoin="round"/>
      <path d="M938 408C944.83 408 951.36 408.17 958 409C961.79 409.47 964.14 412.68 968 413" fill="none" stroke="#111111" stroke-width="6" stroke-linecap="round" stroke-linejoin="round"/>
      <path d="M938 408C935.18 416.45 929.59 420 921 420" fill="none" stroke="#111111" stroke-width="6" stroke-linecap="round" stroke-linejoin="round"/>
      <path d="M764 410C768.76 418.16 772.79 423 783 423" fill="none" stroke="#111111" stroke-width="6" stroke-linecap="round" stroke-linejoin="round"/>
      <path d="M748 411C742.74 423.62 746.54 432.39 729 428" fill="none" stroke="#111111" stroke-width="6" stroke-linecap="round" stroke-linejoin="round"/>
      <path d="M968 413C971.42 421.21 973.77 416.78 980 416C984.03 415.5 987.44 416.81 991 418" fill="none" stroke="#111111" stroke-width="5.75" stroke-linecap="round" stroke-linejoin="round"/>
      <path d="M798 415C805.87 415 805.24 418.81 810 424" fill="none" stroke="#111111" stroke-width="6" stroke-linecap="round" stroke-linejoin="round"/>
      <path d="M798 415C792.47 417.3 787.94 419.29 783 423" fill="none" stroke="#111111" stroke-width="6" stroke-linecap="round" stroke-linejoin="round"/>
      <path d="M991 418C995.17 418 997.58 417.72 1001 420" fill="none" stroke="#111111" stroke-width="5.75" stroke-linecap="round" stroke-linejoin="round"/>
      <path d="M991 418C990.38 419.85 990.68 423.37 989.75 425C985.97 431.61 976.05 422.52 974 419" fill="none" stroke="#111111" stroke-width="6" stroke-linecap="round" stroke-linejoin="round"/>
      <path d="M921 420C918.46 427.62 919.23 436.49 926 441" fill="none" stroke="#111111" stroke-width="6" stroke-linecap="round" stroke-linejoin="round"/>
      <path d="M1001 420C998.6 427.19 998.28 427.76 990 425" fill="none" stroke="#111111" stroke-width="4.75" stroke-linecap="round" stroke-linejoin="round"/>
      <path d="M695 421C692.67 418.67 689.96 414.73 687 413.25C678.67 409.09 666.66 421.75 661 426" fill="none" stroke="#111111" stroke-width="6" stroke-linecap="round" stroke-linejoin="round"/>
      <path d="M695 421C692.72 423.28 690.72 425.43 689 428" fill="none" stroke="#111111" stroke-width="6" stroke-linecap="round" stroke-linejoin="round"/>
      <path d="M697 421C699.96 425.45 706.73 427.56 712 428" fill="none" stroke="#111111" stroke-width="6" stroke-linecap="round" stroke-linejoin="round"/>
      <path d="M783 423C784.47 427.41 785.35 430.81 789 434C790.79 435.56 793.73 435.29 794.75 438C796.34 442.25 785.56 459.81 782 461" fill="none" stroke="#111111" stroke-width="6" stroke-linecap="round" stroke-linejoin="round"/>
      <path d="M1010 423C1007.98 429.07 1005.93 429.95 1000 426" fill="none" stroke="#111111" stroke-width="4.75" stroke-linecap="round" stroke-linejoin="round"/>
      <path d="M810 424C805.6 430.6 801.3 433.8 795 438" fill="none" stroke="#111111" stroke-width="6" stroke-linecap="round" stroke-linejoin="round"/>
      <path d="M820 424C825.4 426.25 827.56 427.25 829 433" fill="none" stroke="#111111" stroke-width="6" stroke-linecap="round" stroke-linejoin="round"/>
      <path d="M661 426C663.56 436.23 660.46 446.15 658 456" fill="none" stroke="#111111" stroke-width="6" stroke-linecap="round" stroke-linejoin="round"/>
      <path d="M859 427C853.44 432.56 835.85 436.57 829 432" fill="none" stroke="#111111" stroke-width="5.75" stroke-linecap="round" stroke-linejoin="round"/>
      <path d="M986 427C988.31 436.23 998.46 438.41 1002.75 447C1007.45 456.39 996.77 465.04 988 461.75C973.81 456.43 967.42 445.01 955 437.25C950.7 434.57 945.52 433.88 941 432" fill="none" stroke="#111111" stroke-width="6" stroke-linecap="round" stroke-linejoin="round"/>
      <path d="M712 428C717.82 426.06 723.05 428 729 428" fill="none" stroke="#111111" stroke-width="6" stroke-linecap="round" stroke-linejoin="round"/>
      <path d="M712 428C713.37 432.12 714.82 436.26 717 440" fill="none" stroke="#111111" stroke-width="6" stroke-linecap="round" stroke-linejoin="round"/>
      <path d="M729 428C726.6 435.19 725.19 439.32 717 440" fill="none" stroke="#111111" stroke-width="6" stroke-linecap="round" stroke-linejoin="round"/>
      <path d="M743 429C749.41 431.67 752.31 433.23 754 440" fill="none" stroke="#111111" stroke-width="6" stroke-linecap="round" stroke-linejoin="round"/>
      <path d="M1009 429C1013.33 433.33 1020.09 435.98 1023 429" fill="none" stroke="#111111" stroke-width="4.75" stroke-linecap="round" stroke-linejoin="round"/>
      <path d="M829 433C827.43 435.35 824.7 436.68 823.25 439C820.26 443.79 822 449.49 819.75 454C816.64 460.22 801.11 479.63 804.25 488C805.29 490.77 810.73 490.83 813 492.25C815.15 493.6 824.4 501.11 826.75 497C827.97 494.86 827.37 491.86 829 490C831.45 487.2 835.28 485.72 838 483" fill="none" stroke="#111111" stroke-width="6" stroke-linecap="round" stroke-linejoin="round"/>
      <path d="M941 433C936.73 439.41 922.85 438.83 924 448C924.39 451.13 926.62 453.96 927 457C927.47 460.76 927.89 464.44 931 466" fill="none" stroke="#111111" stroke-width="6" stroke-linecap="round" stroke-linejoin="round"/>
      <path d="M1021 434C1021.34 437.76 1023.37 437.7 1027 438" fill="none" stroke="#111111" stroke-width="6" stroke-linecap="round" stroke-linejoin="round"/>
      <path d="M1030 435C1026.72 439.92 1026.61 443.4 1033 445" fill="none" stroke="#111111" stroke-width="6" stroke-linecap="round" stroke-linejoin="round"/>
      <path d="M1039 438C1036.64 441.53 1035.6 443.8 1032 445" fill="none" stroke="#111111" stroke-width="6" stroke-linecap="round" stroke-linejoin="round"/>
      <path d="M717 440C716.42 447.01 711.64 455.89 706 460" fill="none" stroke="#111111" stroke-width="5.75" stroke-linecap="round" stroke-linejoin="round"/>
      <path d="M754 440C758.47 441.49 782 458.71 782 463C782 464.77 779.29 465.46 778 466" fill="none" stroke="#111111" stroke-width="5.75" stroke-linecap="round" stroke-linejoin="round"/>
      <path d="M754 440C749.8 443.85 745.24 446.62 743 452" fill="none" stroke="#111111" stroke-width="6" stroke-linecap="round" stroke-linejoin="round"/>
      <path d="M928 441C932.65 447.98 936.77 453.77 943 460" fill="none" stroke="#111111" stroke-width="4.75" stroke-linecap="round" stroke-linejoin="round"/>
      <path d="M894 443C894 454.64 892.92 447.57 889.25 454C888.19 455.85 888.27 459.87 888 462C887.25 468.02 876.62 467 872 467" fill="none" stroke="#111111" stroke-width="6" stroke-linecap="round" stroke-linejoin="round"/>
      <path d="M1033 445C1035.78 451.67 1072.17 484 1079 484C1080.25 484 1082.72 482.43 1084 482" fill="none" stroke="#111111" stroke-width="5.75" stroke-linecap="round" stroke-linejoin="round"/>
      <path d="M690 451C709.25 457.42 692.8 458.89 690.25 464C690.02 464.45 692.71 483.06 693.25 484C694.22 485.7 696.76 486.03 697.75 488C700.66 493.82 698 502.01 700.25 508C702.05 512.79 702.45 518.2 704.25 523C708.49 534.29 717.05 548.84 713 561" fill="none" stroke="#111111" stroke-width="6" stroke-linecap="round" stroke-linejoin="round"/>
      <path d="M690 451C690 455.2 689.72 459.17 691 463" fill="none" stroke="#111111" stroke-width="6" stroke-linecap="round" stroke-linejoin="round"/>
      <path d="M895 451C899.26 457.39 895.55 460.18 889 458" fill="none" stroke="#111111" stroke-width="6" stroke-linecap="round" stroke-linejoin="round"/>
      <path d="M743 452C739.81 454.13 740.25 455 738.75 458C734.44 466.63 730.96 473.99 743 478" fill="none" stroke="#111111" stroke-width="6" stroke-linecap="round" stroke-linejoin="round"/>
      <path d="M820 455C822.83 456.18 830 466.04 826 467.75C823.8 468.69 817.06 464.86 815 464" fill="none" stroke="#111111" stroke-width="6" stroke-linecap="round" stroke-linejoin="round"/>
      <path d="M658 456C656.54 456.61 653.11 457.5 652.25 459C650.6 461.89 649.2 473.4 654 474C666.12 475.52 665.1 461.32 658 456Z" fill="none" stroke="#111111" stroke-width="6" stroke-linecap="round" stroke-linejoin="round"/>
      <path d="M897 459C898.06 461.12 898.08 464.24 899 467" fill="none" stroke="#111111" stroke-width="6" stroke-linecap="round" stroke-linejoin="round"/>
      <path d="M706 460C701.17 474.5 704.23 467.92 692 472" fill="none" stroke="#111111" stroke-width="6" stroke-linecap="round" stroke-linejoin="round"/>
      <path d="M943 460C950.16 460 950.73 466.35 954.25 470.75C957.12 474.34 962.16 471.47 965 480" fill="none" stroke="#111111" stroke-width="6" stroke-linecap="round" stroke-linejoin="round"/>
      <path d="M943 460C938.91 464.09 935.97 464.34 931 466" fill="none" stroke="#111111" stroke-width="4" stroke-linecap="round" stroke-linejoin="round"/>
      <path d="M782 465C779.66 472.02 778.59 478.31 775.25 485C774.11 487.29 775 490.49 773.75 493C772.54 495.42 769.46 496.58 768.25 499C767.63 500.23 767.93 502.26 766 502.5C756.12 503.73 745.86 484.62 742 478" fill="none" stroke="#111111" stroke-width="6" stroke-linecap="round" stroke-linejoin="round"/>
      <path d="M887 466C890.33 470.58 894.96 469.71 899 466" fill="none" stroke="#111111" stroke-width="6" stroke-linecap="round" stroke-linejoin="round"/>
      <path d="M931 466C931 471.21 934.31 486.31 938 490C940.54 492.54 946.06 492.62 947.75 496C949.84 500.17 946.58 502.7 943 503" fill="none" stroke="#111111" stroke-width="6" stroke-linecap="round" stroke-linejoin="round"/>
      <path d="M872 467C864.22 464.41 850.09 467.42 844 473" fill="none" stroke="#111111" stroke-width="4.75" stroke-linecap="round" stroke-linejoin="round"/>
      <path d="M872 467C872 475.31 868.63 480.43 868 488" fill="none" stroke="#111111" stroke-width="6" stroke-linecap="round" stroke-linejoin="round"/>
      <path d="M899 467C905.04 471.03 906.33 480.72 910.25 487C913.51 492.21 917.78 495.78 922 500C923.69 501.69 923.81 504.98 925.25 507C929.41 512.82 941.31 508.07 943 503" fill="none" stroke="#111111" stroke-width="6" stroke-linecap="round" stroke-linejoin="round"/>
      <path d="M827 468C830.28 472.92 834.12 478.76 838 483" fill="none" stroke="#111111" stroke-width="6" stroke-linecap="round" stroke-linejoin="round"/>
      <path d="M888 469C888 485.8 887.57 485.49 872 479" fill="none" stroke="#111111" stroke-width="6" stroke-linecap="round" stroke-linejoin="round"/>
      <path d="M844 473C839.83 473 837.42 472.72 834 475" fill="none" stroke="#111111" stroke-width="6" stroke-linecap="round" stroke-linejoin="round"/>
      <path d="M844 473C842.61 477.18 843.14 479.57 840 483" fill="none" stroke="#111111" stroke-width="6" stroke-linecap="round" stroke-linejoin="round"/>
      <path d="M660 474C662.74 478.11 661.44 482.32 663 487" fill="none" stroke="#111111" stroke-width="6" stroke-linecap="round" stroke-linejoin="round"/>
      <path d="M735 474C728.62 476.32 727.23 505.94 729 513" fill="none" stroke="#111111" stroke-width="6" stroke-linecap="round" stroke-linejoin="round"/>
      <path d="M693 478C696 478 699 478 702 478" fill="none" stroke="#111111" stroke-width="4" stroke-linecap="round" stroke-linejoin="round"/>
      <path d="M702 478C702 482.9 701.56 484.44 698 488" fill="none" stroke="#111111" stroke-width="6" stroke-linecap="round" stroke-linejoin="round"/>
      <path d="M965 480C971.85 482.28 981.25 490.25 970 494" fill="none" stroke="#111111" stroke-width="6" stroke-linecap="round" stroke-linejoin="round"/>
      <path d="M840 483C842.09 489.28 839.26 497.03 842.25 503C855.1 528.7 863.81 498.06 868 488" fill="none" stroke="#111111" stroke-width="6" stroke-linecap="round" stroke-linejoin="round"/>
      <path d="M663 487C659.56 489.01 655.04 490.66 651 491" fill="none" stroke="#111111" stroke-width="6" stroke-linecap="round" stroke-linejoin="round"/>
      <path d="M663 487C677.83 500.59 660.02 497.47 656.25 505C654.87 507.76 657.74 508.97 658.75 511C661.83 517.15 661.11 521.26 670 522" fill="none" stroke="#111111" stroke-width="6" stroke-linecap="round" stroke-linejoin="round"/>
      <path d="M868 488C870.97 488.99 874 489.25 877 490" fill="none" stroke="#111111" stroke-width="4" stroke-linecap="round" stroke-linejoin="round"/>
      <path d="M805 490C801.7 492.2 795.97 502.43 798.25 507C800.11 510.72 810.16 513 814 513C818.14 513 814.21 506.45 817 505.25C821.51 503.32 830.35 511.05 826 498" fill="none" stroke="#111111" stroke-width="6" stroke-linecap="round" stroke-linejoin="round"/>
      <path d="M976 490C981.28 490 986.26 494.22 988 499" fill="none" stroke="#111111" stroke-width="6" stroke-linecap="round" stroke-linejoin="round"/>
      <path d="M938 491C933.55 504.34 932.7 496.43 922 500" fill="none" stroke="#111111" stroke-width="6" stroke-linecap="round" stroke-linejoin="round"/>
      <path d="M988 499C992.77 500.19 997.43 502.3 999 507" fill="none" stroke="#111111" stroke-width="6" stroke-linecap="round" stroke-linejoin="round"/>
      <path d="M988 499C985.77 501.97 984.54 503.12 981 504" fill="none" stroke="#111111" stroke-width="4" stroke-linecap="round" stroke-linejoin="round"/>
      <path d="M767 503C767 505.8 767.12 511.6 765.75 514C765.4 514.62 741.31 521.5 740 520.75C738.49 519.89 738.13 517.29 737 516C735.1 513.83 731.57 513.07 729 512" fill="none" stroke="#111111" stroke-width="6" stroke-linecap="round" stroke-linejoin="round"/>
      <path d="M669 505C675.27 511.27 664.96 513.04 661 517" fill="none" stroke="#111111" stroke-width="6" stroke-linecap="round" stroke-linejoin="round"/>
      <path d="M669 505C665.91 506.8 659.02 509 657 509" fill="none" stroke="#111111" stroke-width="5.75" stroke-linecap="round" stroke-linejoin="round"/>
      <path d="M827 506C826.4 513.17 821.91 514.46 816 512" fill="none" stroke="#111111" stroke-width="6" stroke-linecap="round" stroke-linejoin="round"/>
      <path d="M999 507C1004.43 508.81 1008.46 507.84 1013 512" fill="none" stroke="#111111" stroke-width="6" stroke-linecap="round" stroke-linejoin="round"/>
      <path d="M999 507C996.76 509.98 995.43 511.86 992 513" fill="none" stroke="#111111" stroke-width="4" stroke-linecap="round" stroke-linejoin="round"/>
      <path d="M799 509C791.44 514.5 785.81 554.38 772 545.75C767.39 542.87 765.62 534.93 765 530C764.33 524.62 766.66 519.98 765 515" fill="none" stroke="#111111" stroke-width="6" stroke-linecap="round" stroke-linejoin="round"/>
      <path d="M671 512C672.94 515.89 673.37 518.32 670 522" fill="none" stroke="#111111" stroke-width="6" stroke-linecap="round" stroke-linejoin="round"/>
      <path d="M1013 512C1011.29 514.57 1008.68 517.13 1007.25 520C1006.65 521.19 1007.86 525.23 1006 525.5C1005.29 525.6 988.6 523.05 988 522.75C985.67 521.58 983.98 519 981 519C975.73 519 971.62 515.7 966 515C960.91 514.36 951.55 513.97 947 516.25C945.57 516.96 944.78 519 943 519C941.55 519 940.57 517.8 939 518C925.81 519.65 909.17 529.96 908 544" fill="none" stroke="#111111" stroke-width="4.75" stroke-linecap="round" stroke-linejoin="round"/>
      <path d="M729 513C727.81 516.56 728 520.09 728 524" fill="none" stroke="#111111" stroke-width="6" stroke-linecap="round" stroke-linejoin="round"/>
      <path d="M795 516C798.21 517.07 801.64 517.72 805 518" fill="none" stroke="#111111" stroke-width="2.75" stroke-linecap="round" stroke-linejoin="round"/>
      <path d="M739 521C735.24 524.45 732.63 524.54 728 523" fill="none" stroke="#111111" stroke-width="4.75" stroke-linecap="round" stroke-linejoin="round"/>
      <path d="M670 522C672.02 528.05 676.33 532.52 679.75 538C685.16 546.65 688.75 559.98 701 561" fill="none" stroke="#111111" stroke-width="6" stroke-linecap="round" stroke-linejoin="round"/>
      <path d="M728 524C722.29 529.24 714.11 527.92 708 532" fill="none" stroke="#111111" stroke-width="4" stroke-linecap="round" stroke-linejoin="round"/>
      <path d="M1007 526C1014.98 528.66 1019.3 533.52 1028 527" fill="none" stroke="#111111" stroke-width="6" stroke-linecap="round" stroke-linejoin="round"/>
      <path d="M721 535C717.17 535.32 714.1 535.93 711 538" fill="none" stroke="#111111" stroke-width="4" stroke-linecap="round" stroke-linejoin="round"/>
      <path d="M640 537C644.03 538.01 661.63 556.53 662 561" fill="none" stroke="#111111" stroke-width="6" stroke-linecap="round" stroke-linejoin="round"/>
      <path d="M661 541C667.91 548.54 674.07 557.86 684 562" fill="none" stroke="#111111" stroke-width="4" stroke-linecap="round" stroke-linejoin="round"/>
      <path d="M908 544C906.96 547.12 904.61 547.29 903.25 550C900.15 556.2 895.87 561.19 892 567" fill="none" stroke="#111111" stroke-width="6" stroke-linecap="round" stroke-linejoin="round"/>
      <path d="M662 561C667.1 562.28 676 570.22 676 576" fill="none" stroke="#111111" stroke-width="6" stroke-linecap="round" stroke-linejoin="round"/>
      <path d="M701 561C720.52 554.49 710.16 578.42 700 561Z" fill="none" stroke="#111111" stroke-width="4" stroke-linecap="round" stroke-linejoin="round"/>
      <path d="M892 567C888.64 567 885.11 566 882 566C880.02 566 879.24 568.28 877 568C874.87 567.73 875.13 565.27 873 565C860.4 563.42 848.28 563 836 563C834.38 563 833.61 561.2 832 561C827.42 560.43 823.94 561.27 820 562.75C818.67 563.25 812.62 560.67 810 561C799.62 562.3 788.6 564.95 779 569.75C777.3 570.6 774.83 569.77 773 570C770.37 570.33 768.98 573.25 767 573.5C758.14 574.61 749.35 574.96 746 585" fill="none" stroke="#111111" stroke-width="4" stroke-linecap="round" stroke-linejoin="round"/>
      <path d="M814 279C815.37 277.74 816.56 276.96 818 276" fill="none" stroke="#111111" stroke-width="6" stroke-linecap="round" stroke-linejoin="round"/>
      <path d="M783 282C784.83 280.78 786.35 279.65 788 278" fill="none" stroke="#111111" stroke-width="6" stroke-linecap="round" stroke-linejoin="round"/>
      <path d="M783 285C782.03 285.65 780.78 286.48 780 287" fill="none" stroke="#111111" stroke-width="6" stroke-linecap="round" stroke-linejoin="round"/>
      <path d="M728 293C725.6 294 723.42 295.19 721 296" fill="none" stroke="#111111" stroke-width="6" stroke-linecap="round" stroke-linejoin="round"/>
      <path d="M764 308C762.88 309.54 762.54 309.88 761 311" fill="none" stroke="#111111" stroke-width="6" stroke-linecap="round" stroke-linejoin="round"/>
      <path d="M768 308C769.33 306.01 770.01 305.33 772 304" fill="none" stroke="#111111" stroke-width="6" stroke-linecap="round" stroke-linejoin="round"/>
      <path d="M745 311C746.33 311.56 747.67 312.44 749 313" fill="none" stroke="#111111" stroke-width="4.75" stroke-linecap="round" stroke-linejoin="round"/>
      <path d="M1009 327C1009 328.33 1009 329.67 1009 331" fill="none" stroke="#111111" stroke-width="6" stroke-linecap="round" stroke-linejoin="round"/>
      <path d="M703 334C701.3 336.55 700.87 337.04 698 338" fill="none" stroke="#111111" stroke-width="6" stroke-linecap="round" stroke-linejoin="round"/>
      <path d="M964 334C966.94 334 969.22 333.93 972 333" fill="none" stroke="#111111" stroke-width="6" stroke-linecap="round" stroke-linejoin="round"/>
      <path d="M964 334C963.67 334.33 962.33 335.67 962 336" fill="none" stroke="#111111" stroke-width="6" stroke-linecap="round" stroke-linejoin="round"/>
      <path d="M967 358C969.94 358 972.22 357.93 975 357" fill="none" stroke="#111111" stroke-width="6" stroke-linecap="round" stroke-linejoin="round"/>
      <path d="M974 358C974 360 974 362 974 364" fill="none" stroke="#111111" stroke-width="6" stroke-linecap="round" stroke-linejoin="round"/>
      <path d="M981 370C981.45 371.36 981.66 372.65 982 374" fill="none" stroke="#111111" stroke-width="6" stroke-linecap="round" stroke-linejoin="round"/>
      <path d="M990 371C990 373.15 989.63 374.11 989 376" fill="none" stroke="#111111" stroke-width="6" stroke-linecap="round" stroke-linejoin="round"/>
      <path d="M1022 372C1022.65 371.03 1023.48 369.78 1024 369" fill="none" stroke="#111111" stroke-width="6" stroke-linecap="round" stroke-linejoin="round"/>
      <path d="M982 374C985.34 374 986.29 374.19 989 376" fill="none" stroke="#111111" stroke-width="6" stroke-linecap="round" stroke-linejoin="round"/>
      <path d="M945 384C943.33 385.67 941.67 387.33 940 389" fill="none" stroke="#111111" stroke-width="6" stroke-linecap="round" stroke-linejoin="round"/>
      <path d="M937 403C937.63 404.89 938 405.85 938 408" fill="none" stroke="#111111" stroke-width="6" stroke-linecap="round" stroke-linejoin="round"/>
      <path d="M922 406C922.97 405.35 924.22 404.52 925 404" fill="none" stroke="#111111" stroke-width="6" stroke-linecap="round" stroke-linejoin="round"/>
      <path d="M1039 406C1041.33 406 1043.67 406 1046 406" fill="none" stroke="#111111" stroke-width="4.75" stroke-linecap="round" stroke-linejoin="round"/>
      <path d="M922 408C921 409 920 410 919 411" fill="none" stroke="#111111" stroke-width="6" stroke-linecap="round" stroke-linejoin="round"/>
      <path d="M764 410C765 409 766 408 767 407" fill="none" stroke="#111111" stroke-width="6" stroke-linecap="round" stroke-linejoin="round"/>
      <path d="M968 413C968.78 412.48 970.03 411.65 971 411" fill="none" stroke="#111111" stroke-width="6" stroke-linecap="round" stroke-linejoin="round"/>
      <path d="M697 421C698.97 419.03 700.53 417.2 702 415" fill="none" stroke="#111111" stroke-width="6" stroke-linecap="round" stroke-linejoin="round"/>
      <path d="M859 427C857.88 428.54 857.54 428.88 856 430" fill="none" stroke="#111111" stroke-width="6" stroke-linecap="round" stroke-linejoin="round"/>
      <path d="M1039 438C1038.48 438.78 1037.65 440.03 1037 441" fill="none" stroke="#111111" stroke-width="6" stroke-linecap="round" stroke-linejoin="round"/>
      <path d="M926 441C925.35 441.97 924.52 443.22 924 444" fill="none" stroke="#111111" stroke-width="6" stroke-linecap="round" stroke-linejoin="round"/>
      <path d="M743 452C745.58 453.93 746.77 454.73 750 455" fill="none" stroke="#111111" stroke-width="5.75" stroke-linecap="round" stroke-linejoin="round"/>
      <path d="M699 458C702.34 458 703.29 458.19 706 460" fill="none" stroke="#111111" stroke-width="6" stroke-linecap="round" stroke-linejoin="round"/>
      <path d="M943 460C941.88 461.54 941.54 461.88 940 463" fill="none" stroke="#111111" stroke-width="4" stroke-linecap="round" stroke-linejoin="round"/>
      <path d="M815 464C813.99 464.34 812.91 464.7 812 465" fill="none" stroke="#111111" stroke-width="6" stroke-linecap="round" stroke-linejoin="round"/>
      <path d="M887 466C887.3 466.91 887.66 467.99 888 469" fill="none" stroke="#111111" stroke-width="6" stroke-linecap="round" stroke-linejoin="round"/>
      <path d="M703 471C703 473.75 702.82 475.54 702 478" fill="none" stroke="#111111" stroke-width="6" stroke-linecap="round" stroke-linejoin="round"/>
      <path d="M660 474C661.26 472.63 662.04 471.44 663 470" fill="none" stroke="#111111" stroke-width="6" stroke-linecap="round" stroke-linejoin="round"/>
      <path d="M965 480C962.99 482.68 962.02 483.99 959 485" fill="none" stroke="#111111" stroke-width="4.75" stroke-linecap="round" stroke-linejoin="round"/>
      <path d="M965 480C964.48 480.78 963.65 482.03 963 483" fill="none" stroke="#111111" stroke-width="6" stroke-linecap="round" stroke-linejoin="round"/>
      <path d="M838 483C836.88 484.54 836.54 484.88 835 486" fill="none" stroke="#111111" stroke-width="6" stroke-linecap="round" stroke-linejoin="round"/>
      <path d="M663 487C662.03 487.65 660.78 488.48 660 489" fill="none" stroke="#111111" stroke-width="6" stroke-linecap="round" stroke-linejoin="round"/>
      <path d="M937 498C939.2 499.47 941.03 501.03 943 503" fill="none" stroke="#111111" stroke-width="6" stroke-linecap="round" stroke-linejoin="round"/>
      <path d="M668 499C668.9 500.8 669 502.46 669 505" fill="none" stroke="#111111" stroke-width="6" stroke-linecap="round" stroke-linejoin="round"/>
      <path d="M988 499C987.48 499.78 986.65 501.03 986 502" fill="none" stroke="#111111" stroke-width="6" stroke-linecap="round" stroke-linejoin="round"/>
      <path d="M656 504C657.37 502.74 658.56 501.96 660 501" fill="none" stroke="#111111" stroke-width="6" stroke-linecap="round" stroke-linejoin="round"/>
      <path d="M999 507C998.48 507.78 997.65 509.03 997 510" fill="none" stroke="#111111" stroke-width="6" stroke-linecap="round" stroke-linejoin="round"/>
      <path d="M1013 512C1014.44 511.04 1015.63 510.26 1017 509" fill="none" stroke="#111111" stroke-width="6" stroke-linecap="round" stroke-linejoin="round"/>
      <path d="M1013 514C1011.67 515.33 1010.33 516.67 1009 518" fill="none" stroke="#111111" stroke-width="6" stroke-linecap="round" stroke-linejoin="round"/>
      <path d="M670 522C670.33 521.67 671.67 520.33 672 520" fill="none" stroke="#111111" stroke-width="6" stroke-linecap="round" stroke-linejoin="round"/>
      <path d="M728 524C727.67 524.33 726.33 525.67 726 526" fill="none" stroke="#111111" stroke-width="6" stroke-linecap="round" stroke-linejoin="round"/>
      <path d="M908 544C909.67 544 911.33 544 913 544" fill="none" stroke="#111111" stroke-width="6" stroke-linecap="round" stroke-linejoin="round"/>
      <path d="M662 561C659.76 564.08 658.76 564 655 564" fill="none" stroke="#111111" stroke-width="4.75" stroke-linecap="round" stroke-linejoin="round"/>
    </g>
</svg>
