<?xml version="1.0" encoding="UTF-8"?>
<svg xmlns="http://www.w3.org/2000/svg" xmlns:inkscape="http://www.inkscape.org/namespaces/inkscape"
     viewBox="0 0 2800 1572" width="2800" height="1572">
<g id="layer-rubber_outsole" inkscape:label="lugged rubber outsole" data-z="0" data-kind="component" data-regions="1" data-strokes="6">
      <path d="M47 365C47.3 366.12 47.61 367.25 47.92 368.4C51.72 382.14 55.65 393.12 68.75 400.57C69.5 401.04 70.24 401.51 71 402C71.44 404.56 71.44 404.56 71 407C69 409 69 409 66.88 409.44C58.34 408.14 49.46 399.8 43.84 393.64C39.09 386.84 37.55 378.2 37.57 370.02C38.72 364.66 42.1 364.67 47 365Z" fill="#ffffff" fill-rule="evenodd"/>
      <path d="M34 299C34.66 299.33 35.32 299.66 36 300C35.67 300.66 35.34 301.32 35 302C33.68 301.67 32.36 301.34 31 301C31.99 300.34 32.98 299.68 34 299Z" fill="#111111" fill-rule="evenodd"/>
      <path d="M50 309C51.56 310.81 51.56 310.81 53 313C52.67 313.99 52.34 314.98 52 316C50.44 314.75 50.44 314.75 49 313C49.31 310.81 49.31 310.81 50 309Z" fill="#111111" fill-rule="evenodd"/>
      <path d="M15 318C15.33 318 15.66 318 16 318C16 319.65 16 321.3 16 323C15.67 323 15.34 323 15 323C15 321.35 15 319.7 15 318Z" fill="#111111" fill-rule="evenodd"/>
      <path d="M32 323C32.33 323 32.66 323 33 323C33.33 325.97 33.66 328.94 34 332C33.34 332 32.68 332 32 332C32 329.03 32 326.06 32 323Z" fill="#111111" fill-rule="evenodd"/>
      <path d="M17 342C17.33 342.66 17.66 343.32 18 344C21.85 345.93 25.8 346.58 30.01 347.24C32 348 32 348 33.27 349.88C34 352 34 352 34 355C32.35 355.5 32.35 355.5 24 358C24 361.3 24 364.6 24 368C30.28 368.23 35.88 367.41 42 366C41.47 366.66 40.95 367.33 40.4 368.01C38.53 372.01 39.39 374.76 40.56 378.81C40.75 379.52 40.95 380.23 41.14 380.96C42.55 385.99 44.36 390.48 47 395C46.34 394.99 45.67 394.98 44.99 394.97C36.22 394.88 36.22 394.88 32 396C32 399.3 32 402.6 32 406C32.41 406.02 32.41 406.02 34.48 406.15C35.56 406.22 36.64 406.3 37.75 406.38C38.82 406.45 39.89 406.51 40.98 406.59C43.88 406.98 45.64 407.29 48 409C50.74 414.49 51.38 420.82 51.79 426.87C52 429 52 429 53 432C47.39 432 41.78 432 36 432C36 435.3 36 438.6 36 442C36.83 442.13 37.66 442.27 38.52 442.4C39.61 442.58 40.69 442.76 41.81 442.94C42.89 443.11 43.97 443.29 45.08 443.47C48 444 48 444 51 445C51 445.5 51 445.5 51.01 448.04C51.26 460.12 51.26 460.12 54.25 463.94C64.22 473.16 77.79 478.45 90 484C90 484.33 90 484.66 90 485C88.02 485.33 86.04 485.66 84 486C83.67 487.65 83.34 489.3 83 491C76.4 488.03 69.8 485.06 63 482C62.84 483.32 62.84 483.32 62 490C61.46 489.55 60.93 489.09 60.38 488.63C57.68 486.78 55.12 485.92 52 485C52 484.34 52 483.68 52 483C51.34 483 50.68 483 50 483C50.33 483.99 50.66 484.98 51 486C50.22 486.25 49.43 486.5 48.63 486.75C46 488 46 488 44.69 489.75C43.03 495.19 44.33 499.77 46 505C39.24 499.86 34.79 494.07 32 486C31.79 483.23 31.79 483.23 31.84 480.18C31.85 479.03 31.86 477.88 31.88 476.7C31.9 475.46 31.92 474.22 31.95 472.95C31.96 470.98 31.98 469.02 32 467.05C32.05 462.22 32.11 457.39 32.19 452.57C32.66 423.35 32.66 423.35 28 410C27.69 408.98 27.37 407.96 27.05 406.91C25.92 403.26 24.69 399.63 23.47 396.01C20.03 385.57 17.71 375.13 19.69 364.19C20.38 359.5 19.02 355.41 17.69 350.93C16.97 347.86 16.88 345.15 17 342Z" fill="#111111" fill-rule="evenodd"/>
      <path d="M1311 1533C1313.31 1533.66 1315.62 1534.32 1318 1535C1318.33 1536.32 1318.66 1537.64 1319 1539C1312.13 1535.25 1312.13 1535.25 1311 1533Z" fill="#111111" fill-rule="evenodd"/>
    </g>
</svg>
