<?xml version="1.0" encoding="UTF-8"?>
<svg xmlns="http://www.w3.org/2000/svg" xmlns:inkscape="http://www.inkscape.org/namespaces/inkscape"
     viewBox="0 0 2800 2196" width="2800" height="2196">
<g id="layer-eyelet_underlay" inkscape:label="Eyelet underlay" data-z="3" data-kind="component" data-regions="16" data-strokes="36">
      <path d="M1770 844C1776.41 844.33 1779.91 846.57 1784.88 850.5C1785.58 851.04 1786.28 851.58 1787 852.14C1792.41 856.38 1797.38 860.89 1802 866C1802.6 866.65 1803.2 867.31 1803.81 867.98C1805.58 869.96 1807.29 871.97 1809 874C1809.71 874.81 1810.41 875.61 1811.14 876.44C1815.52 881.6 1818.01 885.28 1819 892C1819.1 892.57 1819.1 892.57 1819.63 895.44C1821.64 914.57 1816.24 935 1810.88 953.31C1810.54 954.47 1810.2 955.64 1809.86 956.83C1808 962.88 1808 962.88 1807 965C1806.01 965.33 1805.02 965.66 1804 966C1804.05 966.44 1804.05 966.44 1804.31 968.69C1804.27 974.16 1801.96 978.87 1799.89 983.85C1798.87 986.33 1797.89 988.82 1796.91 991.31C1786.89 1016.7 1786.89 1016.7 1777.06 1026.25C1776.58 1026.73 1776.11 1027.21 1775.61 1027.7C1772.79 1030.25 1770.55 1031.33 1766.82 1031.5C1763 1031 1763 1031 1761.05 1029.61C1760.83 1029.3 1760.83 1029.3 1759.75 1027.75C1759.27 1027.11 1758.79 1026.47 1758.29 1025.81C1757.87 1025.21 1757.44 1024.62 1757 1024C1753.76 1020.24 1750.56 1018.91 1746 1017C1744.06 1015.81 1744.06 1015.81 1743 1014C1742.76 1008.29 1743.3 1002.99 1744.31 997.38C1744.37 997.01 1744.37 997.01 1744.67 995.18C1745.5 990.51 1746.52 985.48 1750 982C1750.13 980.29 1750.23 978.59 1750.31 976.88C1750.68 972.31 1751.5 969.59 1754.01 965.84C1755.97 962.21 1756.38 958.04 1757 954C1757.5 953.84 1757.5 953.84 1760 953C1759.97 952.41 1759.93 951.82 1759.9 951.21C1759.72 945.97 1760.22 943.49 1763 939C1763.32 937.47 1763.58 935.92 1763.81 934.38C1764.69 928.91 1766.23 923.81 1767.94 918.56C1770.24 911.43 1772.46 904.35 1774 897C1774.14 896.33 1774.28 895.66 1774.43 894.97C1776.52 884.75 1777.52 875.43 1776 865C1775.87 864.13 1775.75 863.25 1775.62 862.35C1774.91 858.47 1774.1 856.15 1771.88 852.81C1769.71 849.57 1769.64 847.82 1770 844Z" fill="#c2c2c2" fill-rule="evenodd"/>
      <path d="M1865 909C1870.26 908.26 1873.22 910.73 1877.31 913.63C1877.98 914.09 1878.65 914.55 1879.34 915.02C1881.23 916.34 1883.12 917.67 1885 919C1885.79 919.54 1886.59 920.09 1887.41 920.65C1897.48 927.79 1905.43 935.47 1907.71 947.83C1910.25 964.98 1908.79 982.15 1905 999C1904.01 999.33 1903.02 999.66 1902 1000C1902.21 1001.05 1902.41 1002.1 1902.63 1003.19C1903.02 1007.2 1902.52 1008.42 1901 1012C1900.57 1013.68 1900.17 1015.36 1899.82 1017.06C1899.71 1017.53 1899.71 1017.53 1899.19 1019.92C1898.78 1021.88 1898.36 1023.85 1897.94 1025.81C1896.76 1031.22 1895.28 1035.96 1893 1041C1892.41 1043.44 1892.41 1043.44 1892.06 1045.56C1891.19 1049.81 1889.52 1052.43 1887 1056C1886.05 1058.01 1885.11 1060.04 1884.19 1062.06C1881.69 1067.08 1879.51 1071.13 1874 1073C1867.64 1073.82 1863.04 1071.28 1858.01 1067.62C1850.42 1061.51 1850.42 1061.51 1849 1057C1848.9 1054.33 1848.96 1051.68 1849 1049C1848.67 1048.67 1848.34 1048.34 1848 1048C1847.45 1040.48 1847.85 1032.44 1849 1025C1849.33 1024.67 1849.33 1024.67 1851 1023C1851.16 1020.72 1851.16 1020.72 1851.06 1017.94C1851.01 1014.26 1850.98 1010.61 1851.25 1006.94C1851.3 1006.23 1851.34 1005.51 1851.39 1004.78C1852 1003 1852 1003 1854.05 1001.75C1854.69 1001.51 1855.34 1001.26 1856 1001C1855.67 1000.34 1855.34 999.68 1855 999C1855.52 991.28 1857.23 983.85 1858.94 976.31C1859.2 975.12 1859.47 973.92 1859.74 972.69C1862.65 959.69 1862.65 959.69 1865 955C1865.21 952.67 1865.37 950.34 1865.5 948C1865.89 941.22 1865.89 941.22 1867 939C1867.51 931.77 1866.84 924.88 1865.44 917.79C1864.97 914.82 1864.93 912 1865 909Z" fill="#c2c2c2" fill-rule="evenodd"/>
      <path d="M1827 921C1832.68 920.75 1832.68 920.75 1835.56 923C1847.09 937.19 1849.95 952.71 1848.54 970.62C1848.02 975.65 1846.74 979.73 1844 984C1843.68 984.55 1843.68 984.55 1842.06 987.31C1839.19 991.06 1835.9 993.4 1832 996C1828.56 996.44 1828.56 996.44 1825 996C1823.61 994.38 1822.29 992.7 1821 991C1818.1 989.13 1815.08 987.55 1812 986C1811.69 980.59 1812.66 976.6 1814.75 971.69C1817.99 963.62 1819.84 955.52 1821.57 947.02C1822.17 944.2 1822.89 941.42 1823.63 938.63C1825.12 932.81 1826.11 926.94 1827 921Z" fill="#c2c2c2" fill-rule="evenodd"/>
      <path d="M1694.17 929.46C1701 929.23 1701 929.23 1703.96 931.5C1708.18 936.43 1709.12 939.45 1709 946C1705.4 947.2 1702.11 947.15 1698.37 947.12C1697.68 947.13 1696.99 947.13 1696.27 947.14C1691.13 947.13 1691.13 947.13 1690 946C1689.87 943.88 1689.82 941.75 1689.81 939.62C1689.8 938.46 1689.78 937.3 1689.77 936.1C1690.03 932.54 1690.45 930.38 1694.17 929.46Z" fill="#c2c2c2" fill-rule="evenodd"/>
      <path d="M1698.25 950.81C1699.39 950.8 1700.53 950.78 1701.7 950.77C1704.96 951 1707.12 951.5 1710 953C1710.64 953.8 1711.28 954.61 1711.94 955.44C1714.38 958.48 1716.35 959.66 1720 961C1724.66 961.12 1727.04 958.37 1730.32 955.43C1734.89 951.54 1739.29 951.81 1745 952C1744.22 963.52 1744.22 963.52 1742 969C1731.8 970.18 1721.57 970.33 1711.31 970.56C1709.53 970.61 1707.75 970.65 1705.97 970.69C1701.65 970.8 1697.32 970.9 1693 971C1691.36 967.71 1691.58 964.06 1691.38 960.44C1691.32 959.64 1691.27 958.85 1691.22 958.03C1691.1 956.02 1691.05 954.01 1691 952C1692.85 950.15 1695.77 950.83 1698.25 950.81Z" fill="#c2c2c2" fill-rule="evenodd"/>
      <path d="M1739 973C1739.38 979.2 1738.84 983.45 1736 989C1704.26 991.94 1704.26 991.94 1698 991C1694.78 986.17 1693.64 980.8 1694 975C1696.47 973.76 1698.27 973.79 1701.03 973.68C1702.06 973.64 1703.09 973.6 1704.16 973.56C1705.26 973.52 1706.36 973.48 1707.5 973.44C1708.06 973.42 1708.06 973.42 1710.89 973.31C1720.26 972.98 1729.62 972.89 1739 973Z" fill="#c2c2c2" fill-rule="evenodd"/>
      <path d="M1734 993C1734.17 993.17 1734.17 993.17 1735 994C1734.96 996.25 1734.84 998.5 1734.69 1000.75C1734.61 1001.98 1734.53 1003.22 1734.45 1004.48C1734.04 1007.72 1733.27 1010.03 1732 1013C1728.11 1013.15 1724.21 1013.23 1720.31 1013.31C1719.21 1013.35 1718.11 1013.4 1716.97 1013.44C1708.78 1013.56 1708.78 1013.56 1704.84 1010.73C1703.33 1008.49 1702.08 1006.6 1701.19 1004.06C1700.95 1003.44 1700.72 1002.81 1700.48 1002.16C1699.87 999.41 1699.92 996.81 1700 994C1724.4 992.53 1724.4 992.53 1734 993Z" fill="#c2c2c2" fill-rule="evenodd"/>
      <path d="M1842 1002C1841.89 1003.9 1841.76 1005.79 1841.63 1007.69C1841.56 1008.74 1841.49 1009.8 1841.41 1010.89C1841.01 1013.96 1840.45 1016.27 1839 1019C1836.29 1019.9 1834.6 1020.15 1831.8 1020.21C1830.96 1020.23 1830.12 1020.25 1829.26 1020.27C1828.81 1020.27 1828.81 1020.27 1826.52 1020.32C1826.06 1020.33 1826.06 1020.33 1823.71 1020.38C1820.74 1020.45 1817.78 1020.5 1814.81 1020.56C1812.8 1020.61 1810.79 1020.65 1808.78 1020.69C1803.86 1020.8 1798.93 1020.9 1794 1021C1794.59 1016.3 1795.13 1013.09 1797.88 1009.19C1798.39 1008.44 1798.9 1007.69 1799.43 1006.92C1801 1005 1801 1005 1804 1003C1810.58 1002.37 1814.91 1004.85 1819.86 1008.92C1822 1010 1822 1010 1824.49 1009.37C1827.75 1007.59 1830.65 1005.47 1833.62 1003.24C1836.57 1001.7 1838.72 1001.78 1842 1002Z" fill="#c2c2c2" fill-rule="evenodd"/>
      <path d="M1710 1016C1726.09 1015.75 1726.09 1015.75 1732 1017C1734 1019 1734 1019 1734.13 1022.13C1734.08 1023.07 1734.04 1024.02 1734 1025C1729.8 1025.99 1725.75 1026.26 1721.44 1026.38C1720.79 1026.4 1720.79 1026.4 1717.5 1026.52C1714 1026 1714 1026 1711.54 1023.79C1709.91 1020.84 1709.62 1019.3 1710 1016Z" fill="#c2c2c2" fill-rule="evenodd"/>
      <path d="M1838 1023C1838.05 1025.96 1838.09 1028.92 1838.13 1031.88C1838.14 1032.72 1838.16 1033.56 1838.18 1034.43C1838.18 1035.23 1838.19 1036.04 1838.2 1036.87C1838.21 1037.61 1838.22 1038.35 1838.23 1039.12C1838 1041 1838 1041 1836 1043C1833.44 1043.34 1830.96 1043.55 1828.38 1043.69C1827.59 1043.73 1826.8 1043.78 1825.99 1043.84C1823.37 1043.99 1820.75 1044.14 1818.13 1044.29C1816.3 1044.4 1814.47 1044.51 1812.64 1044.62C1808.78 1044.85 1804.92 1045.07 1801.06 1045.29C1796.17 1045.56 1791.28 1045.85 1786.4 1046.15C1782.6 1046.38 1778.8 1046.6 1775 1046.82C1773.21 1046.92 1771.41 1047.03 1769.61 1047.14C1763.74 1047.48 1757.87 1047.78 1752 1048C1751.1 1048.04 1750.2 1048.07 1749.27 1048.11C1746.54 1048.21 1743.81 1048.27 1741.08 1048.33C1740.25 1048.36 1739.42 1048.39 1738.56 1048.42C1733.23 1048.48 1730.49 1047.67 1726.5 1043.81C1725.29 1042.24 1724.11 1040.64 1723 1039C1722.58 1038.55 1722.58 1038.55 1720.44 1036.25C1718.75 1033.61 1718.65 1032.07 1719 1029C1727.48 1026.68 1739.2 1025.6 1747.11 1029.9C1749.5 1031.42 1751.76 1033.09 1754.02 1034.79C1758.96 1038.45 1763.9 1040.32 1770.06 1040.13C1777.33 1038.8 1782.38 1031.85 1786.77 1026.38C1788.54 1024.39 1789.72 1024.02 1792.37 1023.8C1792.87 1023.78 1792.87 1023.78 1795.36 1023.68C1795.92 1023.66 1795.92 1023.66 1798.71 1023.56C1799.9 1023.52 1801.09 1023.48 1802.31 1023.44C1803.52 1023.4 1804.72 1023.35 1805.96 1023.31C1816.65 1022.96 1827.31 1022.9 1838 1023Z" fill="#c2c2c2" fill-rule="evenodd"/>
      <path d="M1572 1035C1577.21 1034.71 1580.43 1035.3 1585.03 1037.75C1586.14 1038.33 1587.26 1038.92 1588.4 1039.52C1589.58 1040.16 1590.76 1040.8 1591.94 1041.44C1593.16 1042.09 1594.38 1042.74 1595.6 1043.38C1597.99 1044.66 1600.39 1045.95 1602.78 1047.25C1605.43 1048.69 1608.1 1050.12 1610.77 1051.55C1638.88 1066.76 1665.73 1088.13 1687 1112C1687 1112.66 1687 1113.32 1687 1114C1687.66 1114 1688.32 1114 1689 1114C1704.49 1128.1 1714.49 1148.29 1723 1167C1723.45 1167.98 1723.9 1168.95 1724.36 1169.96C1733.08 1190.18 1732.7 1214.66 1729 1236C1728.89 1236.8 1728.78 1237.6 1728.67 1238.43C1727.53 1245.25 1724.12 1251.15 1720.94 1257.21C1719.45 1260.05 1718.04 1262.94 1716.63 1265.81C1714.12 1270.88 1714.12 1270.88 1713 1272C1704.81 1272.27 1704.81 1272.27 1701 1271C1700.57 1268.06 1700.36 1265.88 1702.16 1263.4C1703.21 1262.26 1704.27 1261.14 1705.33 1260.01C1708.3 1256.44 1710.09 1252.21 1712 1248C1711.01 1247.67 1710.02 1247.34 1709 1247C1708.81 1247.36 1708.81 1247.36 1707.86 1249.16C1703.17 1257.94 1703.17 1257.94 1700.19 1261.94C1698.26 1264.64 1697.62 1265.9 1697 1269C1690.19 1268.42 1683.54 1267.47 1676.83 1266.18C1675.89 1266 1674.94 1265.82 1673.97 1265.64C1670.92 1265.05 1667.86 1264.46 1664.81 1263.88C1663.77 1263.67 1662.72 1263.47 1661.64 1263.27C1647.52 1260.55 1633.46 1257.67 1619.46 1254.39C1613.53 1253 1607.61 1251.71 1601.63 1250.6C1601.04 1250.49 1601.04 1250.49 1598.08 1249.94C1595.88 1249.53 1593.69 1249.14 1591.48 1248.77C1590.52 1248.6 1589.56 1248.42 1588.57 1248.24C1587.74 1248.09 1586.9 1247.95 1586.03 1247.8C1584 1247 1584 1247 1582.75 1245.2C1581.97 1242.9 1581.66 1240.96 1581.51 1238.54C1581.44 1237.65 1581.38 1236.76 1581.31 1235.85C1581.19 1234.06 1581.08 1232.26 1580.97 1230.47C1580.4 1223.01 1579.06 1215.8 1577.62 1208.47C1576.32 1201.85 1575.2 1195.23 1574.18 1188.56C1574.04 1187.61 1573.89 1186.66 1573.74 1185.68C1573.16 1181.81 1572.58 1177.93 1572 1174.05C1568.99 1153.97 1568.99 1153.97 1566.54 1144.56C1565.99 1141.96 1565.9 1139.64 1566 1137C1566.28 1136.87 1566.28 1136.87 1567.69 1136.19C1578.62 1130.57 1586.67 1121.54 1591 1110C1589.68 1109.67 1588.36 1109.34 1587 1109C1586.75 1109.7 1586.5 1110.4 1586.23 1111.13C1583.01 1118.64 1578.04 1126.62 1571 1131C1568.25 1131.5 1568.25 1131.5 1566 1131C1564 1128 1564 1128 1564.06 1124.56C1565.21 1120.22 1566.49 1119.64 1570 1117C1579.94 1104.07 1580.05 1089.09 1578.23 1073.46C1577.89 1070.91 1577.55 1068.36 1577.19 1065.81C1577.02 1064.54 1576.86 1063.26 1576.69 1061.95C1575.77 1055.24 1574.6 1048.84 1572.58 1042.37C1571.96 1039.84 1571.9 1037.6 1572 1035Z" fill="#c2c2c2" fill-rule="evenodd"/>
      <path d="M1838 1047C1840.64 1053.5 1842.12 1058.94 1842 1066C1835.12 1066.41 1828.24 1066.82 1821.36 1067.23C1819.03 1067.37 1816.7 1067.5 1814.37 1067.64C1799.59 1068.53 1784.8 1069.35 1770 1070C1769.3 1070.03 1768.6 1070.06 1767.88 1070.1C1756.18 1070.62 1756.18 1070.62 1751 1066C1750.08 1065.31 1749.15 1064.62 1748.2 1063.91C1742.25 1059.37 1742.25 1059.37 1740 1057C1739.86 1054.36 1739.86 1054.36 1740 1052C1754.5 1050.26 1769 1049.31 1783.58 1048.57C1787.3 1048.38 1791.01 1048.17 1794.73 1047.97C1809.17 1047.2 1823.54 1046.82 1838 1047Z" fill="#c2c2c2" fill-rule="evenodd"/>
      <path d="M1840.85 1068.66C1845.05 1068.15 1847.24 1068.49 1850.81 1070.87C1852.72 1072.45 1854.6 1074.07 1856.44 1075.73C1859.46 1078.4 1862.43 1080.17 1866 1082C1866 1083.65 1866 1085.3 1866 1087C1850.63 1088.21 1835.26 1089.2 1819.86 1089.99C1818.14 1090.08 1816.43 1090.17 1814.71 1090.26C1809.9 1090.51 1805.09 1090.73 1800.27 1090.91C1798.03 1091 1795.8 1091.13 1793.56 1091.27C1786.2 1091.63 1780.73 1091.52 1774.91 1086.62C1774.28 1086.03 1773.65 1085.43 1773 1084.81C1772.31 1084.23 1771.62 1083.66 1770.91 1083.06C1767.32 1079.91 1767.32 1079.91 1766 1078C1765.95 1076.33 1765.95 1074.67 1766 1073C1766.7 1072.96 1767.39 1072.93 1768.11 1072.89C1774.73 1072.56 1781.34 1072.22 1787.96 1071.88C1791.36 1071.7 1794.76 1071.53 1798.16 1071.36C1802.09 1071.16 1806.02 1070.96 1809.95 1070.75C1811.14 1070.69 1812.34 1070.63 1813.57 1070.57C1833.54 1069.54 1833.54 1069.54 1840.85 1068.66Z" fill="#c2c2c2" fill-rule="evenodd"/>
      <path d="M1952 1082C1952.17 1086.74 1952.17 1086.74 1950.61 1089.1C1950.3 1089.42 1950.3 1089.42 1948.75 1091.06C1948.43 1091.41 1948.43 1091.41 1946.8 1093.15C1946.21 1093.76 1945.61 1094.37 1945 1095C1944.32 1095.74 1943.64 1096.48 1942.94 1097.25C1938.08 1101.64 1933.91 1103.61 1927.41 1104.13C1926.67 1104.2 1925.92 1104.27 1925.14 1104.34C1922.64 1104.58 1920.13 1104.79 1917.63 1105C1915.83 1105.16 1914.04 1105.32 1912.25 1105.48C1906.17 1106.02 1900.08 1106.51 1894 1107C1893.43 1107.05 1893.43 1107.05 1890.57 1107.28C1883.31 1107.87 1876.06 1108.43 1868.8 1108.98C1866.44 1109.16 1864.07 1109.34 1861.71 1109.52C1848.76 1110.51 1835.82 1111.21 1822.84 1111.41C1821.68 1111.45 1820.52 1111.48 1819.33 1111.52C1810.46 1111.57 1804.75 1109.4 1798.27 1103.38C1797.9 1102.99 1797.9 1102.99 1796 1101C1795.34 1100.34 1794.68 1099.68 1794 1099C1793.88 1096.38 1793.88 1096.38 1794 1094C1794.87 1093.96 1795.74 1093.91 1796.64 1093.86C1808.09 1093.27 1819.55 1092.64 1831 1092C1831.5 1091.97 1831.5 1091.97 1834.02 1091.83C1840.28 1091.48 1846.53 1091.12 1852.79 1090.74C1854.81 1090.63 1856.83 1090.51 1858.86 1090.4C1871.46 1089.68 1883.88 1088.47 1896.39 1086.75C1904.33 1085.67 1912.3 1084.85 1920.28 1084.07C1922.86 1083.81 1925.44 1083.54 1928.03 1083.28C1936.05 1082.46 1943.93 1081.76 1952 1082Z" fill="#c2c2c2" fill-rule="evenodd"/>
      <path d="M1927 1107C1927.35 1109.22 1927.35 1109.22 1927 1112C1924.59 1114.25 1924.59 1114.25 1921.38 1116.44C1917.91 1118.83 1914.99 1120.98 1912.32 1124.21C1908.19 1128.44 1903.06 1128.06 1897.44 1128.25C1895.1 1128.38 1892.77 1128.51 1890.44 1128.63C1889.22 1128.69 1888.01 1128.75 1886.75 1128.81C1881.72 1129.07 1876.7 1129.46 1871.67 1129.85C1866.84 1130.21 1862 1130.49 1857.16 1130.78C1854.42 1130.97 1851.71 1131.24 1848.99 1131.55C1837.29 1132.61 1830.14 1127.65 1821.29 1120.67C1819.54 1118.41 1819.91 1116.79 1820 1114C1820.75 1113.96 1821.51 1113.91 1822.28 1113.87C1831.84 1113.32 1841.39 1112.76 1850.94 1112.19C1851.32 1112.17 1851.32 1112.17 1853.23 1112.05C1873.3 1110.86 1893.32 1109.56 1913.32 1107.52C1917.91 1107.06 1922.39 1106.89 1927 1107Z" fill="#c2c2c2" fill-rule="evenodd"/>
      <path d="M1897 1132C1897.27 1134.3 1897.27 1134.3 1897 1137C1895.16 1138.7 1895.16 1138.7 1892.63 1140.25C1887.64 1143.45 1883.59 1147.09 1879.42 1151.28C1876.28 1153.51 1874.8 1153.58 1871 1153C1868.57 1151.88 1866.45 1150.77 1864.19 1149.38C1863.58 1149.01 1862.97 1148.65 1862.35 1148.27C1861.13 1147.54 1859.91 1146.8 1858.7 1146.05C1857.18 1145.11 1855.64 1144.21 1854.09 1143.31C1853.28 1142.82 1852.46 1142.32 1851.63 1141.81C1850.92 1141.39 1850.21 1140.96 1849.48 1140.52C1848 1139 1848 1139 1847.91 1136.41C1847.94 1135.61 1847.97 1134.82 1848 1134C1864.36 1132.66 1880.58 1131.68 1897 1132Z" fill="#c2c2c2" fill-rule="evenodd"/>
      <path d="M1829 894C1827.75 899.01 1828.64 903.88 1828 909C1827.55 912.58 1822.49 914.05 1822 918C1819.71 936.35 1814.68 953.84 1808.25 971C1806.1 976.73 1806.93 983.22 1805 989" fill="none" stroke="#111111" stroke-width="6" stroke-linecap="round" stroke-linejoin="round"/>
      <path d="M1857 899C1857 906.24 1859.1 913.8 1860 921C1860.23 922.82 1861.25 924.04 1861 926C1860.61 929.09 1855.86 930.11 1855.5 933C1854.87 938.01 1856.65 943.8 1856 949C1854.06 964.55 1851.95 979.16 1847 994" fill="none" stroke="#111111" stroke-width="6" stroke-linecap="round" stroke-linejoin="round"/>
      <path d="M1747 921C1738.96 929.04 1741.01 936.48 1736.75 945C1735.25 948 1723.22 951 1720 951C1718.17 951 1716.09 948.24 1715 947C1712.97 944.68 1714.35 940.83 1714 938C1713.3 932.38 1704.47 925.6 1700 923" fill="none" stroke="#111111" stroke-width="6" stroke-linecap="round" stroke-linejoin="round"/>
      <path d="M1688 973C1693.61 972.53 1699.43 971.7 1705 971C1713.53 969.93 1722.47 972.07 1731 971C1734.06 970.62 1736.72 969.59 1740 970C1741.74 970.22 1743.99 972.48 1744.75 974C1745.6 975.7 1740 990.6 1739 993" fill="none" stroke="#111111" stroke-width="6" stroke-linecap="round" stroke-linejoin="round"/>
      <path d="M1805 989C1800.15 992.23 1801.87 993.75 1799.75 998C1798.17 1001.16 1794.9 1003.7 1793.25 1007C1791.68 1010.14 1791.21 1014.07 1789.75 1017C1788.21 1020.08 1775.08 1033.21 1772 1034.75C1770.1 1035.7 1763.97 1035.49 1762 1034.75C1756.46 1032.67 1753.77 1027.23 1749 1024.25C1741.63 1019.64 1741.04 1023.69 1737 1014" fill="none" stroke="#111111" stroke-width="6" stroke-linecap="round" stroke-linejoin="round"/>
      <path d="M1908 1005C1908 1009.49 1908.77 1015.95 1906.75 1020C1905.21 1023.08 1902.53 1024.6 1901.25 1028C1900.22 1030.75 1900.96 1034.58 1899.75 1037C1893.86 1048.77 1891.05 1061.66 1882 1072C1879.31 1075.07 1875.37 1074.63 1873 1077C1870.52 1079.48 1877.46 1085.02 1872 1087.75C1868.63 1089.44 1862.72 1087.54 1859 1088C1846.17 1089.6 1832.92 1088.38 1820 1090C1810.48 1091.19 1800.53 1090.64 1791 1092C1787.08 1092.56 1787.55 1097.83 1782 1095.75C1774.86 1093.07 1765.94 1085.65 1761 1080C1759.64 1078.44 1759.97 1075.37 1758 1074.25C1750.33 1069.87 1742.61 1065.61 1736 1059C1734.41 1057.41 1734.7 1054.7 1733 1053C1731.44 1051.44 1728.76 1051.54 1727 1050C1720.09 1043.95 1715.72 1037.08 1711 1030" fill="none" stroke="#111111" stroke-width="6" stroke-linecap="round" stroke-linejoin="round"/>
      <path d="M1843 1021C1843 1025.12 1843.46 1040.01 1841.75 1043C1841.25 1043.87 1816.8 1045 1814 1045C1793.68 1045 1772.1 1046.49 1752 1049C1748.01 1049.5 1741.61 1047.44 1738 1049.25C1736.47 1050.01 1735.19 1051.81 1734 1053" fill="none" stroke="#111111" stroke-width="6" stroke-linecap="round" stroke-linejoin="round"/>
      <path d="M1846 1064C1841.38 1068.24 1837.78 1066.28 1832 1067C1818.49 1068.69 1804.52 1068.31 1791 1070C1784.24 1070.84 1768.48 1068.51 1763 1071.25C1761.47 1072.01 1760.19 1073.81 1759 1075" fill="none" stroke="#111111" stroke-width="6" stroke-linecap="round" stroke-linejoin="round"/>
      <path d="M1704 1073C1711.19 1075.4 1715.43 1083.13 1721 1088C1723.34 1090.05 1726.63 1090.93 1729 1093C1737.03 1100.02 1744.95 1106.95 1753 1114C1760.49 1120.56 1769.53 1126.46 1778 1131.75C1779.74 1132.84 1782.62 1133.62 1784 1135C1789.27 1140.27 1796.28 1148.39 1803 1151.75C1815.52 1158.01 1826.14 1168.34 1838 1175.75C1842.27 1178.42 1846.39 1180.39 1850 1184" fill="none" stroke="#111111" stroke-width="6" stroke-linecap="round" stroke-linejoin="round"/>
      <path d="M1787 1097C1789.16 1103.47 1800.45 1112.29 1807 1114.75C1808.3 1115.24 1809.76 1114.63 1811 1115.25C1813.87 1116.69 1814.12 1120.95 1817 1122.75C1821.87 1125.79 1826.16 1129.72 1831 1132.75C1833.49 1134.31 1836.57 1134.04 1839 1135.25C1841.88 1136.69 1843.55 1140.86 1846 1143C1852.07 1148.31 1863.72 1156.31 1872 1157" fill="none" stroke="#111111" stroke-width="6" stroke-linecap="round" stroke-linejoin="round"/>
      <path d="M1931 1105C1923.13 1102.38 1911.32 1105.96 1903 1107C1885.11 1109.24 1866.88 1108.77 1849 1111C1844.65 1111.54 1840.15 1110.19 1836 1111.75C1827.31 1115.01 1819.41 1108.59 1812 1116" fill="none" stroke="#111111" stroke-width="6" stroke-linecap="round" stroke-linejoin="round"/>
      <path d="M1557 1116C1559.62 1115.34 1562.61 1115.24 1565 1113.75C1569.44 1110.98 1569.62 1106.34 1571.25 1102C1575.42 1090.88 1573.47 1076.75 1572 1065C1571.54 1061.34 1570 1057.75 1570 1054C1570 1051.38 1563.82 1029.6 1568 1029C1569.54 1028.78 1570.56 1029.82 1572 1030C1588.47 1032.06 1609.45 1045.66 1624 1054.75C1646.98 1069.11 1666.77 1085.77 1686 1105C1693.31 1112.31 1701.69 1119.87 1706.25 1129C1707.93 1132.36 1712.03 1134.57 1713.75 1138C1720.08 1150.67 1726.81 1162.83 1731.75 1176C1733.74 1181.3 1733.3 1187.43 1734 1193C1734.52 1197.19 1736 1200.59 1736 1205" fill="none" stroke="#111111" stroke-width="6" stroke-linecap="round" stroke-linejoin="round"/>
      <path d="M1833 899C1836.15 899.14 1839.29 899.29 1842.44 899.44C1843.34 899.48 1844.23 899.52 1845.16 899.56C1846.01 899.6 1846.87 899.64 1847.75 899.68C1848.14 899.7 1848.14 899.7 1850.14 899.8C1852 900 1852 900 1853 901C1853.24 903.35 1853.41 905.71 1853.56 908.06C1853.65 909.35 1853.73 910.64 1853.82 911.97C1853.88 912.97 1853.94 913.97 1854 915C1851.37 912.46 1849.45 910.38 1848 907C1845.69 907 1843.38 907 1841 907C1841 907.66 1841 908.32 1841 909C1842.39 910.35 1843.84 911.63 1845.31 912.88C1847.72 914.91 1849.78 916.69 1851.61 919.26C1852.07 919.83 1852.53 920.41 1853 921C1853.99 921 1854.98 921 1856 921C1856.25 923.19 1856.25 923.19 1856 926C1855.34 926.72 1854.67 927.45 1853.98 928.2C1851.43 931.8 1851.71 934.48 1852 938.69C1852.54 954.87 1849.54 971.52 1844.73 986.95C1843.91 990.39 1843.88 993.48 1844 997C1845.98 997 1847.96 997 1850 997C1853.87 985.9 1856.02 974.57 1858 963C1858.2 961.87 1858.39 960.73 1858.59 959.57C1859.26 953.68 1859.28 947.75 1859.34 941.83C1859.56 934.53 1859.56 934.53 1862.02 931.57C1862.67 931.06 1863.33 930.54 1864 930C1865.38 924.21 1863.53 917.52 1862.44 911.8C1862.02 909.14 1861.92 906.68 1862 904C1879.48 905.61 1894.95 919.71 1906.08 932.37C1908.33 935.45 1910.03 938.7 1911.69 942.13C1912 942.75 1912.3 943.37 1912.62 944C1913.92 946.64 1915.07 949.21 1916 952C1916.51 952.07 1916.51 952.07 1919.07 952.41C1931.27 954.28 1931.27 954.28 1934.56 958.5C1934.98 959.11 1935.4 959.73 1935.84 960.36C1937.77 963.09 1939.9 963.89 1943 965C1944.77 965.29 1946.54 965.56 1948.31 965.81C1955.62 967.02 1960.45 970.39 1965.56 975.63C1967.72 980.7 1967.94 985.57 1967 991C1964.5 993.75 1964.5 993.75 1962 995C1962.16 994.43 1962.32 993.86 1962.48 993.27C1963.91 987.06 1963.53 981.4 1960.41 975.79C1955.52 969.59 1948.25 967.75 1940.81 966.81C1940.07 966.71 1939.33 966.6 1938.56 966.49C1933.46 965.85 1929.85 966.27 1925 968C1924.95 968.68 1924.9 969.35 1924.85 970.05C1924.78 970.94 1924.7 971.83 1924.63 972.75C1924.56 973.63 1924.49 974.51 1924.41 975.42C1924 978.01 1923.21 979.7 1922 982C1921.93 982.53 1921.93 982.53 1921.56 985.19C1921.11 988.26 1920.51 990.67 1919.5 993.56C1917.01 1000.81 1916.07 1008.35 1917 1016C1918.86 1018.5 1921.3 1019.95 1923.94 1021.56C1924.61 1021.98 1925.28 1022.39 1925.97 1022.82C1930.63 1025.53 1932.56 1026.16 1938 1025C1938.99 1025 1939.98 1025 1941 1025C1935.98 1029.78 1935.98 1029.78 1931.94 1030.69C1928.4 1029.86 1927.74 1028.52 1925.7 1025.67C1922.04 1022.08 1916.7 1020.76 1912 1019C1911.67 1013.39 1911.34 1007.78 1911 1002C1909.02 1002 1907.04 1002 1905 1002C1904.96 1002.87 1904.93 1003.74 1904.89 1004.63C1904.4 1013.23 1903.65 1019.04 1897 1025C1897.63 1019.22 1898.67 1013.66 1900 1008C1901.12 1003.23 1901.12 1003.23 1900 1001C1899.51 1000.67 1899.51 1000.67 1897 999C1898.98 998.67 1900.96 998.34 1903 998C1906.98 979.87 1911.71 954.26 1901.73 937.3C1895.15 928.57 1887.36 922.5 1878 917C1875.98 915.69 1873.96 914.38 1871.94 913.06C1867.25 910 1867.25 910 1865 910C1865.47 910.97 1865.95 911.94 1866.44 912.94C1869.98 921.31 1869.4 931.08 1869 940C1868.84 940.33 1868.84 940.33 1868 942C1867.72 945.57 1867.55 949.14 1867.38 952.72C1867 956 1867 956 1865 959C1864.46 961.04 1863.99 963.1 1863.56 965.17C1863.44 965.78 1863.44 965.78 1862.79 968.88C1862.53 970.15 1862.27 971.43 1862 972.75C1861.48 975.27 1860.96 977.78 1860.44 980.3C1860.21 981.41 1859.98 982.53 1859.75 983.68C1859 987 1859 987 1857.89 990.67C1856.87 994.48 1857.22 997.17 1858 1001C1857.68 1001.15 1857.68 1001.15 1856.08 1001.93C1852.84 1005.16 1853.08 1008.77 1852.75 1013.19C1852.67 1014.03 1852.6 1014.88 1852.52 1015.75C1852.33 1017.83 1852.16 1019.92 1852 1022C1853.98 1022.33 1855.96 1022.66 1858 1023C1857.67 1023.66 1857.34 1024.32 1857 1025C1855.02 1025.33 1853.04 1025.66 1851 1026C1850.34 1032.93 1849.68 1039.86 1849 1047C1850.32 1047 1851.64 1047 1853 1047C1852.67 1047.99 1852.34 1048.98 1852 1050C1851.34 1050 1850.68 1050 1850 1050C1850.31 1051.44 1850.62 1052.88 1850.94 1054.31C1851.11 1055.11 1851.29 1055.91 1851.47 1056.74C1852 1059 1852 1059 1853 1062C1854.79 1063 1854.79 1063 1857 1064C1859.26 1065.48 1861.47 1067.02 1863.68 1068.56C1866.05 1070.03 1868.39 1071.04 1871 1072C1870.67 1072.49 1870.34 1072.99 1870 1073.5C1868.56 1077.09 1868.87 1080.15 1869 1084C1864.49 1083.5 1861.72 1082.49 1858.06 1079.81C1857.64 1079.5 1857.64 1079.5 1855.48 1077.92C1852.21 1075.39 1849.09 1072.75 1846 1070C1846.25 1069.79 1846.25 1069.79 1847.49 1068.7C1849 1067 1849 1067 1849.19 1063.81C1849.13 1062.88 1849.06 1061.96 1849 1061C1843.25 1060.88 1843.25 1060.88 1841 1062C1837.74 1052.59 1837.74 1052.59 1837 1048C1837.57 1047.89 1838.13 1047.78 1838.72 1047.67C1839.45 1047.51 1840.18 1047.35 1840.94 1047.19C1841.3 1047.11 1841.3 1047.11 1843.15 1046.73C1843.46 1046.61 1843.46 1046.61 1845 1046C1846.06 1042.82 1846.12 1040.57 1846.1 1037.24C1846.09 1036.12 1846.09 1035 1846.09 1033.85C1846.08 1032.68 1846.07 1031.51 1846.06 1030.31C1846.06 1029.13 1846.05 1027.96 1846.05 1026.74C1846.04 1023.83 1846.02 1020.91 1846 1018C1844.02 1018 1842.04 1018 1840 1018C1839.95 1019.27 1839.9 1020.53 1839.85 1021.83C1839.78 1023.49 1839.7 1025.15 1839.63 1026.81C1839.59 1027.65 1839.56 1028.48 1839.53 1029.34C1839.49 1030.14 1839.45 1030.94 1839.41 1031.77C1839.38 1032.51 1839.35 1033.25 1839.32 1034.01C1839 1036 1839 1036 1837 1039C1837 1034.38 1837 1029.76 1837 1025C1820.98 1024.82 1805.01 1025.38 1789 1026C1789.17 1025.71 1789.17 1025.71 1790.02 1024.21C1792.32 1020.15 1794.46 1016.23 1796 1011.81C1797.19 1008.69 1798.34 1006.31 1800.56 1003.81C1803.25 1000.71 1804.46 997.78 1806 994C1806.5 993.42 1807 992.84 1807.51 992.24C1809.56 989.16 1809.71 986.47 1810.19 982.81C1811.33 975.22 1813.43 968.15 1815.88 960.88C1819.29 950.67 1821.87 940.48 1823.99 929.93C1824.16 929.1 1824.33 928.26 1824.51 927.4C1824.83 925.84 1825.14 924.28 1825.44 922.72C1826.4 918.14 1827.78 916.22 1831 913C1831.83 909.55 1831.83 909.55 1832.25 905.75C1832.4 904.49 1832.55 903.22 1832.7 901.92C1832.8 900.96 1832.9 899.99 1833 899ZM1829 921C1827.45 922.55 1827.52 924.28 1827.17 926.42C1827.01 927.34 1826.85 928.26 1826.69 929.2C1826.53 930.19 1826.36 931.17 1826.19 932.19C1824.82 940.02 1823.19 947.57 1820.86 955.18C1820.17 957.45 1819.58 959.69 1819.06 962C1817.87 967.06 1815.87 971.88 1814.02 976.73C1812.39 981.94 1812.39 981.94 1813 985C1815.08 986.66 1815.08 986.66 1817.81 988.06C1822.75 990.63 1822.75 990.63 1824.51 993.18C1826 995 1826 995 1828.44 995.41C1834.07 994.51 1838.45 990.04 1841.81 985.63C1848.83 974.66 1849.36 960.4 1846.79 947.84C1844.06 938.07 1839.85 926.74 1831 921C1830.34 921 1829.68 921 1829 921ZM1806 997C1806.33 998.32 1806.66 999.64 1807 1001C1807.66 1001 1808.32 1001 1809 1001C1809 999.68 1809 998.36 1809 997C1808.01 997 1807.02 997 1806 997ZM1834.13 1004.81C1833.69 1005.07 1833.69 1005.07 1831.51 1006.4C1829 1008 1829 1008 1826.82 1009.7C1825 1011 1825 1011 1822.75 1011C1820.18 1010.07 1818.39 1009 1816.13 1007.5C1812.41 1005.1 1809.53 1003.91 1805 1004C1799.89 1006.68 1797.23 1011.84 1795 1017C1795 1017.99 1795 1018.98 1795 1020C1800.62 1019.91 1806.25 1019.8 1811.87 1019.68C1813.78 1019.64 1815.7 1019.61 1817.61 1019.58C1820.36 1019.53 1823.11 1019.47 1825.86 1019.41C1826.71 1019.4 1827.57 1019.39 1828.45 1019.38C1829.25 1019.36 1830.05 1019.34 1830.87 1019.32C1831.23 1019.31 1831.23 1019.31 1833 1019.28C1835.36 1018.95 1836.98 1018.26 1839 1017C1839.83 1014.79 1839.83 1014.79 1840.25 1012.19C1840.4 1011.34 1840.55 1010.48 1840.7 1009.61C1841 1007.04 1841.06 1004.58 1841 1002C1838.13 1002 1836.56 1003.33 1834.13 1004.81Z" fill="#111111" fill-rule="evenodd"/>
      <path d="M1816 919C1816.33 919 1816.66 919 1817 919C1817 920.98 1817 922.96 1817 925C1816.67 925 1816.34 925 1816 925C1816 923.02 1816 921.04 1816 919Z" fill="#111111" fill-rule="evenodd"/>
      <path d="M1675 937C1675.33 937 1675.66 937 1676 937C1676 940.63 1676 944.26 1676 948C1675.67 948 1675.34 948 1675 948C1675 944.37 1675 940.74 1675 937Z" fill="#111111" fill-rule="evenodd"/>
      <path d="M1803 965C1803.66 965 1804.32 965 1805 965C1804.67 966.98 1804.34 968.96 1804 971C1803.67 971 1803.34 971 1803 971C1803 969.02 1803 967.04 1803 965Z" fill="#111111" fill-rule="evenodd"/>
      <path d="M1802 972C1802.33 972 1802.66 972 1803 972C1802.94 974.06 1802.85 976.13 1802.75 978.19C1802.73 978.76 1802.73 978.76 1802.61 981.67C1801.9 985.54 1800.56 987.09 1798 990C1797.06 992.17 1797.06 992.17 1796.44 994.19C1795.4 997.57 1795.18 997.88 1792 1000C1792.61 996.55 1793.49 993.48 1794.81 990.24C1795.17 989.37 1795.52 988.5 1795.88 987.6C1796.25 986.7 1796.62 985.8 1797 984.88C1797.73 983.08 1798.46 981.29 1799.19 979.49C1799.51 978.7 1799.84 977.91 1800.17 977.1C1800.83 975.42 1801.43 973.71 1802 972Z" fill="#111111" fill-rule="evenodd"/>
      <path d="M1739 975C1739.33 975.99 1739.66 976.98 1740 978C1739.34 978.99 1738.68 979.98 1738 981C1737.96 979.33 1737.96 977.67 1738 976C1738.33 975.67 1738.66 975.34 1739 975Z" fill="#111111" fill-rule="evenodd"/>
      <path d="M1777 1022C1777.66 1022.33 1778.32 1022.66 1779 1023C1777.02 1024.98 1775.04 1026.96 1773 1029C1772.34 1028.67 1771.68 1028.34 1771 1028C1772.98 1026.02 1774.96 1024.04 1777 1022Z" fill="#111111" fill-rule="evenodd"/>
      <path d="M1895 1030C1895.33 1030 1895.66 1030 1896 1030C1895.46 1035.28 1894.23 1039.26 1892 1044C1890.63 1040.31 1891.4 1038.29 1892.94 1034.75C1893.32 1033.86 1893.7 1032.97 1894.09 1032.05C1894.39 1031.37 1894.69 1030.7 1895 1030Z" fill="#111111" fill-rule="evenodd"/>
      <path d="M1580 1037C1584.58 1037.63 1588.37 1039.47 1592.44 1041.56C1593.13 1041.92 1593.83 1042.27 1594.54 1042.63C1614.41 1052.81 1614.41 1052.81 1616 1056C1610.09 1053.73 1604.48 1050.85 1598.83 1048.03C1596.88 1047.06 1594.93 1046.1 1592.97 1045.14C1591.73 1044.52 1590.49 1043.91 1589.24 1043.29C1588.12 1042.73 1586.99 1042.17 1585.83 1041.59C1583.41 1040.23 1581.79 1039.09 1580 1037Z" fill="#111111" fill-rule="evenodd"/>
      <path d="M1563 1044C1563.33 1044 1563.66 1044 1564 1044C1564.65 1047.33 1565.29 1050.67 1565.94 1054C1566.12 1054.94 1566.3 1055.87 1566.49 1056.83C1568.29 1066.2 1569.14 1074.94 1569.06 1084.5C1569.06 1085.51 1569.05 1086.53 1569.05 1087.57C1569.04 1090.05 1569.02 1092.52 1569 1095C1568.67 1095 1568.34 1095 1568 1095C1567.96 1094.34 1567.91 1093.67 1567.86 1092.99C1567.05 1081.19 1566.23 1069.46 1563.97 1057.84C1563.07 1053.12 1562.88 1048.78 1563 1044Z" fill="#111111" fill-rule="evenodd"/>
      <path d="M1618 1045C1618.83 1045.33 1618.83 1045.33 1623 1047C1622.67 1047.17 1622.67 1047.17 1621 1048C1620.01 1047.01 1619.02 1046.02 1618 1045Z" fill="#111111" fill-rule="evenodd"/>
      <path d="M1887 1052C1887.33 1052.66 1887.66 1053.32 1888 1054C1887.01 1055.32 1886.02 1056.64 1885 1058C1885.88 1053.13 1885.88 1053.13 1887 1052Z" fill="#111111" fill-rule="evenodd"/>
      <path d="M1739 1054C1739.66 1054 1740.32 1054 1741 1054C1741 1054.66 1741 1055.32 1741 1056C1741.54 1056.23 1742.07 1056.45 1742.63 1056.69C1745.79 1058.43 1748.27 1060.64 1751 1063C1747.23 1063 1746.23 1061.93 1743.31 1059.63C1742.91 1059.31 1742.91 1059.31 1740.86 1057.73C1740.25 1057.16 1739.63 1056.59 1739 1056C1739 1055.34 1739 1054.68 1739 1054Z" fill="#111111" fill-rule="evenodd"/>
      <path d="M1616 1056C1616.83 1056.33 1616.83 1056.33 1621 1058C1620.67 1058.17 1620.67 1058.17 1619 1059C1618.01 1058.01 1617.02 1057.02 1616 1056Z" fill="#111111" fill-rule="evenodd"/>
      <path d="M1637 1057C1641.77 1058.57 1645.31 1061.24 1649.25 1064.25C1649.94 1064.78 1650.64 1065.3 1651.35 1065.84C1694.78 1099.04 1694.78 1099.04 1702 1114C1695.28 1108.43 1689.23 1102.29 1683.12 1096.08C1678.25 1091.16 1673.29 1086.46 1668 1082C1667.34 1081.44 1666.69 1080.88 1666.01 1080.31C1663.97 1078.59 1661.93 1076.89 1659.88 1075.19C1659.51 1074.89 1659.51 1074.89 1657.67 1073.37C1652.32 1068.98 1646.82 1064.86 1641.12 1060.93C1639.73 1059.97 1638.36 1058.99 1637 1058C1637 1057.67 1637 1057.34 1637 1057Z" fill="#111111" fill-rule="evenodd"/>
      <path d="M1892 1065C1892.66 1065.66 1893.32 1066.32 1894 1067C1892.78 1068.76 1891.55 1070.51 1890.31 1072.25C1889.63 1073.22 1888.94 1074.2 1888.24 1075.2C1886.02 1077.98 1883.94 1080.01 1881 1082C1880.01 1082 1879.02 1082 1878 1082C1878 1081.01 1878 1080.02 1878 1079C1879.54 1077.93 1879.54 1077.93 1881.63 1076.88C1886.65 1073.97 1889.15 1069.95 1892 1065Z" fill="#111111" fill-rule="evenodd"/>
      <path d="M1765 1075C1765.33 1075.66 1765.66 1076.32 1766 1077C1766.54 1077.27 1767.09 1077.54 1767.65 1077.81C1770.94 1079.47 1773.73 1081.74 1776.63 1084C1777.21 1084.45 1777.8 1084.9 1778.4 1085.37C1780.71 1087.16 1782.93 1088.93 1785 1091C1777.41 1090.05 1770.61 1084.26 1765.81 1078.5C1765.21 1077.68 1764.62 1076.85 1764 1076C1764.33 1075.67 1764.66 1075.34 1765 1075Z" fill="#111111" fill-rule="evenodd"/>
      <path d="M1660 1088C1663.16 1089.37 1663.99 1089.99 1666 1093C1662.84 1091.63 1662.01 1091.01 1660 1088Z" fill="#111111" fill-rule="evenodd"/>
      <path d="M1792 1096C1795.99 1097.72 1799.24 1100.39 1802.63 1103.06C1808.76 1107.88 1808.76 1107.88 1811 1109C1811 1109.66 1811 1110.32 1811 1111C1803.3 1109.08 1797.19 1103.84 1792 1098C1792 1097.34 1792 1096.68 1792 1096Z" fill="#111111" fill-rule="evenodd"/>
      <path d="M1670 1097C1675.3 1099.25 1678.89 1103.56 1682.89 1107.57C1684.29 1108.98 1685.7 1110.37 1687.12 1111.75C1692.8 1117.44 1697.66 1123.23 1702 1130C1701.67 1130.66 1701.34 1131.32 1701 1132C1700.7 1131.63 1700.7 1131.63 1699.17 1129.73C1698.37 1128.75 1697.57 1127.77 1696.75 1126.75C1695.96 1125.78 1695.17 1124.8 1694.36 1123.8C1692 1121 1692 1121 1689.7 1118.77C1688 1117 1688 1117 1688 1115C1687.34 1115 1686.68 1115 1686 1115C1684.59 1113.57 1684.59 1113.57 1682.94 1111.56C1679.41 1107.4 1675.63 1103.59 1671.72 1099.79C1670 1098 1670 1098 1670 1097Z" fill="#111111" fill-rule="evenodd"/>
      <path d="M1794 1113C1796.65 1113.98 1799.02 1115.01 1801.44 1116.5C1804 1118 1804 1118 1807.06 1118.81C1810 1120 1810 1120 1811.7 1122.72C1814.27 1126.78 1817.8 1129.07 1821.75 1131.69C1822.43 1132.16 1823.11 1132.63 1823.81 1133.12C1827.2 1135.42 1830.37 1137.24 1834.27 1138.57C1838.04 1140.01 1839.55 1141.07 1842 1144.19C1842.58 1144.9 1843.16 1145.62 1843.75 1146.36C1844.16 1146.9 1844.58 1147.44 1845 1148C1841.37 1148 1840.22 1147.08 1837.2 1145.11C1836.25 1144.48 1835.3 1143.86 1834.32 1143.22C1833.31 1142.55 1832.29 1141.88 1831.25 1141.19C1830.22 1140.51 1829.18 1139.82 1828.11 1139.12C1816.41 1131.36 1804.56 1123.3 1794 1114C1794 1113.67 1794 1113.34 1794 1113Z" fill="#111111" fill-rule="evenodd"/>
      <path d="M1819 1117C1823.73 1118.57 1827.34 1121.21 1831.31 1124.13C1831.96 1124.59 1832.6 1125.06 1833.27 1125.54C1834.85 1126.69 1836.43 1127.85 1838 1129C1835 1130 1835 1130 1833.19 1129.14C1832.54 1128.68 1831.88 1128.23 1831.21 1127.76C1830.5 1127.27 1829.78 1126.78 1829.05 1126.28C1828.31 1125.75 1827.57 1125.23 1826.81 1124.69C1826.06 1124.18 1825.31 1123.66 1824.54 1123.14C1820.46 1120.29 1820.46 1120.29 1819 1119C1819 1118.34 1819 1117.68 1819 1117Z" fill="#111111" fill-rule="evenodd"/>
      <path d="M1705 1136C1709.3 1139.01 1711.31 1141.88 1713.63 1146.57C1713.95 1147.2 1714.26 1147.84 1714.59 1148.49C1715.25 1149.83 1715.91 1151.17 1716.57 1152.52C1717.55 1154.54 1718.55 1156.55 1719.56 1158.56C1729.68 1178.96 1729.68 1178.96 1729.25 1187.19C1729.21 1188.11 1729.18 1189.03 1729.14 1189.98C1729.12 1190.31 1729.12 1190.31 1729 1192C1728.67 1192 1728.34 1192 1728 1192C1727.88 1191.49 1727.88 1191.49 1727.27 1188.89C1723.11 1171.56 1716.66 1156.01 1707.13 1140.92C1706 1139 1706 1139 1705 1136Z" fill="#111111" fill-rule="evenodd"/>
      <path d="M1847 1136C1847.63 1136.41 1848.26 1136.83 1848.91 1137.25C1856.46 1142.12 1864.18 1146.6 1872 1151C1869.32 1152.05 1868.24 1152.1 1865.52 1151.03C1848.87 1141.61 1848.87 1141.61 1847 1136Z" fill="#111111" fill-rule="evenodd"/>
    </g>
</svg>
