<?xml version="1.0" encoding="UTF-8"?>
<svg xmlns="http://www.w3.org/2000/svg" xmlns:inkscape="http://www.inkscape.org/namespaces/inkscape"
     viewBox="0 0 1400 1098" width="1400" height="1098">
<g id="layer-foam_midsole" inkscape:label="Foam midsole" data-z="2" data-kind="component" data-regions="7" data-strokes="8">
      <path d="M526.17 702.69C529.02 702.69 531.87 702.68 534.72 702.68C566.98 702.63 598.97 703.81 631.06 707.31C632.07 707.42 633.07 707.53 634.1 707.64C679.05 712.46 722.68 720.48 765.06 736.63C765.76 736.89 766.46 737.16 767.19 737.43C771.83 739.2 776.43 741.05 781 743C781.33 743.14 781.33 743.14 783 743.85C784.95 744.69 786.88 745.57 788.81 746.46C789.37 746.72 789.37 746.72 792.2 748.01C797.8 751.99 798.69 759.12 800.19 765.49C800.58 767.1 800.97 768.71 801.36 770.31C801.97 772.83 802.57 775.34 803.17 777.85C803.75 780.3 804.35 782.74 804.94 785.18C805.12 785.93 805.3 786.69 805.48 787.46C806.77 792.77 806.77 792.77 809 795C811.16 795.2 811.16 795.2 813.62 795.13C814.44 795.11 815.26 795.09 816.1 795.07C816.73 795.05 817.35 795.02 818 795C817.29 786.44 815.36 778.38 812.81 770.19C811.92 766.69 811.85 763.6 812 760C816.73 759.7 819.58 760.44 823.75 762.64C824.84 763.21 825.94 763.78 827.06 764.37C828.22 764.99 829.37 765.61 830.56 766.25C831.77 766.89 832.98 767.53 834.19 768.17C849.76 776.43 865.1 785.11 879.92 794.67C882.26 796.17 884.62 797.64 886.99 799.11C888.66 800.18 890.33 801.24 892 802.31C892.8 802.8 893.59 803.3 894.41 803.8C896.42 805.11 898.27 806.34 900 808C900.56 810.79 900.56 810.79 900 813C898.51 814.49 897.05 814.4 894.98 814.72C894.1 814.85 893.22 814.99 892.32 815.13C891.33 815.28 890.35 815.42 889.34 815.57C888.29 815.73 887.24 815.89 886.16 816.06C882.57 816.61 878.97 817.15 875.37 817.69C873.44 817.98 871.5 818.27 869.57 818.57C859.71 820.06 849.86 821.53 840 823C839.13 823.13 838.26 823.26 837.36 823.39C741.47 837.69 645.5 851.5 296.44 885.13C295.44 885.13 294.44 885.13 293.41 885.14C287.52 885.13 281.83 884.76 276 884C276 882.35 276 880.7 276 879C276.59 878.67 277.17 878.35 277.78 878.01C291.14 870.57 304.29 862.88 317.24 854.73C320.19 852.88 323.16 851.04 326.12 849.2C374.19 819.36 374.19 819.36 377.81 809.88C378.3 804.95 377.76 802.09 375 798C373.06 795.94 371.03 793.98 369 792C369 791.34 369 790.68 369 790C368.01 790 367.02 790 366 790C366 789.34 366 788.68 366 788C365.01 788 364.02 788 363 788C363 787.34 363 786.68 363 786C362.01 786 361.02 786 360 786C360 785.01 360 784.02 360 783C357.69 782.67 355.38 782.34 353 782C353 781.34 353 780.68 353 780C352.01 780 351.02 780 350 780C350 779.34 350 778.68 350 778C349.01 778 348.02 778 347 778C347 777.34 347 776.68 347 776C346.3 775.91 345.59 775.82 344.87 775.73C335.4 773.33 326.67 765.09 321.06 757.31C319.16 751.39 318.67 745.3 321.03 739.43C324.55 733.66 329.17 730.25 335 727C335.72 726.59 336.44 726.17 337.18 725.75C340.89 723.74 343.67 722.46 348 723C348 724.65 348 726.3 348 728C347.28 728.35 346.55 728.7 345.8 729.07C338.48 732.81 333.67 736.36 329.56 743.5C328.52 748.15 329.36 751.74 331.5 755.94C335.79 761.19 340.84 765.73 346.56 769.38C347.37 769.91 348.17 770.45 349 771C349 771.66 349 772.32 349 773C349.99 773 350.98 773 352 773C352 773.66 352 774.32 352 775C352.99 775 353.98 775 355 775C355 775.66 355 776.32 355 777C356.65 777.33 358.3 777.66 360 778C360 778.99 360 779.98 360 781C361.65 781 363.3 781 365 781C365 781.66 365 782.32 365 783C365.99 783 366.98 783 368 783C368 783.66 368 784.32 368 785C368.99 785 369.98 785 371 785C371 785.66 371 786.32 371 787C371.28 787.04 371.28 787.04 372.71 787.26C375.66 788.21 377.33 789.74 379.62 791.81C380.4 792.5 381.18 793.19 381.98 793.89C385.84 797.92 386.37 801.14 386.56 806.69C386.42 812.76 385.63 816.22 381.53 820.71C376.49 825.27 371.18 829.47 365.79 833.61C363.14 835.67 360.57 837.83 358 840C385.99 820.86 385.99 820.86 390 811C390.94 804.28 388.68 798.96 384.69 793.63C379.78 788.22 373.17 784.77 367 781C335.86 761.78 335.86 761.78 332 752C331.3 747.51 331.56 743.94 333.5 739.81C358.98 711.15 418.62 713.73 453.37 711.43C455.91 711.28 458.45 711.14 461 711C461.4 710.98 461.4 710.98 463.43 710.87C480.19 709.98 496.95 709.84 513.73 709.87C517.32 709.88 520.91 709.87 524.49 709.87C549.45 709.83 574.42 710.18 599.31 712C600.52 712.08 601.73 712.17 602.97 712.25C609.66 712.72 616.33 713.28 623 714C622.1 713.91 621.21 713.83 620.29 713.74C616.86 713.41 613.43 713.09 610 712.77C608.54 712.64 607.07 712.5 605.61 712.36C586.59 710.54 567.63 709.84 548.53 709.83C546.52 709.83 544.5 709.83 542.49 709.82C538.28 709.82 534.08 709.81 529.88 709.81C525.65 709.81 521.43 709.81 517.21 709.79C484.92 709.69 452.89 710.42 420.74 713.63C415.82 714.08 410.93 714.08 406 714C406 712.35 406 710.7 406 709C445.81 703.32 486.02 702.71 526.17 702.69ZM641 716C641 716.33 641 716.66 641 717C643.31 717 645.62 717 648 717C648 716.67 648 716.34 648 716C645.69 716 643.38 716 641 716ZM648 717C648 717.33 648 717.66 648 718C650.31 718 652.62 718 655 718C655 717.67 655 717.34 655 717C652.69 717 650.38 717 648 717ZM656 718C656 718.33 656 718.66 656 719C657.65 719 659.3 719 661 719C661 718.67 661 718.34 661 718C659.35 718 657.7 718 656 718ZM691 759C691 759.33 691 759.66 691 760C691.62 760.02 691.62 760.02 694.77 760.11C708.78 760.63 721.41 761.41 731.81 771.81C736.76 779.02 738.15 785.76 736.57 794.36C734.7 801.26 731.07 804.53 725.11 808.15C711.07 815.29 692.1 815.4 676.76 817.36C673.18 817.82 669.6 818.28 666.03 818.74C661.06 819.38 656.1 820.02 651.14 820.66C636.45 822.55 621.76 824.47 607.07 826.39C597.62 827.62 588.17 828.85 578.72 830.09C571.43 831.04 564.14 831.99 556.85 832.95C502.6 840.05 502.6 840.05 482.66 842.31C481.16 842.48 479.65 842.66 478.15 842.84C464.77 844.42 451.34 845.28 439.71 837.46C434.94 833.66 431.98 830.09 431 824C430.05 813.07 430.89 805.96 437.75 797.5C438.49 796.68 439.23 795.85 440 795C434.37 796.32 431.91 800.35 429 805C426.14 810.85 426.05 817.98 427.53 824.28C429.06 828.62 431.18 832.37 434 836C434.66 836 435.32 836 436 836C436 836.66 436 837.32 436 838C438.25 839.15 440.5 840.3 442.75 841.44C443.38 841.76 444.02 842.09 444.67 842.42C460.86 850.6 482.58 845.17 499.79 843.01C502.64 842.65 505.49 842.31 508.34 841.96C518.9 840.67 529.45 839.34 540 838C540.9 837.89 541.8 837.77 542.72 837.66C570.99 834.07 599.25 830.42 627.51 826.72C631.95 826.14 636.39 825.56 640.83 824.98C649.49 823.85 658.14 822.71 666.79 821.56C669.59 821.19 672.38 820.83 675.18 820.46C687.3 818.88 699.41 817.27 711.42 814.92C712.21 814.77 713 814.61 713.81 814.45C724.6 812.23 732.72 807.17 739 798C741.47 792.02 741.91 786.23 739.87 780.06C736.38 771.63 730.68 765.44 722.31 761.84C711.89 758.04 701.92 757.43 691 759ZM664.94 762C663.39 762.19 661.84 762.39 660.29 762.58C656.53 763.05 652.76 763.52 649 764C649 764.33 649 764.66 649 765C657.79 765.32 666.37 764.11 675.06 763C676.61 762.81 678.16 762.61 679.71 762.42C683.47 761.95 687.24 761.48 691 761C691 760.67 691 760.34 691 760C682.21 759.68 673.63 760.89 664.94 762ZM642 765C642 765.33 642 765.66 642 766C644.31 766 646.62 766 649 766C649 765.67 649 765.34 649 765C646.69 765 644.38 765 642 765ZM634 766C634 766.33 634 766.66 634 767C636.64 767 639.28 767 642 767C642 766.67 642 766.34 642 766C639.36 766 636.72 766 634 766ZM626 767C626 767.33 626 767.66 626 768C628.64 768 631.28 768 634 768C634 767.67 634 767.34 634 767C631.36 767 628.72 767 626 767ZM667.12 769.27C665.22 769.52 663.32 769.76 661.42 770C657.38 770.51 653.34 771.03 649.3 771.56C642.91 772.39 636.51 773.2 630.12 774.02C627.94 774.3 625.76 774.57 623.58 774.85C622.5 774.99 621.41 775.13 620.3 775.27C616.99 775.69 613.69 776.11 610.39 776.53C590.97 779.02 571.53 781.4 552.1 783.75C543.72 784.76 535.34 785.79 526.96 786.81C526.18 786.9 525.4 787 524.59 787.1C523.82 787.19 523.05 787.29 522.25 787.38C521.49 787.48 520.73 787.57 519.95 787.66C518.45 787.85 516.95 788.03 515.45 788.21C511.95 788.64 508.45 789.07 504.95 789.49C497.97 790.34 490.98 791.2 483.99 792.07C482.04 792.31 480.09 792.55 478.14 792.78C452.66 795.86 452.66 795.86 444 803C440.03 808.08 438.57 812.23 438.66 818.59C439.46 824.27 442.94 828.45 447.37 831.88C459.87 839.84 476.81 835.22 490.6 833.46C492.79 833.19 494.98 832.92 497.16 832.65C503.09 831.91 509 831.16 514.92 830.41C518.63 829.94 522.33 829.47 526.04 829C563.99 824.23 601.92 819.31 639.84 814.3C643.55 813.81 647.25 813.33 650.96 812.84C656.8 812.07 662.65 811.3 668.49 810.52C670.63 810.23 672.76 809.95 674.9 809.67C711.82 804.81 711.82 804.81 719.87 796.13C722.63 792.07 724.35 788.82 723.73 783.8C722.07 777.47 718.51 773.43 713 770C707.34 767.55 702.88 766.53 696.74 766.67C695.97 766.68 695.19 766.69 694.39 766.7C685.23 766.91 676.2 768.07 667.12 769.27ZM619 768C619 768.33 619 768.66 619 769C621.31 769 623.62 769 626 769C626 768.67 626 768.34 626 768C623.69 768 621.38 768 619 768ZM611 769C611 769.33 611 769.66 611 770C613.31 770 615.62 770 618 770C618 769.67 618 769.34 618 769C615.69 769 613.38 769 611 769ZM603 770C603 770.33 603 770.66 603 771C605.31 771 607.62 771 610 771C610 770.67 610 770.34 610 770C607.69 770 605.38 770 603 770ZM594 771C594 771.33 594 771.66 594 772C596.97 772 599.94 772 603 772C603 771.67 603 771.34 603 771C600.03 771 597.06 771 594 771ZM587 772C587 772.33 587 772.66 587 773C589.31 773 591.62 773 594 773C594 772.67 594 772.34 594 772C591.69 772 589.38 772 587 772ZM579 773C579 773.33 579 773.66 579 774C581.64 774 584.28 774 587 774C587 773.67 587 773.34 587 773C584.36 773 581.72 773 579 773ZM571 774C571 774.33 571 774.66 571 775C573.64 775 576.28 775 579 775C579 774.67 579 774.34 579 774C576.36 774 573.72 774 571 774ZM548.37 776.5C547.28 776.64 546.18 776.79 545.04 776.93C542.36 777.28 539.68 777.64 537 778C537 778.33 537 778.66 537 779C544.47 779.19 551.65 778.45 559.06 777.5C560.21 777.36 561.37 777.21 562.55 777.07C565.37 776.72 568.18 776.36 571 776C571 775.67 571 775.34 571 775C563.33 774.77 555.97 775.48 548.37 776.5ZM528 779C528 779.33 528 779.66 528 780C530.97 780 533.94 780 537 780C537 779.67 537 779.34 537 779C534.03 779 531.06 779 528 779ZM520 780C520 780.33 520 780.66 520 781C522.64 781 525.28 781 528 781C528 780.67 528 780.34 528 780C525.36 780 522.72 780 520 780ZM512 781C512 781.33 512 781.66 512 782C514.64 782 517.28 782 520 782C520 781.67 520 781.34 520 781C517.36 781 514.72 781 512 781ZM505 782C505 782.33 505 782.66 505 783C507.31 783 509.62 783 512 783C512 782.67 512 782.34 512 782C509.69 782 507.38 782 505 782ZM496 783C496 783.33 496 783.66 496 784C498.31 784 500.62 784 503 784C503 783.67 503 783.34 503 783C500.69 783 498.38 783 496 783ZM488 784C488 784.33 488 784.66 488 785C490.31 785 492.62 785 495 785C495 784.67 495 784.34 495 784C492.69 784 490.38 784 488 784ZM478 785C478 785.33 478 785.66 478 786C480.97 786 483.94 786 487 786C487 785.67 487 785.34 487 785C484.03 785 481.06 785 478 785ZM462 787C462 787.33 462 787.66 462 788C464.64 787.84 464.64 787.84 478 787C478 786.67 478 786.34 478 786C472.54 785.89 467.38 786.08 462 787ZM456 788C456 788.33 456 788.66 456 789C457.98 789 459.96 789 462 789C462 788.67 462 788.34 462 788C460.02 788 458.04 788 456 788ZM443 792C442.01 792.99 441.02 793.98 440 795C441.98 794.34 443.96 793.68 446 793C445.01 792.67 444.02 792.34 443 792Z" fill="#ffffff" fill-rule="evenodd"/>
      <path d="M336 720C336.28 722.33 336.28 722.33 336 725C334.09 726.48 334.09 726.48 331.5 727.75C324.82 731.43 319.92 736.24 316.44 743.06C315.5 749.38 316.35 753.5 319.69 758.88C327.91 769.72 341.27 776.02 352.71 782.88C371.49 794.24 371.49 794.24 374 801C374.8 805.56 375.05 810 372.86 814.18C363.99 824.92 350.45 832.04 338.76 839.29C334.72 841.8 330.68 844.32 326.64 846.85C324.61 848.12 322.57 849.39 320.54 850.66C315.79 853.62 311.07 856.6 306.36 859.61C300.77 863.18 295.05 866.51 289.28 869.77C285.41 871.98 281.63 874.2 277.97 876.74C269.98 882.22 264.09 884.2 254.26 882.41C251.7 881.95 249.14 881.58 246.56 881.22C215.41 876.64 184.95 867.63 157 853C155.85 852.43 154.69 851.86 153.5 851.27C148.47 848.52 145.58 846.39 143.81 840.81C142.41 833.21 142.72 825.72 143.5 818.07C145.12 800.54 145.86 781.78 140 765C139.07 762.19 138.16 759.38 137.25 756.56C137.03 755.89 136.82 755.22 136.59 754.53C134.55 747.98 133.77 743 136.44 736.5C138 734 138 734 139 733C140.89 732.89 142.78 732.84 144.67 732.82C165.45 732.46 184.43 729.46 204.61 724.5C213.61 722.3 222.63 720.26 231.68 718.28C233.29 717.93 234.89 717.58 236.48 717.23C268.83 710.07 304.73 706.52 336 720Z" fill="#ffffff" fill-rule="evenodd"/>
      <path d="M1156 764C1156 765.65 1156 767.3 1156 769C1149.12 772.43 1142.04 775.2 1134.81 777.81C1133.97 778.13 1133.13 778.44 1132.26 778.76C1126.93 780.65 1122.65 781.33 1117 781C1117 779.35 1117 777.7 1117 776C1124.35 772.96 1131.78 770.28 1139.31 767.75C1140.37 767.39 1141.43 767.02 1142.52 766.65C1143.54 766.31 1144.56 765.96 1145.61 765.61C1146.53 765.3 1147.45 764.99 1148.39 764.67C1151.04 763.99 1153.28 763.87 1156 764Z" fill="#ffffff" fill-rule="evenodd"/>
      <path d="M698.45 768.53C699.26 768.52 700.07 768.51 700.9 768.51C706.51 768.61 710.71 769.89 714.86 773.72C715.34 774.31 715.82 774.89 716.31 775.5C716.8 776.09 717.3 776.68 717.8 777.28C720.49 781.13 720.6 785.48 720 790C718.22 794.79 715.38 798.39 711 801C703.98 803.33 696.86 804.64 689.54 805.59C688.52 805.72 687.5 805.86 686.44 806C682.99 806.47 679.52 806.92 676.06 807.38C673.52 807.71 670.98 808.05 668.44 808.39C661.01 809.38 653.59 810.35 646.16 811.32C641.63 811.92 637.09 812.51 632.56 813.11C588.8 818.86 545.03 824.56 501.23 830.02C498.9 830.31 496.57 830.6 494.23 830.9C490.63 831.35 487.02 831.8 483.42 832.24C481.51 832.48 479.61 832.72 477.71 832.96C457.58 835.41 457.58 835.41 448 830C443.77 825.87 442.16 821.97 441.69 816.13C441.88 811.04 442.95 807 446.71 803.34C459.29 793.84 479.65 794.4 494.71 792.59C497.37 792.27 500.02 791.95 502.68 791.62C509.05 790.84 515.42 790.07 521.78 789.3C533.57 787.87 545.35 786.43 557.14 785C560.83 784.55 564.53 784.1 568.23 783.65C586.25 781.45 604.27 779.22 622.28 776.91C625.39 776.51 628.5 776.11 631.61 775.71C633.59 775.46 635.58 775.2 637.56 774.95C638.51 774.83 639.46 774.7 640.45 774.58C645.04 773.99 649.63 773.39 654.22 772.79C685.81 768.62 685.81 768.62 698.45 768.53Z" fill="#ffffff" fill-rule="evenodd"/>
      <path d="M1060 790C1059.69 793.38 1059.69 793.38 1059 797C1056.3 798.8 1055.13 799.35 1052.1 799.96C1051.71 800.04 1051.71 800.04 1049.74 800.45C1048.9 800.61 1048.06 800.78 1047.2 800.95C1046.32 801.12 1045.45 801.3 1044.54 801.48C1042.69 801.84 1040.83 802.21 1038.97 802.57C1036.17 803.12 1033.37 803.69 1030.57 804.25C1010.55 808.24 1010.55 808.24 1002 807C1000 805 1000 805 999.88 802.38C999.92 801.59 999.96 800.81 1000 800C1005.45 798.33 1010.86 797.24 1016.48 796.31C1016.92 796.23 1016.92 796.23 1019.17 795.85C1021.99 795.38 1024.81 794.91 1027.63 794.44C1030.45 793.96 1033.28 793.49 1036.1 793.01C1037.86 792.72 1039.61 792.42 1041.36 792.13C1044.53 791.6 1047.69 791.07 1050.84 790.41C1053.9 789.83 1056.89 789.94 1060 790Z" fill="#ffffff" fill-rule="evenodd"/>
      <path d="M836 826C836 827.65 836 829.3 836 831C835.51 831.17 835.51 831.17 833 832C832.77 832.97 832.55 833.94 832.31 834.94C832.1 835.44 832.1 835.44 831 838C828.15 839.01 825.93 839.59 823 840C821.91 840.21 820.81 840.41 819.69 840.63C814.78 841.12 809.93 841.08 805 841C804.67 839.35 804.34 837.7 804 836C799.21 836.64 794.42 837.3 789.64 837.97C788.01 838.2 786.38 838.42 784.75 838.64C782.41 838.95 780.07 839.28 777.73 839.61C777 839.71 776.27 839.8 775.52 839.9C772.62 840.32 770.43 840.67 768.06 842.46C767 844 767 844 766.31 846.08C765 848 765 848 761.44 849.05C759.96 849.3 758.48 849.54 757 849.75C756.24 849.87 755.47 850 754.69 850.12C749.08 850.97 743.68 851.27 738 851C737.67 849.68 737.34 848.36 737 847C729.22 846.68 721.69 847.89 714 849C712.64 849.19 711.28 849.39 709.92 849.58C706.61 850.05 703.31 850.52 700 851C699.67 853.31 699.34 855.62 699 858C689.25 859.94 680 861.52 670 861C669.34 859.35 668.68 857.7 668 856C663.16 856.52 658.33 857.09 653.51 857.69C651.83 857.9 650.16 858.09 648.48 858.28C646.02 858.55 643.57 858.86 641.13 859.19C640.36 859.26 639.59 859.34 638.8 859.42C636.63 859.73 636.63 859.73 633 861C631.95 863.31 630.94 865.64 630 868C627.07 869.12 627.07 869.12 623.56 869.44C622.32 869.56 621.09 869.68 619.81 869.8C614.53 870.08 609.28 870.17 604 870C603.67 868.02 603.34 866.04 603 864C598.11 864.67 593.21 865.34 588.32 866.03C586.66 866.26 585 866.49 583.33 866.71C580.93 867.04 578.54 867.37 576.15 867.71C575.41 867.81 574.67 867.91 573.9 868.01C570.03 868.56 566.48 869.17 563 871C562.69 871.83 562.38 872.65 562.06 873.5C561 876 561 876 558.62 877.06C553.79 878.32 548.96 878.92 544 879.51C542.94 879.64 541.87 879.77 540.77 879.9C538.52 880.18 536.27 880.45 534.01 880.71C530.6 881.12 527.2 881.54 523.8 881.97C512.48 883.34 501.41 884.48 490 884C489.67 883.34 489.67 883.34 488 880C479.81 879.76 471.72 880.49 463.59 881.32C461.98 881.48 460.37 881.63 458.76 881.76C456.41 881.96 454.07 882.2 451.73 882.44C451.37 882.47 451.37 882.47 449.56 882.6C447.52 882.84 447.52 882.84 444 884C442.29 886.21 441.25 888.47 440 891C437.31 891.9 435.63 892.2 432.88 892.31C432.14 892.36 431.41 892.41 430.65 892.45C429.82 892.5 429 892.56 428.15 892.61C423.69 892.89 419.24 893.19 414.79 893.5C395.2 894.8 375.69 895.32 356.06 895.26C352.21 895.25 348.35 895.26 344.5 895.27C328.65 895.31 312.86 895.05 297.03 894.11C296.36 894.07 295.69 894.03 295 893.99C286.24 893.47 277.65 892.49 269 891C269 889.35 269 887.7 269 886C269.55 886 270.1 886.01 270.67 886.01C357.53 886.68 443.55 877.34 583.9 860.27C585.95 860.01 588.01 859.74 590.07 859.48C654.29 851.27 718.45 842.43 782.48 832.81C783.28 832.69 784.09 832.57 784.92 832.45C792.25 831.34 799.59 830.23 806.92 829.1C808.86 828.8 810.8 828.51 812.74 828.21C815.03 827.86 817.32 827.5 819.61 827.14C825.15 826.3 830.4 825.82 836 826Z" fill="#ffffff" fill-rule="evenodd"/>
      <path d="M168 862C175.01 862.55 181.15 865.16 187.69 867.63C209.21 875.5 231.11 880.5 253.81 883.63C256 884 256 884 259 885C259 886.65 259 888.3 259 890C250.34 890.29 242.26 889.52 233.75 887.94C232.54 887.72 231.32 887.49 230.07 887.26C208.96 883.23 187.12 877.03 168 867C168 865.35 168 863.7 168 862Z" fill="#ffffff" fill-rule="evenodd"/>
      <path d="M338 721C332.1 729.85 318.54 732.64 317 745C313.7 771.43 364.62 779.74 374.75 800C375.82 802.13 375.3 807.63 375 810C374 818.01 352.81 830.85 346 834.25C342.81 835.85 340.26 839.12 337 840.75C325.98 846.26 315.65 854.1 305 860.75C295.58 866.64 285.42 871.36 276 877.25C273.93 878.55 273.95 881.63 272 882.75C268.74 884.61 266.13 884.13 263 887" fill="none" stroke="#111111" stroke-width="5.75" stroke-linecap="round" stroke-linejoin="round"/>
      <path d="M351 721C345.68 733.77 327.88 734.05 330 751C330.8 757.42 339.07 763.17 344 766.25C354.46 772.79 381.62 788.74 386.75 799C388.24 801.97 387.36 807.1 387 810C386.12 817.03 378.93 824.05 373 827.75C367.41 831.25 362.82 836.34 357 839.25C348.88 843.31 342.37 850.51 334 854" fill="none" stroke="#111111" stroke-width="5.75" stroke-linecap="round" stroke-linejoin="round"/>
      <path d="M836 832C834.54 834.51 833.8 838.35 831 839.75C827.78 841.36 809.84 843.48 806 843C803.17 842.65 801.87 838.77 800 838.5C797.48 838.14 792.65 838.67 790 839C785.35 839.58 774.94 840.28 771 842.25C766.79 844.35 768.1 849.99 760 851C753.46 851.82 745.6 853.82 739 853C735.59 852.57 735.61 849.23 733 848.25C731.97 847.86 717.19 849.73 715 850C711.52 850.43 704.31 850.71 702.25 854C701.38 855.4 701.33 857.8 700 858.75C696.58 861.2 689.09 861.49 685 862C680.86 862.52 674.03 864.26 670 862.75C666.53 861.45 666.01 857.5 662 858C655.03 858.87 647.95 860.13 641 861C639.72 861.16 638.21 860.65 637 861.25C633.66 862.92 633.87 867.31 631 868.75C627.06 870.72 616.65 871.42 612 872C608.99 872.38 604.67 872.28 602 870.75C600.62 869.96 600.61 866.73 599 866.5C592.25 865.54 580.96 868.13 574 869C570.46 869.44 566.03 870.44 564.25 874C563.68 875.15 564.01 875.99 563 877C561.03 878.97 556.62 879.67 554 880C540.67 881.67 527.34 882.33 514 884C506.8 884.9 499.52 886.94 492 886C488.29 885.54 487.01 882.75 484 881.25C483.76 881.13 469.5 881.81 468 882C464.96 882.38 447.7 884.09 446.25 885.25C443.33 887.58 442.81 891.32 439 892.75C434.53 894.42 429.66 893.42 425 894C418.57 894.8 411.5 896 405 896C379.52 896 353.73 897 328 897C321.82 897 315.96 896.75 310 896C304.46 895.31 298.27 897.23 293 895.25C284.66 892.12 266.58 897.73 263 887" fill="none" stroke="#111111" stroke-width="6" stroke-linecap="round" stroke-linejoin="round"/>
      <path d="M162 861C171.04 857.99 179.52 863.57 188 866.75C198.86 870.82 211.6 875.57 223 877C233.11 878.26 256.14 880.14 263 887" fill="none" stroke="#111111" stroke-width="4.75" stroke-linecap="round" stroke-linejoin="round"/>
      <path d="M162 861C163.04 863.49 163.88 866.15 166 868C168.99 870.62 174.25 871.84 178 873.25C197.3 880.49 216.69 887.46 237 890C245.15 891.02 256.15 895.28 263 889" fill="none" stroke="#111111" stroke-width="6" stroke-linecap="round" stroke-linejoin="round"/>
      <path d="M688 767C695.93 767 704.77 766.06 711.75 770.25C724.77 778.06 723.14 796.45 709 801.75C700.34 805 690.1 804.86 681 806C665.36 807.96 649.72 810.04 634 812C589.67 817.54 545.34 824.46 501 830C493.65 830.92 486.36 831.08 479 832C466.85 833.52 442.35 837.83 440 819C437.37 797.94 461.13 795.86 476 794C482.54 793.18 489.36 791 496 791C509.24 791 522.93 787.63 536 786C562.72 782.66 589.37 779.33 616 776C632.37 773.95 648.71 772.04 665 770C672.67 769.04 680.77 769.41 688 767Z" fill="none" stroke="#111111" stroke-width="4" stroke-linecap="round" stroke-linejoin="round"/>
      <path d="M1112 779C1112.91 777.64 1114.29 776.14 1115 775" fill="none" stroke="#111111" stroke-width="6" stroke-linecap="round" stroke-linejoin="round"/>
      <path d="M263 887C264.44 886.04 265.63 885.26 267 884" fill="none" stroke="#111111" stroke-width="6" stroke-linecap="round" stroke-linejoin="round"/>
    </g>
</svg>
