<?xml version="1.0" encoding="UTF-8"?>
<svg xmlns="http://www.w3.org/2000/svg" xmlns:inkscape="http://www.inkscape.org/namespaces/inkscape"
     viewBox="0 0 2048 928" width="2048" height="928">
<g id="layer-rear_ring_pearl" inkscape:label="Rear ring pearl" data-z="1" data-kind="component" data-regions="2" data-strokes="50">
      <path d="M1809 178C1809 179.65 1809 181.3 1809 183C1803.6 182.42 1798.57 181.47 1793.31 180.06C1755.52 170.34 1715 174.9 1680 192C1684.95 192.33 1689.9 192.66 1695 193C1695 191.68 1695 190.36 1695 189C1699.62 187.19 1703.43 186.78 1708.38 186.88C1709.62 186.89 1710.87 186.91 1712.15 186.93C1713.09 186.95 1714.03 186.98 1715 187C1715 187.66 1715 188.32 1715 189C1717.31 189 1719.62 189 1722 189C1722 187.68 1722 186.36 1722 185C1743.7 181.07 1763.41 184.62 1784.03 191.15C1789.77 192.79 1793.71 193.11 1799.5 191.56C1803.8 190.42 1807.54 189.73 1812 190C1813 191 1813 191 1813.13 193.5C1813 196 1813 196 1812 197C1816.28 199.09 1819.7 200.12 1824.44 200.63C1830.27 201.57 1832.85 204.13 1836.42 208.7C1840.14 214.11 1842.06 219.79 1844 226C1844.39 227.13 1844.78 228.27 1845.19 229.44C1846.22 233.94 1846.57 238.4 1846 243C1845.34 243.66 1844.68 244.32 1844 245C1841.24 244.98 1838.61 244.86 1835.88 244.63C1835.12 244.57 1834.37 244.51 1833.59 244.45C1831.73 244.31 1829.86 244.16 1828 244C1828.08 244.85 1828.17 245.7 1828.25 246.57C1829.5 260.86 1827.88 274.05 1825 288C1829.17 282.73 1829.93 277.58 1830.81 271.06C1831.58 266.11 1832.94 263.05 1835.82 259.02C1837.97 255.33 1838.43 251.18 1839 247C1840.65 247 1842.3 247 1844 247C1844.32 257.5 1844.25 266.89 1841 277C1840.68 278.1 1840.35 279.2 1840.02 280.34C1839.05 283.58 1838.04 286.79 1837 290C1836.77 290.73 1836.53 291.46 1836.29 292.21C1834.23 298.16 1831.1 303.54 1828 309C1826.02 309 1824.04 309 1822 309C1821.67 307.35 1821.34 305.7 1821 304C1820.34 304 1819.68 304 1819 304C1818.74 304.54 1818.48 305.09 1818.22 305.65C1816.79 308.41 1815.17 311 1813.5 313.63C1812.89 314.59 1812.28 315.55 1811.66 316.54C1810 319 1810 319 1808 321C1805.31 321.27 1802.71 321.09 1800 321C1800 321.66 1800 322.32 1800 323C1800.66 323 1801.32 323 1802 323C1802.27 328.39 1802.36 331.52 1799 336C1801.31 336 1803.62 336 1806 336C1806.31 338.19 1806.31 338.19 1806 341C1803.75 343.5 1803.75 343.5 1801 346C1800.32 346.89 1799.64 347.77 1798.94 348.69C1796.91 351.11 1795.94 351.96 1793 353C1790.85 352.83 1788.7 352.57 1786.56 352.25C1779.61 351.64 1775.63 353.05 1769.54 356.24C1765.47 358.26 1761.37 359.76 1757.06 361.19C1756.72 361.31 1756.72 361.31 1754.97 361.91C1742.84 365.9 1731.27 367.46 1718.58 367.28C1716.28 367.25 1713.97 367.24 1711.67 367.23C1700.5 367.17 1700.5 367.17 1697 366C1697 366.66 1697 367.32 1697 368C1693.7 368.33 1690.4 368.66 1687 369C1710.84 374.45 1736.09 375.69 1759.83 368.91C1762.75 368.07 1764.99 367.82 1768 368C1768 369.65 1768 371.3 1768 373C1733.05 385.69 1695.23 391.37 1659.85 376.07C1638.88 366.26 1620.97 350.22 1612.69 328.25C1601.19 295.99 1600.38 260.54 1614.85 228.87C1616.77 224.84 1618.84 220.9 1621 217C1621.54 216.01 1622.09 215.03 1622.65 214.01C1637.94 188.27 1664.16 173.51 1692.43 166.27C1695.93 165.42 1699.46 164.69 1703 164C1704.16 163.77 1705.31 163.55 1706.5 163.31C1739.61 158.09 1779.73 160.71 1809 178ZM1756 193C1756 198.61 1756 204.22 1756 210C1764 210 1764 210 1767 209C1766.67 206.03 1766.34 203.06 1766 200C1768.31 200 1770.62 200 1773 200C1768.24 195.07 1762.48 194.42 1756 193ZM1647.18 216.8C1641.65 222.82 1637.08 228.93 1633 236C1632.83 236.3 1632.83 236.3 1631.96 237.8C1627.84 244.98 1624.17 251.69 1623 260C1626.63 260 1630.26 260 1634 260C1634.18 259.19 1634.36 258.38 1634.55 257.55C1634.8 256.48 1635.05 255.41 1635.31 254.31C1635.56 253.26 1635.8 252.2 1636.05 251.11C1637.01 247.97 1638.06 245.64 1640 243C1643.25 242 1643.25 242 1645.33 241.6C1648.98 240.78 1652.46 239.58 1656 238.38C1656.68 238.14 1657.37 237.91 1658.07 237.68C1659.72 237.12 1661.36 236.56 1663 236C1663 235.67 1663 235.34 1663 235C1658.71 235 1654.42 235 1650 235C1650 228.4 1650 221.8 1650 215C1649 215 1649 215 1647.18 216.8ZM1756 217C1756 218.32 1756 219.64 1756 221C1754.35 221 1752.7 221 1751 221C1754.48 223.82 1758.02 226.54 1761.63 229.19C1762.57 229.88 1763.51 230.58 1764.48 231.29C1767 233 1767 233 1770 234C1771.06 235.94 1771.06 235.94 1772 238C1775.1 241.1 1778.81 240.86 1783 241C1791.76 240.73 1800.37 239.46 1809 238C1808.47 233.98 1807.7 230.89 1805.69 227.38C1805.28 226.64 1804.87 225.91 1804.45 225.15C1802.77 222.66 1801.34 220.9 1799 219C1795.78 218.47 1795.78 218.47 1792 218.43C1791.32 218.41 1790.64 218.4 1789.94 218.38C1787.77 218.34 1785.61 218.33 1783.44 218.31C1780.6 218.27 1777.77 218.23 1774.93 218.18C1774.25 218.17 1773.57 218.16 1772.87 218.15C1767.21 218.05 1761.62 217.64 1756 217ZM1819 220C1820.32 223.31 1821.67 226.56 1823.13 229.81C1823.48 230.6 1823.83 231.39 1824.2 232.21C1824.46 232.8 1824.73 233.39 1825 234C1827 233 1827 233 1828.25 229.56C1830 226 1830 226 1833.19 224.56C1834.12 224.38 1835.04 224.19 1836 224C1835.34 222.68 1834.68 221.36 1834 220C1829.05 220 1824.1 220 1819 220ZM1806.38 250.69C1804.92 251.46 1803.46 252.23 1802 253C1796.65 255.73 1792.09 257.44 1786.04 257.73C1784 258 1784 258 1782.04 259.02C1779.61 260.19 1777.93 260.2 1775.25 260.13C1774.45 260.11 1773.65 260.09 1772.83 260.07C1772.23 260.05 1771.62 260.02 1771 260C1770.67 261.32 1770.34 262.64 1770 264C1772.31 264 1774.62 264 1777 264C1776.73 265.24 1776.46 266.48 1776.19 267.75C1775.9 269.97 1775.9 269.97 1776 272C1778.38 274.19 1778.38 274.19 1781 276C1781.66 278.61 1781.66 278.61 1782 281C1782.75 281.05 1783.5 281.1 1784.27 281.15C1789.42 281.52 1794.53 281.97 1799.63 282.81C1800.42 282.94 1801.22 283.07 1802.04 283.21C1804 284 1804 284 1805.27 286.07C1805.51 286.71 1805.75 287.35 1806 288C1806.99 287.67 1807.98 287.34 1809 287C1809.92 284.34 1810.6 281.87 1811.19 279.13C1811.28 278.73 1811.28 278.73 1811.72 276.73C1813.5 267.83 1813.36 259.03 1813 250C1810 249 1810 249 1806.38 250.69ZM1657 260C1657 267.26 1657 274.52 1657 282C1657.99 281.18 1657.99 281.18 1663 277C1669.49 274.48 1677.14 274.49 1684 275C1684.66 275.33 1685.32 275.66 1686 276C1688.22 276.4 1690.45 276.74 1692.69 277.06C1693.29 277.15 1693.29 277.15 1696.32 277.6C1702.4 278.26 1706.39 278.36 1711.89 275.67C1716.4 274.24 1721.32 274.79 1726 275C1724.68 272.36 1723.7 272.26 1720.94 271.31C1713.68 269.2 1706.4 270.24 1699 271C1699 270.01 1699 269.02 1699 268C1697.76 267.27 1696.51 266.57 1695.25 265.88C1694.55 265.48 1693.86 265.09 1693.14 264.68C1691 264 1691 264 1688.92 264.86C1688.29 265.24 1687.65 265.61 1687 266C1682.17 266.51 1680.04 265.5 1676 263C1673.36 262.2 1670.7 261.62 1668 261C1667.34 260.67 1666.68 260.34 1666 260C1663.03 260 1660.06 260 1657 260ZM1750 269C1749.34 269.66 1748.68 270.32 1748 271C1750.97 271 1753.94 271 1757 271C1757 270.67 1757 270.34 1757 270C1753.63 269.38 1753.63 269.38 1750 269ZM1620 298C1620.56 310.16 1624.46 321.73 1631 332C1631.33 332 1631.66 332 1632 332C1632 325.73 1632 319.46 1632 313C1632.66 312.67 1633.32 312.34 1634 312C1633.34 308.04 1632.68 304.08 1632 300C1633.16 299.83 1633.16 299.83 1639 299C1639 298.67 1639 298.34 1639 298C1632.73 298 1626.46 298 1620 298ZM1801 299C1800 300 1800 300 1799.9 302.5C1799.91 303.51 1799.93 304.52 1799.94 305.56C1799.95 306.57 1799.96 307.59 1799.97 308.63C1799.98 309.41 1799.99 310.19 1800 311C1803.19 306.8 1805 304.42 1805 299C1803.68 299 1802.36 299 1801 299ZM1677 315C1677 319.95 1677 324.9 1677 330C1678.65 329.67 1680.3 329.34 1682 329C1682 327.02 1682 325.04 1682 323C1682.76 323.16 1683.53 323.33 1684.31 323.5C1696.65 325.17 1696.65 325.17 1701 323C1701.04 320.67 1701.04 318.33 1701 316C1700 315 1700 315 1697.79 314.87C1697.34 314.87 1697.34 314.87 1695.06 314.88C1694.17 314.87 1693.27 314.87 1692.35 314.87C1690 315 1690 315 1688 316C1686.5 316.1 1685 316.13 1683.5 316.13C1682.71 316.13 1681.91 316.13 1681.09 316.13C1679 316 1679 316 1677 315ZM1752 315C1752 315.99 1752 316.98 1752 318C1752.99 318.33 1753.98 318.66 1755 319C1755 317.68 1755 316.36 1755 315C1754.01 315 1753.02 315 1752 315ZM1732 327C1729.68 327.8 1727.38 328.38 1725 329C1725 329.33 1725 329.66 1725 330C1725.57 330.02 1725.57 330.02 1728.43 330.11C1729.91 330.18 1731.39 330.25 1732.88 330.31C1733.62 330.34 1734.37 330.36 1735.14 330.38C1737.1 330.48 1739.05 330.73 1741 331C1741.33 331.5 1741.33 331.5 1743 334C1746.73 335.58 1751.03 335.07 1755 335C1755 331.37 1755 327.74 1755 324C1752.29 323.92 1749.59 323.86 1746.88 323.81C1746.5 323.8 1746.5 323.8 1744.57 323.74C1739.55 323.67 1736.43 324.42 1732 327ZM1735 338C1735 344.27 1735 350.54 1735 357C1741.18 355.26 1747.23 353.27 1753.25 351.06C1753.92 350.82 1754.6 350.58 1755.29 350.33C1759.65 348.71 1763.26 346.78 1767 344C1767 343.67 1767 343.34 1767 343C1766.23 342.88 1765.45 342.76 1764.66 342.63C1755.12 341.1 1755.12 341.1 1751 339.94C1745.77 338.53 1740.39 338.37 1735 338Z" fill="#f6f8f9" fill-rule="evenodd"/>
      <path d="M1840 190C1844.44 189.76 1847.18 190.23 1851.08 192.34C1852.02 192.85 1852.95 193.35 1853.91 193.88C1854.87 194.41 1855.83 194.95 1856.81 195.5C1857.29 195.75 1857.29 195.75 1859.68 197.03C1868.43 201.85 1878.26 208.27 1882 218C1882.89 222.33 1883.03 226.09 1880.89 230.05C1877.75 233.99 1873.83 237.4 1869 239C1865.97 239.3 1863.04 239.25 1860 239C1859.91 238.2 1859.83 237.4 1859.74 236.58C1857.89 222.13 1851.84 208.4 1842 197.5C1840 195 1840 195 1839.69 192.13C1839.79 191.42 1839.89 190.72 1840 190Z" fill="#f6f8f9" fill-rule="evenodd"/>
      <path d="M1773 182C1780.09 182 1786.17 185.15 1793 186C1800.16 186.89 1807.12 185.67 1814 188.25C1817.44 189.54 1820.21 193.47 1824 193C1826.9 192.64 1826.82 190.2 1827 188" fill="none" stroke="#111111" stroke-width="6" stroke-linecap="round" stroke-linejoin="round"/>
      <path d="M1827 188C1828.37 186.63 1829.95 184.26 1832 184C1846.38 182.2 1893.58 207.8 1886.75 226C1882.87 236.34 1871.76 242 1861 242C1858.88 242 1853.5 244.19 1852.25 242C1850.97 239.76 1852.31 235.51 1852 233C1851.51 229.08 1850.16 224.75 1848.75 221C1844.13 208.68 1836.05 200.05 1827 191" fill="none" stroke="#111111" stroke-width="6" stroke-linecap="round" stroke-linejoin="round"/>
      <path d="M1758 206C1751.08 185.25 1784.81 204.88 1791 209" fill="none" stroke="#111111" stroke-width="4.75" stroke-linecap="round" stroke-linejoin="round"/>
      <path d="M1650 213C1647.4 219.23 1646.71 227.09 1643.75 233C1642.11 236.29 1637.4 237.25 1635 240C1629.77 245.98 1631.46 255.18 1623 258" fill="none" stroke="#111111" stroke-width="6" stroke-linecap="round" stroke-linejoin="round"/>
      <path d="M1745 220C1758.45 220 1769.51 224.07 1782 228.75C1785.68 230.13 1790.26 228.75 1794 230" fill="none" stroke="#111111" stroke-width="6" stroke-linecap="round" stroke-linejoin="round"/>
      <path d="M1663 268C1670.12 268 1677.04 270.87 1684 270C1687.66 269.54 1692.05 262.55 1696.75 267.25C1702.26 272.76 1689.95 274.54 1685 270" fill="none" stroke="#111111" stroke-width="6" stroke-linecap="round" stroke-linejoin="round"/>
      <path d="M1850 269C1847.22 272.17 1847.3 276.88 1845.75 281C1842.77 288.96 1837.67 307.33 1832 313C1830.02 314.98 1826.41 315.6 1824 317" fill="none" stroke="#111111" stroke-width="6" stroke-linecap="round" stroke-linejoin="round"/>
      <path d="M1783 300C1786.15 300 1800.54 298.31 1801 302C1801.48 305.81 1799.32 310.17 1799 314" fill="none" stroke="#111111" stroke-width="2" stroke-linecap="round" stroke-linejoin="round"/>
      <path d="M1782 360C1770.95 357.24 1751.36 367.45 1739 369C1725.5 370.69 1706.63 370.7 1693 369C1687.34 368.29 1681.81 367 1676 367" fill="none" stroke="#111111" stroke-width="6" stroke-linecap="round" stroke-linejoin="round"/>
      <path d="M1805 181C1805 181.33 1805 181.66 1805 182C1797.5 182.36 1791.19 181.7 1783.98 179.67C1779.32 178.62 1774.75 178.75 1770 179C1770 180.98 1770 182.96 1770 185C1795.97 190.76 1795.97 190.76 1807 191C1804.15 192.9 1802.58 193.51 1799.31 194.19C1798.91 194.28 1798.91 194.28 1796.86 194.73C1789.49 195.43 1782.98 193.17 1776 191.07C1756.6 185.32 1737.86 183.94 1717.79 187.57C1715.04 187.99 1712.58 188 1709.81 187.88C1704.07 187.7 1699.22 189.78 1694 192C1694.99 192.66 1695.98 193.32 1697 194C1689.74 194 1682.48 194 1675 194C1679.51 189.49 1679.51 189.49 1682.84 188C1683.56 187.67 1684.29 187.35 1685.04 187.01C1685.81 186.68 1686.58 186.34 1687.38 186C1688.18 185.65 1688.99 185.3 1689.82 184.94C1724.48 170.22 1769.43 168 1805 181ZM1742 179C1742 179.33 1742 179.66 1742 180C1750.64 182.51 1759.09 182.18 1768 182C1768 181.34 1768 180.68 1768 180C1765.39 178.7 1763.47 178.89 1760.56 178.9C1759.48 178.91 1758.4 178.91 1757.29 178.91C1756.73 178.92 1756.73 178.92 1753.88 178.94C1752.74 178.94 1751.6 178.95 1750.43 178.95C1747.62 178.96 1744.81 178.98 1742 179Z" fill="#111111" fill-rule="evenodd"/>
      <path d="M1822 174C1827.36 175.59 1832.71 177.19 1838 179C1838 179.33 1838 179.66 1838 180C1828.27 180.92 1828.27 180.92 1825.16 178.66C1823.81 177 1823.81 177 1822 174Z" fill="#111111" fill-rule="evenodd"/>
      <path d="M1804 177C1808.14 177.6 1811.18 179.01 1814.81 181.06C1815.79 181.61 1816.76 182.16 1817.77 182.72C1818.51 183.14 1819.24 183.57 1820 184C1819.67 184.66 1819.34 185.32 1819 186C1814.05 183.36 1809.1 180.72 1804 178C1804 177.67 1804 177.34 1804 177Z" fill="#111111" fill-rule="evenodd"/>
      <path d="M1656 181C1656.66 181.33 1657.32 181.66 1658 182C1657.18 182.62 1656.36 183.24 1655.51 183.87C1638.15 196.99 1625.95 210.12 1617 230C1616.59 230.9 1616.18 231.79 1615.76 232.71C1602.57 263.49 1603.27 297.44 1615.02 328.36C1619.15 338.49 1625.43 346.91 1632.96 354.82C1635.11 357.12 1637.06 359.52 1639 362C1625.95 356.54 1614.85 338.49 1609.45 326.03C1602.29 307.04 1593.97 279.45 1602.41 259.71C1602.68 259.12 1602.95 258.53 1603.22 257.93C1604.38 255.07 1604.97 252.14 1605.63 249.14C1610.15 228.63 1619.63 213.23 1634 198C1634.59 197.36 1635.17 196.72 1635.77 196.07C1640.32 191.28 1645.48 187.59 1651 184C1651.88 183.42 1652.77 182.84 1653.68 182.23C1654.06 182.03 1654.06 182.03 1656 181Z" fill="#111111" fill-rule="evenodd"/>
      <path d="M1715 188C1719.52 187.92 1723.59 187.9 1728 189C1728 189.33 1728 189.66 1728 190C1723.38 190 1718.76 190 1714 190C1714.33 189.34 1714.66 188.68 1715 188Z" fill="#111111" fill-rule="evenodd"/>
      <path d="M1833 188C1834.65 188.33 1836.3 188.66 1838 189C1838 189.99 1838 190.98 1838 192C1838.58 192.24 1839.17 192.49 1839.77 192.74C1849.57 198.27 1856.58 214.06 1860 224.38C1861.21 228.98 1861.23 233.26 1861 238C1859.35 238 1857.7 238 1856 238C1855.91 237.13 1855.83 236.26 1855.74 235.36C1853.54 216.69 1844.75 203.27 1832 190C1832.33 189.34 1832.66 188.68 1833 188Z" fill="#111111" fill-rule="evenodd"/>
      <path d="M1755 192C1755.99 192 1756.98 192 1758 192C1758 192.66 1758 193.32 1758 194C1757.01 194.33 1756.02 194.66 1755 195C1755 194.01 1755 193.02 1755 192Z" fill="#111111" fill-rule="evenodd"/>
      <path d="M1848 193C1851.96 193.57 1854.67 194.81 1858 197C1857.67 197.17 1857.67 197.17 1856 198C1854.06 197.22 1854.06 197.22 1851.88 196.06C1851.15 195.68 1850.43 195.3 1849.68 194.91C1849.13 194.61 1848.57 194.31 1848 194C1848 193.67 1848 193.34 1848 193Z" fill="#111111" fill-rule="evenodd"/>
      <path d="M1819 196C1820.24 195.98 1821.48 195.96 1822.75 195.94C1828.3 196.55 1831.2 200.78 1834.61 204.84C1848.4 223.04 1849.26 240.02 1846.31 261.87C1843.84 277.04 1838.81 296.42 1830 309C1827.63 310.59 1827.63 310.59 1825.25 311.81C1817.46 315.95 1812.68 323.43 1809.69 331.56C1809.06 333.73 1808.47 335.92 1807.95 338.13C1806.17 343.52 1802.45 346.67 1798 350C1797.34 349.67 1796.68 349.34 1796 349C1797.28 347.29 1798.62 345.63 1800 344C1800.66 344 1801.32 344 1802 344C1802.29 343.4 1802.58 342.8 1802.88 342.19C1804 340 1804 340 1806 337C1803.03 337 1800.06 337 1797 337C1798.31 332.77 1799.94 328.93 1802 325C1801.01 324.67 1800.02 324.34 1799 324C1799 322.35 1799 320.7 1799 319C1800.18 319.21 1801.35 319.41 1802.56 319.63C1804.77 319.64 1804.77 319.64 1807 319C1809.89 316.01 1811.88 312.55 1814 309C1814.96 307.61 1815.94 306.24 1816.94 304.88C1817.62 303.93 1818.3 302.98 1819 302C1819.5 302.17 1819.5 302.17 1822 303C1822.33 304.65 1822.66 306.3 1823 308C1824.84 307.78 1824.84 307.78 1827 307C1828.38 305 1828.38 305 1829.56 302.44C1829.77 301.98 1829.77 301.98 1830.84 299.67C1834.18 291.97 1836.62 284.05 1839 276C1839.3 275.06 1839.61 274.13 1839.92 273.16C1842.1 265.84 1842.23 258.98 1841.98 251.41C1841.96 250.62 1841.93 249.84 1841.91 249.03C1841.88 248.32 1841.85 247.62 1841.82 246.89C1842 245 1842 245 1844 242C1844.58 235.43 1843.21 230.16 1841 224C1840.65 223 1840.3 222.01 1839.93 220.98C1837.47 214.52 1834.91 207.98 1829 204C1825.44 202.92 1821.94 202.25 1818.27 201.65C1814.25 200.85 1812.07 199.62 1809 197C1811.34 192.33 1815.08 194.67 1819 196Z" fill="#111111" fill-rule="evenodd"/>
      <path d="M1761 202C1766.88 202.88 1766.88 202.88 1768 204C1768.04 206 1768.04 208 1768 210C1767.23 210.13 1766.46 210.27 1765.66 210.4C1764.66 210.58 1763.66 210.76 1762.63 210.94C1761.63 211.11 1760.63 211.29 1759.6 211.47C1757 212 1757 212 1755 213C1755.33 211.68 1755.66 210.36 1756 209C1757.65 208.67 1759.3 208.34 1761 208C1761 206.02 1761 204.04 1761 202Z" fill="#111111" fill-rule="evenodd"/>
      <path d="M1762 217C1767.3 216.97 1772.6 216.99 1777.91 217.04C1779.71 217.06 1781.51 217.06 1783.31 217.05C1785.91 217.03 1788.5 217.06 1791.1 217.1C1791.9 217.08 1792.7 217.07 1793.53 217.05C1796.94 217.14 1799.14 217.29 1801.83 219.51C1804.84 222.96 1807.08 226.56 1808.94 230.75C1809.36 231.67 1809.78 232.6 1810.22 233.55C1811 236 1811 236 1810 239C1802.37 240.41 1794.8 241.28 1787.06 241.75C1786.26 241.81 1785.45 241.86 1784.63 241.92C1779.24 242.21 1774.53 242.02 1770.13 238.5C1769 237 1769 237 1769 235C1768.43 234.73 1767.86 234.47 1767.27 234.2C1764.89 232.94 1762.88 231.51 1760.75 229.88C1760.04 229.34 1759.34 228.8 1758.61 228.24C1758.08 227.83 1757.55 227.42 1757 227C1760.44 225.81 1762.34 226.19 1765.71 227.43C1766.62 227.75 1767.53 228.07 1768.47 228.4C1769.43 228.74 1770.39 229.09 1771.38 229.44C1780.24 232.46 1787.59 234.01 1797 233C1797 231.02 1797 229.04 1797 227C1796.07 226.85 1795.13 226.71 1794.17 226.56C1783.09 224.7 1772.64 221.57 1762 218C1762 217.67 1762 217.34 1762 217Z" fill="#111111" fill-rule="evenodd"/>
      <path d="M1817 219C1819.94 218.92 1822.87 218.86 1825.81 218.81C1826.65 218.79 1827.48 218.76 1828.34 218.74C1828.74 218.73 1828.74 218.73 1830.77 218.71C1831.14 218.7 1831.14 218.7 1833.01 218.66C1835.52 219.09 1836.39 220.08 1838 222C1837.67 222.99 1837.34 223.98 1837 225C1836.07 225.23 1835.14 225.45 1834.19 225.69C1830.04 227.4 1829.4 229.35 1827.66 233.32C1827.45 233.88 1827.23 234.43 1827 235C1826.01 235 1825.02 235 1824 235C1823.75 234.41 1823.49 233.82 1823.23 233.21C1821.38 228.95 1819.41 224.98 1817 221C1817 220.34 1817 219.68 1817 219Z" fill="#111111" fill-rule="evenodd"/>
      <path d="M1642 220C1643.38 224.14 1642.1 226.07 1640.32 229.9C1638.45 232.87 1636.26 233.89 1633 235C1634.39 231.11 1636.22 228.03 1638.63 224.69C1639.26 223.8 1639.89 222.92 1640.54 222.01C1641.02 221.35 1641.5 220.68 1642 220Z" fill="#111111" fill-rule="evenodd"/>
      <path d="M1650 227C1650.33 227 1650.66 227 1651 227C1651 229.31 1651 231.62 1651 234C1657.93 234 1664.86 234 1672 234C1669.14 235.43 1666.77 236.48 1663.77 237.4C1662.97 237.65 1662.16 237.9 1661.33 238.16C1660.5 238.42 1659.67 238.67 1658.81 238.94C1656.36 239.7 1653.9 240.46 1651.45 241.24C1649.8 241.75 1648.14 242.24 1646.47 242.69C1640.44 244.43 1640.44 244.43 1638.25 247.27C1637.98 248.11 1637.71 248.95 1637.44 249.81C1637.15 250.69 1636.87 251.57 1636.57 252.48C1635.91 255.39 1635.69 258.02 1636 261C1633.36 261 1630.72 261 1628 261C1628.39 260.46 1628.77 259.91 1629.17 259.35C1631.87 255.45 1634.16 251.83 1635.81 247.38C1637.75 242.63 1640.83 240.71 1644.94 237.84C1648.27 234.87 1649.16 231.28 1650 227Z" fill="#111111" fill-rule="evenodd"/>
      <path d="M1827 243C1828.96 242.97 1830.92 242.95 1832.88 242.94C1833.97 242.93 1835.06 242.91 1836.18 242.9C1839 243 1839 243 1841 244C1840.73 251.29 1839.76 256.73 1836 263C1833.09 267.93 1832.37 272.43 1831.52 278.01C1830.82 282.05 1829.81 285.31 1828 289C1825.9 289.71 1825.9 289.71 1824 290C1822.59 286.17 1823.44 283.34 1824.38 279.44C1825.73 273.3 1826.42 267.27 1826.75 261C1826.79 260.21 1826.84 259.42 1826.88 258.61C1827.09 253.93 1826.69 249.65 1826 245C1826.33 244.34 1826.66 243.68 1827 243Z" fill="#111111" fill-rule="evenodd"/>
      <path d="M1868 246C1868 246.33 1868 246.66 1868 247C1866.02 247.66 1864.04 248.32 1862 249C1861.87 249.96 1861.73 250.93 1861.6 251.92C1861.42 253.19 1861.24 254.45 1861.06 255.75C1860.89 257 1860.71 258.26 1860.54 259.55C1860.14 262.1 1859.7 264.52 1859 267C1857.35 266.67 1855.7 266.34 1854 266C1853.79 259.36 1854.49 253.47 1856 247C1860.08 246.11 1863.82 245.92 1868 246Z" fill="#111111" fill-rule="evenodd"/>
      <path d="M1810 247C1811.32 247.66 1812.64 248.32 1814 249C1814.49 262.65 1813.61 274.81 1810 288C1809.18 288.17 1809.18 288.17 1805 289C1804.76 288.36 1804.52 287.73 1804.27 287.07C1803 285 1803 285 1801.07 284.21C1800.68 284.14 1800.68 284.14 1798.69 283.81C1797.81 283.67 1796.93 283.52 1796.02 283.37C1790.69 282.72 1785.36 282.32 1780 282C1780.33 281.01 1780.66 280.02 1781 279C1781.66 279 1782.32 279 1783 279C1783 278.34 1783 277.68 1783 277C1782.24 276.9 1781.47 276.79 1780.69 276.69C1777.72 275.93 1776.58 275.63 1775 273C1775.31 269.31 1775.31 269.31 1776 266C1775.28 266.02 1774.55 266.05 1773.81 266.07C1768.45 266.17 1764.01 266.17 1759 264C1759 263.67 1759 263.34 1759 263C1761.97 263 1764.94 263 1768 263C1768.66 261.68 1769.32 260.36 1770 259C1770.6 259.02 1771.21 259.05 1771.83 259.07C1772.63 259.09 1773.43 259.11 1774.25 259.13C1774.64 259.14 1774.64 259.14 1776.64 259.2C1779.24 258.98 1780.71 258.19 1783 257C1785.04 256.73 1785.04 256.73 1787.19 256.63C1792.36 256.14 1796.4 254.32 1801 252C1801.76 251.63 1802.52 251.26 1803.31 250.88C1808.8 248.2 1808.8 248.2 1810 247Z" fill="#111111" fill-rule="evenodd"/>
      <path d="M1653.19 258.73C1653.58 258.73 1653.58 258.73 1655.55 258.73C1655.96 258.73 1655.96 258.73 1658 258.75C1658.81 258.74 1659.61 258.73 1660.45 258.73C1661.23 258.73 1662.01 258.73 1662.81 258.73C1663.52 258.74 1664.23 258.74 1664.96 258.74C1667.32 259.04 1668.92 259.87 1671 261C1673.02 261.52 1675.05 261.93 1677.1 262.34C1679.36 263.12 1680.44 264.22 1682 266C1681.42 265.93 1680.83 265.86 1680.23 265.78C1673.47 265.02 1666.8 264.89 1660 265C1660 266.98 1660 268.96 1660 271C1667.65 272.38 1675.25 273.42 1683 274C1683 274.33 1683 274.66 1683 275C1682.45 275.06 1681.9 275.13 1681.34 275.2C1678.82 275.5 1676.32 275.85 1673.81 276.19C1672.95 276.29 1672.08 276.39 1671.19 276.49C1665.47 277.31 1662.91 278.5 1659 283C1658.01 283 1657.02 283 1656 283C1656 275.74 1656 268.48 1656 261C1652.37 261 1648.74 261 1645 261C1648.54 259.23 1649.55 258.75 1653.19 258.73Z" fill="#111111" fill-rule="evenodd"/>
      <path d="M1754.06 268.31C1754.96 268.39 1755.86 268.47 1756.79 268.55C1757.15 268.62 1757.15 268.62 1759 269C1759.33 269.66 1759.66 270.32 1760 271C1757.36 272.32 1755.32 272.1 1752.37 272.06C1751.37 272.05 1750.37 272.04 1749.34 272.04C1748.57 272.02 1747.79 272.01 1747 272C1747 271.01 1747 270.02 1747 269C1749.59 267.7 1751.19 268.04 1754.06 268.31Z" fill="#111111" fill-rule="evenodd"/>
      <path d="M1726 272C1726.78 274.11 1726.78 274.11 1727 276C1726.22 275.96 1725.43 275.93 1724.62 275.9C1718.13 275.73 1713.96 276.3 1708 279C1703.1 279.58 1699.34 279.46 1695 277C1695.49 276.79 1695.49 276.79 1697.94 275.75C1701 274 1701 274 1701.88 271.81C1701.92 271.21 1701.96 270.62 1702 270C1709.78 267.99 1718.79 268.16 1726 272Z" fill="#111111" fill-rule="evenodd"/>
      <path d="M1852 275C1852.99 275.17 1852.99 275.17 1858 276C1857.34 276.66 1856.68 277.32 1856 278C1855.19 280.58 1854.45 283.14 1853.75 285.75C1847.66 307.23 1836.34 329.74 1819.85 345.22C1817.98 347.03 1816.35 348.93 1814.69 350.94C1804.7 362.46 1789.09 373 1775 379C1774.34 378.67 1773.68 378.34 1773 378C1774.03 377.2 1775.06 376.39 1776.13 375.56C1779.1 373.09 1780.71 370.84 1782.5 367.44C1785.24 363.02 1788.36 361.85 1793.19 360.5C1801.55 358.16 1808.61 354.27 1813.46 346.73C1814.82 343.83 1815.75 340.91 1816.61 337.82C1818.71 330.63 1822.55 322.74 1829.13 318.7C1830.43 318.14 1831.74 317.59 1833.07 317.08C1838.84 313.87 1841.31 305.32 1843.5 299.44C1843.79 298.67 1844.09 297.9 1844.39 297.1C1847.14 289.81 1849.62 282.43 1852 275Z" fill="#111111" fill-rule="evenodd"/>
      <path d="M1618 276C1618.33 276 1618.66 276 1619 276C1619 282.6 1619 289.2 1619 296C1618.67 296 1618.34 296 1618 296C1618 289.4 1618 282.8 1618 276Z" fill="#111111" fill-rule="evenodd"/>
      <path d="M1754 282C1755.65 282 1757.3 282 1759 282C1759 282.66 1759 283.32 1759 284C1757.35 284 1755.7 284 1754 284C1754 283.34 1754 282.68 1754 282Z" fill="#111111" fill-rule="evenodd"/>
      <path d="M1619 297C1626.26 297 1633.52 297 1641 297C1640.67 297.99 1640.34 298.98 1640 300C1637.69 300.33 1635.38 300.66 1633 301C1633.66 305.29 1634.32 309.58 1635 314C1634.34 314 1633.68 314 1633 314C1633 321.26 1633 328.52 1633 336C1623.98 324.72 1619 311.46 1619 297Z" fill="#111111" fill-rule="evenodd"/>
      <path d="M1803 297C1804.32 297.66 1805.64 298.32 1807 299C1806.01 301.97 1805.02 304.94 1804 308C1803.67 308 1803.34 308 1803 308C1803 305.03 1803 302.06 1803 299C1802.34 298.67 1801.68 298.34 1801 298C1801.66 297.67 1802.32 297.34 1803 297Z" fill="#111111" fill-rule="evenodd"/>
      <path d="M1730 302C1731.68 302.29 1733.34 302.62 1735 303C1735 303.99 1735 304.98 1735 306C1733.35 306.33 1731.7 306.66 1730 307C1729.44 305.06 1729.44 305.06 1729 303C1729.33 302.67 1729.66 302.34 1730 302Z" fill="#111111" fill-rule="evenodd"/>
      <path d="M1704 307C1705.98 307 1707.96 307 1710 307C1709.67 307.66 1709.34 308.32 1709 309C1707.35 308.67 1705.7 308.34 1704 308C1704 307.67 1704 307.34 1704 307Z" fill="#111111" fill-rule="evenodd"/>
      <path d="M1642 308C1647.28 308 1652.56 308 1658 308C1658 308.33 1658 308.66 1658 309C1652.72 309 1647.44 309 1642 309C1642 308.67 1642 308.34 1642 308Z" fill="#111111" fill-rule="evenodd"/>
      <path d="M1676 313C1676.66 313.33 1676.66 313.33 1680 315C1686.34 315.33 1686.34 315.33 1689 314C1691 313.9 1693 313.87 1695 313.88C1695.54 313.87 1695.54 313.87 1698.25 313.87C1701 314 1701 314 1703 315C1702.84 315.74 1702.67 316.49 1702.5 317.25C1702 320 1702 320 1702 324C1699.18 325.41 1696.77 325.13 1693.63 325.13C1692.48 325.13 1691.34 325.13 1690.16 325.13C1687.57 325.02 1685.46 324.77 1683 324C1683.33 325.65 1683.66 327.3 1684 329C1680.91 330.77 1679.77 331 1676 331C1676 325.06 1676 319.12 1676 313Z" fill="#111111" fill-rule="evenodd"/>
      <path d="M1751 314C1752.65 314 1754.3 314 1756 314C1756 316.31 1756 318.62 1756 321C1754.02 320.01 1752.04 319.02 1750 318C1750.33 316.68 1750.66 315.36 1751 314Z" fill="#111111" fill-rule="evenodd"/>
      <path d="M1756 322C1756 326.62 1756 331.24 1756 336C1744.95 336.3 1744.95 336.3 1741 334C1740.67 333.34 1740.34 332.68 1740 332C1737.29 331.69 1734.66 331.49 1731.94 331.38C1731.56 331.36 1731.56 331.36 1729.64 331.26C1727.76 331.16 1725.88 331.08 1724 331C1724 330.01 1724 329.02 1724 328C1724.81 327.79 1724.81 327.79 1728.88 326.73C1731 326 1731 326 1733.7 324.47C1737.81 322.64 1741.3 322.45 1745.75 322.31C1746.52 322.28 1747.28 322.24 1748.07 322.21C1750.72 322.1 1753.36 322 1756 322Z" fill="#111111" fill-rule="evenodd"/>
      <path d="M1680 334C1680.99 334.33 1681.98 334.66 1683 335C1682.67 335.66 1682.34 336.32 1682 337C1681.34 337 1680.68 337 1680 337C1680 336.01 1680 335.02 1680 334Z" fill="#111111" fill-rule="evenodd"/>
      <path d="M1702 335C1709.26 335 1716.52 335 1724 335C1724 335.33 1724 335.66 1724 336C1716.74 336 1709.48 336 1702 336C1702 335.67 1702 335.34 1702 335Z" fill="#111111" fill-rule="evenodd"/>
      <path d="M1734 337C1743.8 337 1752.48 338.25 1761.75 341.41C1764.24 342.06 1766.43 342.1 1769 342C1767.48 346.57 1764.15 347.84 1760 350C1756.3 351.6 1752.55 352.98 1748.75 354.31C1747.77 354.67 1746.79 355.03 1745.78 355.4C1741.58 356.91 1738.52 358 1734 358C1734 351.07 1734 344.14 1734 337Z" fill="#111111" fill-rule="evenodd"/>
      <path d="M1759 337C1766.26 337 1773.52 337 1781 337C1776.5 340.38 1776.5 340.38 1772.89 340.07C1772.51 340.05 1772.51 340.05 1770.61 339.91C1769.83 339.84 1769.05 339.76 1768.25 339.69C1767.46 339.63 1766.66 339.57 1765.85 339.5C1763.9 339.35 1761.95 339.18 1760 339C1759.67 338.34 1759.34 337.68 1759 337Z" fill="#111111" fill-rule="evenodd"/>
      <path d="M1787 350C1789.56 351.5 1789.56 351.5 1791 353C1785.79 354.69 1781.03 355.39 1775.56 355.63C1774.83 355.66 1774.1 355.7 1773.35 355.74C1771.56 355.84 1769.78 355.92 1768 356C1774.18 350.97 1778.98 348.97 1787 350Z" fill="#111111" fill-rule="evenodd"/>
      <path d="M1659 359C1659.99 359 1660.98 359 1662 359C1662 359.66 1662 360.32 1662 361C1661.01 360.67 1660.02 360.34 1659 360C1659 359.67 1659 359.34 1659 359Z" fill="#111111" fill-rule="evenodd"/>
      <path d="M1773 364C1773 364.99 1773 365.98 1773 367C1770.42 367.81 1767.83 368.63 1765.25 369.44C1764.52 369.67 1763.79 369.9 1763.04 370.14C1762.69 370.25 1762.69 370.25 1760.89 370.81C1760.57 370.91 1760.57 370.91 1758.92 371.43C1755.43 372.47 1752.4 373.12 1748.75 373.06C1748.13 373.05 1748.13 373.05 1745 373C1748.03 370.98 1750.27 370.23 1753.76 369.27C1754.88 368.96 1756 368.66 1757.15 368.34C1758.32 368.02 1759.49 367.7 1760.69 367.38C1761.28 367.21 1761.28 367.21 1764.26 366.39C1767.17 365.59 1770.09 364.79 1773 364Z" fill="#111111" fill-rule="evenodd"/>
      <path d="M1738 373C1740.31 373 1742.62 373 1745 373C1745 373.33 1745 373.66 1745 374C1742.69 374 1740.38 374 1738 374C1738 373.67 1738 373.34 1738 373Z" fill="#111111" fill-rule="evenodd"/>
      <path d="M1720 374C1725.94 374 1731.88 374 1738 374C1738 374.33 1738 374.66 1738 375C1732.06 375 1726.12 375 1720 375C1720 374.67 1720 374.34 1720 374Z" fill="#111111" fill-rule="evenodd"/>
      <path d="M1761 384C1754.71 386.43 1754.71 386.43 1751 385C1757.29 382.57 1757.29 382.57 1761 384Z" fill="#111111" fill-rule="evenodd"/>
    </g>
</svg>
