<?xml version="1.0" encoding="UTF-8"?>
<svg xmlns="http://www.w3.org/2000/svg" xmlns:inkscape="http://www.inkscape.org/namespaces/inkscape"
     viewBox="0 0 1388 2048" width="1388" height="2048">
<g id="layer-lower_frame_body" inkscape:label="Lower frame and soundboard" data-z="4" data-kind="component" data-regions="17" data-strokes="62">
      <path d="M442 392C447.83 392.52 452.37 394.22 457.63 396.75C458.36 397.09 459.1 397.42 459.86 397.77C460.58 398.11 461.3 398.45 462.04 398.8C462.68 399.1 463.32 399.4 463.98 399.71C467.51 401.96 470.51 403.88 471.5 408.17C471.76 410.92 471.85 413.62 471.89 416.38C471.91 416.89 471.91 416.89 472 419.49C472.1 422.85 472.18 426.2 472.25 429.56C472.32 431.9 472.39 434.24 472.46 436.58C472.64 442.35 472.79 448.13 472.93 453.9C473.03 458.18 473.15 462.45 473.27 466.73C473.38 471 473.5 475.27 473.61 479.54C473.94 492.25 474.5 504.94 475.07 517.64C475.99 538.42 476.64 559.22 477.24 580.02C477.3 582.03 477.36 584.04 477.42 586.05C477.49 588.5 477.57 590.95 477.63 593.4C477.8 598.97 478.02 604.52 478.35 610.08C479.11 622.65 479.41 635.23 479.72 647.82C479.78 650.33 479.85 652.84 479.91 655.35C480.04 660.6 480.17 665.86 480.3 671.12C480.46 677.68 480.63 684.24 480.8 690.79C482.1 742.04 483.09 793.3 483.56 844.56C483.57 845.65 483.58 846.73 483.59 847.85C484.06 897.42 484.11 946.99 484.12 996.56C484.12 1002.86 484.13 1009.16 484.13 1015.46C484.14 1026.49 484.14 1037.52 484.13 1048.56C484.13 1052.29 484.13 1056.02 484.14 1059.75C484.14 1064.09 484.14 1068.43 484.13 1072.76C484.13 1074.34 484.13 1075.92 484.13 1077.5C484.14 1079.65 484.13 1081.8 484.13 1083.96C484.13 1085.16 484.13 1086.36 484.13 1087.59C484 1091.12 483.56 1094.51 483 1098C475.57 1101.5 467.11 1102.72 459.17 1100.04C457 1099 457 1099 456 1098C455.9 1096.48 455.88 1094.95 455.88 1093.43C455.88 1092.43 455.88 1091.43 455.88 1090.41C455.88 1089.86 455.88 1089.86 455.89 1087.05C455.89 1085.89 455.89 1084.72 455.89 1083.52C455.89 1080.26 455.89 1077.01 455.9 1073.75C455.91 1070.24 455.91 1066.73 455.91 1063.22C455.91 1057.11 455.92 1051.01 455.93 1044.91C455.94 1035.99 455.94 1027.08 455.95 1018.17C455.96 1003.6 455.97 989.03 455.98 974.46C455.98 973.59 455.98 972.72 455.98 971.82C455.99 963.91 456 956 456.01 948.09C456.19 762.47 456.19 762.47 453.14 661.36C452.95 656.15 452.77 650.94 452.6 645.74C452.38 639.41 452.16 633.08 451.94 626.75C451.9 625.59 451.86 624.43 451.82 623.24C451.43 612.13 451.01 601.04 450.21 589.95C449.96 586.39 449.82 582.85 449.72 579.28C449.68 578 449.64 576.72 449.61 575.4C449.54 572.8 449.47 570.2 449.4 567.61C449.17 559.91 448.77 552.25 448.23 544.57C447.88 539.17 447.76 533.78 447.63 528.38C447.2 514.01 446.4 499.66 445.56 485.31C441.53 415.67 441.53 415.67 442 392Z" fill="#f7f6ef" fill-rule="evenodd"/>
      <path d="M598 505C602.75 505.1 605.09 505.68 608.44 509.13C609.01 509.76 609.59 510.39 610.18 511.04C612.02 513.02 613.95 514.75 616 516.5C616.33 516.79 616.33 516.79 618 518.26C619.34 519.42 620.69 520.56 622.06 521.68C622.38 521.96 622.38 521.96 624 523.38C624.58 523.86 625.16 524.34 625.75 524.84C629.02 530.5 626.7 540.07 626.01 546.4C625.91 547.39 625.81 548.37 625.7 549.38C625.48 551.48 625.26 553.58 625.04 555.68C624.45 561.21 623.87 566.74 623.3 572.27C623.19 573.37 623.07 574.47 622.96 575.6C622.01 584.77 621.16 593.94 620.38 603.13C619.49 613.46 618.57 623.8 617.56 634.13C617.44 635.39 617.32 636.66 617.19 637.96C616.51 644.91 615.81 651.85 615.1 658.79C612.94 679.87 611.03 700.96 609.24 722.07C607.81 739.02 606.26 755.95 604.56 772.88C602.63 792.24 600.83 811.61 599.13 831C599.06 831.71 599 832.41 598.94 833.14C597.38 850.85 595.86 868.57 594.38 886.28C594.31 887.1 594.24 887.92 594.17 888.76C593.53 896.38 592.9 903.99 592.26 911.61C590.44 933.4 588.55 955.18 586.59 976.95C586.49 978.09 586.39 979.22 586.28 980.39C585.27 991.61 584.25 1002.83 583.23 1014.05C582.85 1018.21 582.47 1022.37 582.09 1026.53C581.83 1029.38 581.57 1032.22 581.31 1035.06C581.15 1036.81 580.99 1038.57 580.83 1040.32C580.75 1041.15 580.68 1041.98 580.6 1042.84C580.25 1046.76 579.95 1050.68 579.74 1054.62C579.7 1055.34 579.66 1056.07 579.62 1056.82C579.52 1058.76 579.43 1060.7 579.35 1062.64C578.9 1066.99 578.35 1070.74 575.07 1073.79C566.02 1079.08 556.5 1081.62 546 1081C545.82 1073.55 546.38 1066.33 547.19 1058.94C548.71 1044.41 549.99 1029.87 551.25 1015.31C553.31 991.54 555.49 967.78 557.73 944.03C559.9 920.91 562.02 897.8 564.06 874.67C565.16 862.25 566.28 849.84 567.56 837.44C570.23 811.58 572.27 785.66 574.26 759.75C575.51 743.56 576.94 727.39 578.43 711.22C580.05 693.58 581.63 675.94 583.18 658.3C583.28 657.2 583.38 656.1 583.48 654.96C584.37 644.88 585.25 634.79 586.14 624.7C588.54 597.35 590.99 570.01 593.56 542.68C594.21 535.76 594.86 528.84 595.5 521.92C596.87 507.26 596.87 507.26 598 505Z" fill="#f7f6ef" fill-rule="evenodd"/>
      <path d="M784.19 536.53C788.51 537.25 790.39 540.31 793 543.56C794.15 544.94 795.3 546.32 796.45 547.7C797.03 548.42 797.62 549.13 798.22 549.86C800.49 552.59 802.81 555.25 805.15 557.91C809.84 563.27 814.44 568.69 818.85 574.28C821.68 577.86 824.56 581.4 827.44 584.94C828 585.63 828.57 586.33 829.15 587.04C832.3 590.91 835.46 594.77 838.63 598.63C846.88 608.71 854.83 619.04 862.76 629.38C864.02 631.03 865.29 632.67 866.57 634.32C871.84 641.12 876.99 648 882 655C882.2 655.28 882.2 655.28 883.21 656.68C896.44 675.14 909.27 693.95 921.48 713.09C923.54 716.32 925.68 719.5 927.81 722.68C931.97 728.9 935.91 735.24 939.81 741.63C940.51 742.77 941.21 743.91 941.91 745.06C943.3 747.32 944.69 749.59 946.08 751.86C947.77 754.62 949.46 757.37 951.16 760.13C956.29 768.43 961.22 776.81 965.95 785.34C967.76 788.59 969.65 791.8 971.56 795C975.37 801.48 978.67 808.19 981.98 814.93C983.65 818.31 985.32 821.69 987 825.06C987.33 825.72 987.66 826.39 988 827.07C989.95 830.97 991.97 834.82 994.05 838.64C997.57 845.1 1000.68 851.62 1003.57 858.38C1005.07 861.9 1006.62 865.35 1008.38 868.75C1034.76 920.49 1054.22 977.24 1070 1033C1070.36 1034.24 1070.71 1035.48 1071.08 1036.76C1086 1088.9 1096.94 1142.31 1104.7 1195.97C1104.99 1197.91 1105.28 1199.85 1105.57 1201.8C1108 1218.09 1109.7 1234.41 1111.19 1250.81C1111.23 1251.27 1111.23 1251.27 1111.44 1253.6C1113.8 1279.35 1114.21 1305.09 1114.19 1330.94C1114.19 1331.68 1114.19 1332.41 1114.19 1333.17C1114.18 1355.17 1114.06 1377.08 1112 1399C1111.97 1399.36 1111.97 1399.36 1111.8 1401.17C1105.72 1467.33 1092.16 1533.95 1068 1596C1067.21 1598.07 1066.41 1600.14 1065.62 1602.21C1043.43 1659.67 1043.43 1659.67 1031 1681C1029.35 1681 1027.7 1681 1026 1681C1026.56 1676.35 1027.46 1672.19 1029 1667.77C1029.41 1666.59 1029.82 1665.41 1030.24 1664.2C1030.45 1663.57 1030.67 1662.95 1030.89 1662.31C1059.96 1578.35 1067.99 1487.53 1063 1371C1062.9 1369.69 1062.8 1368.38 1062.69 1367.03C1060.34 1337.82 1056.82 1308.64 1051.88 1279.75C1051.81 1279.39 1051.81 1279.39 1051.5 1277.57C1050.2 1269.98 1048.69 1262.49 1046.75 1255.04C1045.93 1251.7 1045.26 1248.35 1044.61 1244.97C1042.8 1235.71 1040.5 1226.58 1038.19 1217.44C1037.96 1216.55 1037.74 1215.66 1037.51 1214.75C1036.19 1209.55 1034.87 1204.35 1033.55 1199.15C1032.86 1196.44 1032.18 1193.73 1031.5 1191.02C1026.39 1171.06 1019.53 1151.53 1013 1132C1012.89 1131.66 1012.89 1131.66 1012.31 1129.94C999.31 1091.02 983.56 1052.12 964.82 1015.61C962.79 1011.64 960.93 1007.6 959.06 1003.56C956.02 997.02 952.76 990.64 949.34 984.28C947.25 980.38 945.22 976.47 943.29 972.49C934.56 954.62 924.57 937.24 914.32 920.2C913.38 918.64 912.45 917.07 911.52 915.51C904.38 903.44 896.88 891.66 889 880.06C888.6 879.47 888.19 878.87 887.77 878.26C883.66 872.22 879.53 866.22 875 860.49C874 859 874 859 874 857C873.34 857 872.68 857 872 857C870.41 855.06 870.41 855.06 868.63 852.44C868.04 851.59 867.45 850.74 866.85 849.87C862.19 842.65 859.17 835.5 856.19 827.44C852.87 818.65 849.39 810.28 845.01 801.97C843.27 798.58 841.68 795.11 840.05 791.66C835.11 781.17 829.88 770.99 824 761C822.99 759.27 821.98 757.53 820.97 755.8C808.3 734.1 794.88 712.91 779.96 692.67C778.48 690.65 777.02 688.62 775.57 686.58C771.34 680.58 767.04 674.72 762.39 669.03C758.35 663.91 754.49 658.65 750.63 653.39C746.37 647.65 741.81 642.29 737 637C732 631.36 732 631.36 732 629C731.34 629 730.68 629 730 629C728.27 627.21 728.27 627.21 726.38 624.81C725.74 624.04 725.11 623.26 724.46 622.46C722.82 619.7 722.7 618.16 723 615C725.81 613.49 728.62 612 731.44 610.5C732.29 610.05 733.14 609.59 734.02 609.13C738.28 606.88 742.55 604.71 746.94 602.73C747.33 602.56 747.33 602.56 749.27 601.68C750.73 601.03 752.19 600.4 753.65 599.78C757.94 597.87 760.18 596.36 762 592C762.64 589.55 763.19 587.16 763.69 584.69C773.76 538.78 773.76 538.78 784.19 536.53Z" fill="#f7f6ef" fill-rule="evenodd"/>
      <path d="M739 654C741.13 653.53 741.13 653.53 744 654C746.34 656.23 748.1 658.85 749.94 661.5C750.44 662.2 750.94 662.89 751.45 663.61C752.46 665.02 753.47 666.44 754.46 667.87C755.5 669.3 756.59 670.71 757.72 672.07C758.26 672.74 758.81 673.41 759.38 674.09C759.88 674.68 760.38 675.26 760.9 675.87C763.61 681.13 761.72 687.05 760.2 692.45C760.1 692.81 760.1 692.81 759.62 694.61C759.2 696.16 758.78 697.71 758.36 699.26C757.2 703.48 756.07 707.71 754.94 711.93C754.7 712.82 754.46 713.72 754.21 714.63C751.16 726.05 748.34 737.53 745.51 749C743.04 759.02 740.48 769 737.69 778.94C736.19 784.26 734.85 789.61 733.63 795C731.87 802.57 729.93 810.07 727.88 817.56C724.61 829.5 721.61 841.49 718.63 853.5C715.39 866.53 712.11 879.54 708.63 892.5C704.12 909.29 699.94 926.15 695.74 943.01C692.76 955 689.74 966.98 686.63 978.94C683.42 991.25 680.4 1003.59 677.45 1015.96C677.19 1017.01 676.94 1018.06 676.68 1019.13C676.26 1020.91 675.85 1022.69 675.47 1024.47C674.03 1031.04 671.28 1033.18 666 1037C665.72 1037.21 665.72 1037.21 664.29 1038.26C662.37 1039.66 660.44 1041.02 658.5 1042.38C658.19 1042.6 658.19 1042.6 656.63 1043.71C652.06 1046.8 648.51 1047.67 643 1048C642.65 1041.1 643.94 1035.14 645.64 1028.47C645.92 1027.35 646.2 1026.23 646.48 1025.08C647.4 1021.41 648.32 1017.73 649.25 1014.06C649.9 1011.48 650.54 1008.89 651.18 1006.31C652.33 1001.69 653.48 997.08 654.63 992.47C657.2 982.23 659.72 971.98 662.23 961.73C662.95 958.78 663.67 955.82 664.39 952.87C667.14 941.68 669.85 930.48 672.56 919.27C679.33 891.17 686.19 863.08 693.23 835.04C696.59 821.67 699.92 808.29 703.2 794.9C703.55 793.44 703.91 791.98 704.27 790.52C704.44 789.8 704.62 789.07 704.8 788.32C705.7 784.65 706.6 780.98 707.5 777.31C707.59 776.95 707.59 776.95 708.04 775.12C713.49 752.85 719.18 730.65 725.08 708.49C729.53 691.75 733.79 675 737.48 658.08C738 656 738 656 739 654Z" fill="#f7f6ef" fill-rule="evenodd"/>
      <path d="M767 693C769.18 692.59 769.18 692.59 772 693C773.99 695.15 775.53 697.11 777.15 699.51C777.39 699.85 777.39 699.85 778.59 701.55C780.08 703.69 781.54 705.84 783 708C783.45 708.66 783.9 709.33 784.37 710.01C787.49 714.6 790.53 719.23 793.56 723.88C794.02 724.57 794.48 725.27 794.95 725.99C801.23 735.6 807.34 745.28 813 755.27C814.64 758.1 816.4 760.85 818.13 763.63C854.27 823.06 854.27 823.06 852 840C847.28 849.32 839.75 857.57 833.31 865.75C830.79 868.97 828.36 872.23 826 875.56C820.97 882.58 815.38 889.14 809.86 895.77C808.03 897.96 806.22 900.17 804.41 902.38C797.05 911.36 789.6 920.23 782 929C781.38 929.72 780.76 930.44 780.12 931.19C771.38 941.29 762.18 950.92 752.75 960.38C751.91 961.22 751.07 962.06 750.21 962.93C745.86 967.27 741.45 971.45 736.8 975.45C734.2 977.69 731.7 980.03 729.19 982.38C698.93 1010.28 698.93 1010.28 689 1011.31C688.34 1011.21 687.68 1011.11 687 1011C686.55 1004.23 688.22 998.2 689.9 991.67C690.21 990.44 690.52 989.21 690.84 987.95C691.69 984.58 692.54 981.22 693.4 977.86C694.31 974.31 695.2 970.76 696.1 967.21C697.61 961.22 699.13 955.23 700.65 949.24C702.8 940.81 704.93 932.38 707.06 923.94C719.15 876.13 719.15 876.13 725.38 852.37C730.3 833.58 735.08 814.75 739.77 795.9C743.37 781.49 747.02 767.09 750.87 752.75C752.79 745.62 754.66 738.48 756.47 731.32C756.68 730.49 756.9 729.66 757.11 728.8C757.99 725.37 758.86 721.95 759.72 718.52C760.36 715.97 761.01 713.43 761.66 710.88C761.76 710.5 761.76 710.5 762.24 708.58C763.59 703.3 765.22 698.15 767 693Z" fill="#f7f6ef" fill-rule="evenodd"/>
      <path d="M857.39 848.38C861.27 849.3 862.84 851.91 865.06 855C865.3 855.31 865.3 855.31 866.48 856.89C867.48 858.23 868.48 859.57 869.46 860.92C871 863 872.56 865.05 874.14 867.11C879.13 873.63 883.92 880.18 888.23 887.18C889.96 889.94 891.76 892.64 893.59 895.34C898.6 902.77 903.31 910.34 907.85 918.06C909.14 920.24 910.46 922.41 911.77 924.57C915.98 931.59 920 938.72 924.04 945.83C925.07 947.64 926.1 949.44 927.12 951.25C927.46 951.83 927.79 952.41 928.13 953.01C930.13 956.51 932.18 959.98 934.27 963.43C936.6 967.27 938.66 971.15 940.62 975.19C943.97 982 947.46 988.72 951 995.44C955.51 1004.04 959.81 1012.7 963.85 1021.53C965.18 1024.39 966.53 1027.23 967.89 1030.08C976.59 1048.46 984.48 1067.11 992 1086C992.14 1086.35 992.14 1086.35 992.85 1088.13C1000.94 1108.5 1008.22 1129.07 1015 1149.91C1016.36 1154.08 1017.76 1158.23 1019.21 1162.37C1024.97 1178.87 1029.26 1195.69 1033.42 1212.64C1034 1215.01 1034.59 1217.38 1035.18 1219.75C1055.62 1302.33 1063.87 1387.3 1032 1647C1031.73 1647.83 1031.45 1648.65 1031.17 1649.51C1028.81 1656.68 1026.41 1663.84 1024 1671C1023.66 1672.02 1023.32 1673.03 1022.97 1674.08C1018.84 1686.33 1014.39 1698.25 1009 1710C1008.29 1711.63 1007.58 1713.27 1006.88 1714.9C1002.99 1723.87 998.73 1732.53 994.08 1741.12C992.33 1744.35 990.71 1747.62 989.12 1750.94C979.18 1770.94 965.82 1789.52 952 1807C951.11 1808.16 950.21 1809.32 949.32 1810.48C944.3 1817.02 939.1 1823.27 933.44 1829.27C930.09 1832.82 930.09 1832.82 929 1835C928.34 1835 927.68 1835 927 1835C927 1835.66 927 1836.32 927 1837C926.34 1837 925.68 1837 925 1837C925 1837.66 925 1838.32 925 1839C924.34 1839 923.68 1839 923 1839C923 1839.66 923 1840.32 923 1841C922.34 1841 921.68 1841 921 1841C921 1841.66 921 1842.32 921 1843C920.34 1843 919.68 1843 919 1843C919 1843.66 919 1844.32 919 1845C918.34 1845 917.68 1845 917 1845C917 1845.66 917 1846.32 917 1847C915.71 1848.34 915.71 1848.34 913.81 1849.94C913.07 1850.56 912.34 1851.19 911.57 1851.83C911.15 1852.19 911.15 1852.19 909 1854C908.08 1854.81 907.16 1855.62 906.21 1856.45C871.91 1886.38 830.61 1909.95 787 1923C786.12 1923.27 785.25 1923.53 784.34 1923.81C770.1 1928.09 755.75 1931.06 741 1933C740.68 1933.04 740.68 1933.04 739.04 1933.26C726.05 1934.97 713.18 1935.34 700.1 1935.32C696.83 1935.31 693.57 1935.34 690.31 1935.36C675.67 1935.4 661.47 1934.2 647 1932C646.01 1931.85 645.03 1931.7 644.01 1931.55C589.9 1923.23 537.77 1903.49 490 1877C489.2 1876.56 488.41 1876.12 487.59 1875.67C439.39 1848.89 395.17 1817.07 354.34 1780.08C352.39 1778.35 350.41 1776.69 348.37 1775.06C347.59 1774.38 346.81 1773.7 346 1773C346 1772.34 346 1771.68 346 1771C345.42 1770.74 344.83 1770.48 344.23 1770.21C341.84 1768.91 340.27 1767.51 338.36 1765.59C338.02 1765.25 338.02 1765.25 336.3 1763.53C335.6 1762.82 334.91 1762.11 334.19 1761.37C333.5 1760.69 332.81 1760 332.11 1759.29C328.12 1755.27 324.32 1751.15 320.62 1746.86C318.27 1744.16 315.82 1741.55 313.37 1738.94C304.25 1729.09 295.36 1719.1 287.42 1708.26C285.05 1705.04 282.58 1701.91 280.1 1698.77C268.07 1683.5 257.12 1667.66 247.18 1650.96C245.53 1648.22 243.83 1645.52 242.12 1642.81C229.06 1621.56 217.22 1599.45 206.78 1576.8C205.19 1573.35 203.45 1569.99 201.69 1566.62C197.62 1558.58 194.33 1550.22 190.99 1541.86C188.89 1536.59 186.75 1531.38 184.37 1526.23C182.22 1521.56 180.4 1516.86 178.75 1512C178.46 1511.15 178.17 1510.3 177.87 1509.42C177.23 1507.58 176.61 1505.73 175.98 1503.88C174.99 1500.97 173.98 1498.06 172.97 1495.14C168.17 1481.14 163.85 1467.02 159.69 1452.81C159.56 1452.38 159.56 1452.38 158.92 1450.19C156.38 1441.55 153.91 1432.91 151.64 1424.2C151.48 1423.59 151.48 1423.59 150.68 1420.49C149.97 1416.86 149.71 1413.68 150 1410C152.41 1407.78 152.41 1407.78 155.62 1405.94C159.34 1403.69 162.64 1401.67 165.62 1398.5C166.41 1397.67 167.19 1396.85 168 1396C168.66 1396 169.32 1396 170 1396C170 1395.34 170 1394.68 170 1394C170.74 1393.28 171.48 1392.56 172.25 1391.81C181.17 1382.69 180.16 1371.53 180.75 1359.48C180.82 1358.17 180.88 1356.86 180.95 1355.52C181.16 1351.26 181.36 1347.01 181.56 1342.75C181.6 1342.03 181.63 1341.31 181.66 1340.56C182.58 1320.98 183.31 1301.42 183.37 1281.81C183.38 1280.88 183.39 1279.94 183.4 1278.97C183.42 1276.36 183.41 1273.75 183.4 1271.14C183.4 1270.77 183.4 1270.77 183.42 1268.88C183.35 1264.17 182.3 1261.08 180 1257C180 1256.34 180 1255.68 180 1255C179.26 1254.71 178.51 1254.42 177.75 1254.12C175 1253 175 1253 173.19 1251.81C168.57 1250.1 162.72 1251.97 158 1253C158 1253.66 158 1254.32 158 1255C157.01 1255 156.02 1255 155 1255C154.73 1255.61 154.47 1256.22 154.19 1256.85C153 1259 153 1259 149.94 1261.44C142.89 1267.21 137.87 1275.87 134 1284C132.35 1284 130.7 1284 129 1284C128.86 1281.44 128.77 1278.88 128.69 1276.31C128.65 1275.59 128.6 1274.87 128.56 1274.13C128.47 1270.24 128.6 1268.52 131.01 1265.34C134.64 1262.5 138.32 1259.79 142.12 1257.19C142.84 1256.69 143.56 1256.18 144.29 1255.67C144.98 1255.19 145.67 1254.72 146.38 1254.23C147.01 1253.8 147.63 1253.37 148.27 1252.93C150 1252 150 1252 153 1252C153 1251.34 153 1250.68 153 1250C153.99 1250 154.98 1250 156 1250C156 1249.34 156 1248.68 156 1248C158.47 1246.21 160.93 1244.56 163.5 1242.94C164.26 1242.45 165.03 1241.96 165.82 1241.46C191 1225.56 191 1225.56 205.37 1222.75C210.48 1221.51 210.48 1221.51 212.54 1219.49C213.71 1217.35 214.37 1215.36 215 1213C215.28 1212.06 215.56 1211.12 215.85 1210.15C219.54 1196.24 220.91 1182.57 213.75 1169.62C211.18 1165.88 208.41 1163.31 204 1162C189.44 1159.72 175.82 1167.27 164 1175C160.17 1177.83 156.57 1180.85 153 1184C152.12 1184.77 151.25 1185.53 150.34 1186.32C137.92 1197.34 137.92 1197.34 133.87 1202.94C132 1205 132 1205 129.38 1205.13C128.6 1205.09 127.81 1205.04 127 1205C128.31 1127.3 128.31 1127.3 144 1100C148.93 1099.83 152.98 1100.32 157.71 1101.69C159.03 1102.06 160.35 1102.43 161.67 1102.79C162.36 1102.99 163.05 1103.19 163.77 1103.39C214.74 1117.74 267.44 1123.82 320 1129C320.79 1129.08 321.58 1129.16 322.4 1129.24C358.82 1132.88 396.57 1132.51 433 1129C434.03 1128.9 435.07 1128.81 436.13 1128.71C462.19 1126.18 488.74 1121.93 514 1115C514.5 1114.86 514.5 1114.86 517.06 1114.17C553.68 1104.03 587.84 1089.4 621 1071C621.76 1070.58 622.52 1070.16 623.3 1069.73C627.24 1067.55 631.13 1065.3 635 1063C635.7 1062.58 636.41 1062.17 637.13 1061.74C645.66 1056.66 653.99 1051.59 661.74 1045.36C664.38 1043.77 665.97 1043.72 669 1044C669.32 1046.17 669.32 1046.17 669 1049C666.84 1051.61 666.84 1051.61 663.94 1054.31C662.91 1055.29 661.89 1056.27 660.87 1057.25C660.39 1057.7 660.39 1057.7 658 1060C655.58 1062.59 653.3 1065.3 651 1068C650.11 1069.01 649.22 1070.03 648.33 1071.04C633.52 1087.97 620.96 1106.02 610.22 1125.77C609.38 1127.3 608.53 1128.84 607.68 1130.37C596.13 1151.12 586.15 1174.46 582 1198C575.4 1198.62 571.1 1196.51 565.25 1193.62C536.88 1180.23 507.12 1171.09 476 1167C475.36 1166.91 474.72 1166.83 474.06 1166.74C462.05 1165.16 450.18 1164.6 438.06 1164.62C437.17 1164.62 436.29 1164.63 435.37 1164.63C381.84 1164.75 330.66 1183.28 292.54 1221.46C290.86 1223.14 289.15 1224.79 287.41 1226.41C273.9 1239.27 262.96 1254.68 254 1271C253.59 1271.74 253.18 1272.48 252.75 1273.25C247.08 1283.55 241.85 1293.86 238 1305C237.75 1305.73 237.5 1306.45 237.24 1307.2C230.55 1326.9 227.35 1347.23 227 1368C226.99 1368.45 226.99 1368.45 226.94 1370.75C226.14 1409.76 230.9 1448.11 240 1486C240.28 1487.18 240.56 1488.37 240.85 1489.59C244.46 1504.49 248.82 1518.98 254.06 1533.37C254.31 1534.05 254.55 1534.72 254.8 1535.41C258.47 1545.45 262.65 1555.23 267 1565C267.72 1566.67 268.44 1568.35 269.16 1570.02C275.28 1584.13 282.53 1597.57 290 1611C290.44 1611.79 290.88 1612.59 291.33 1613.41C302.42 1633.37 315.79 1652.15 330 1670C330.27 1670.34 330.27 1670.34 331.64 1672.07C338.76 1681.05 346.16 1689.63 354 1698C355.36 1699.5 356.72 1701 358.07 1702.49C363.8 1708.79 369.74 1714.85 375.75 1720.87C376.15 1721.27 376.15 1721.27 378.15 1723.29C382.38 1727.51 386.69 1731.58 391.22 1735.47C393.05 1737.04 394.84 1738.64 396.62 1740.25C401.97 1744.93 407.6 1749.26 413.21 1753.61C414.88 1754.91 416.54 1756.21 418.2 1757.51C438.98 1773.71 460.97 1787.25 484 1800C484.39 1800.22 484.39 1800.22 486.38 1801.33C531.96 1826.61 586.56 1842.19 638.69 1842.18C641.23 1842.19 643.77 1842.21 646.32 1842.22C656.72 1842.26 666.71 1841.57 677 1840C677.98 1839.86 678.97 1839.72 679.98 1839.57C702.81 1836.21 724.9 1830.36 746 1821C746.38 1820.83 746.38 1820.83 748.32 1819.98C757.36 1815.98 765.84 1811.61 774 1806C775.06 1805.3 776.12 1804.6 777.21 1803.88C783.4 1799.74 789.15 1795.34 794.6 1790.24C796.21 1788.74 797.85 1787.26 799.52 1785.82C805.79 1780.4 810.96 1774.57 816 1768C816.44 1767.44 816.88 1766.88 817.33 1766.3C832.96 1746.38 842.54 1722.87 847 1698C847.14 1697.22 847.29 1696.44 847.43 1695.63C849.69 1683.13 851.15 1670.92 851.2 1658.19C851.21 1657.09 851.22 1655.98 851.22 1654.83C851.24 1651.26 851.25 1647.69 851.25 1644.12C851.25 1642.91 851.25 1641.69 851.25 1640.43C851.24 1623.87 851.02 1607.57 848.49 1591.17C847.96 1587.74 847.5 1584.3 847.04 1580.86C841.06 1538.32 828.59 1496.17 811 1457C810.68 1456.28 810.35 1455.55 810.02 1454.81C805.64 1445.06 800.85 1435.51 796 1426C795.64 1425.28 795.27 1424.56 794.9 1423.81C784.25 1402.8 771.78 1383.08 758 1364C757.04 1362.66 756.09 1361.32 755.13 1359.98C748.9 1351.31 742.26 1343.01 735.46 1334.78C734.19 1333.23 732.95 1331.67 731.7 1330.11C722.46 1318.51 712.01 1307.94 701.56 1297.44C700.92 1296.79 700.29 1296.15 699.63 1295.49C695.84 1291.71 691.93 1288.13 687.88 1284.63C685.26 1282.35 682.73 1279.99 680.19 1277.62C676.31 1274.04 672.35 1270.59 668.25 1267.25C667.36 1266.51 666.48 1265.77 665.56 1265.02C663 1263 663 1263 660.5 1261.48C657.94 1259.79 656.62 1258.62 655 1256C654.84 1253.31 654.87 1250.99 655.1 1248.33C655.16 1247.58 655.21 1246.83 655.27 1246.06C655.97 1237.84 657.47 1229.82 659.12 1221.75C659.44 1220.17 659.76 1218.59 660.07 1217.02C664.98 1192.74 671.25 1168.92 678.34 1145.2C679.27 1142.08 680.2 1138.96 681.12 1135.83C686.4 1117.97 691.85 1100.18 697.64 1082.48C708.08 1050.56 708.08 1050.56 708.25 1038.44C708.26 1037.89 708.26 1037.89 708.33 1035.12C708 1032 708 1032 705 1027C700.38 1027.33 695.76 1027.66 691 1028C691 1023 691 1023 692.38 1021.46C693.03 1021.03 693.67 1020.6 694.34 1020.16C695.07 1019.66 695.79 1019.16 696.54 1018.65C696.93 1018.39 696.93 1018.39 698.94 1017.06C700.59 1015.92 702.24 1014.78 703.88 1013.63C704.73 1013.04 705.57 1012.45 706.45 1011.84C710.56 1008.87 714.47 1005.68 718.37 1002.44C719.08 1001.85 719.79 1001.27 720.52 1000.67C723.25 998.39 725.86 996.14 728.35 993.6C730 992 730 992 732 992C732 991.34 732 990.68 732 990C733.29 988.69 733.29 988.69 735.19 987.12C744.99 978.75 754.24 969.85 763.37 960.75C763.8 960.33 763.8 960.33 765.93 958.21C770.83 953.3 775.48 948.26 780 943C781.45 941.39 782.91 939.79 784.37 938.19C789.11 932.94 793.56 927.49 798 922C799.46 920.23 800.92 918.46 802.37 916.69C806.19 912.02 809.92 907.29 813.63 902.55C817.22 897.96 820.88 893.44 824.56 888.94C831.53 880.4 838.4 871.81 844.69 862.75C845.79 861.17 846.9 859.58 848 858C848.6 857.14 849.19 856.27 849.81 855.38C850.41 854.55 851.01 853.73 851.62 852.87C852.15 852.13 852.68 851.38 853.23 850.62C855 849 855 849 857.39 848.38ZM764 1037C763.26 1037.72 762.52 1038.44 761.76 1039.18C752.65 1048.07 743.79 1056.91 736 1067C734.56 1068.71 733.13 1070.42 731.69 1072.12C712.07 1096.19 694.29 1124.55 683.78 1153.83C682.82 1156.49 681.82 1159.12 680.82 1161.76C676.25 1174 672.21 1186.19 669.44 1198.97C669.07 1200.68 668.67 1202.39 668.26 1204.09C666.83 1210.88 666.77 1217.71 666.69 1224.62C666.67 1225.59 666.65 1226.56 666.63 1227.55C666.65 1241.67 672.2 1252.08 681.5 1262.37C681.95 1262.87 682.4 1263.37 682.87 1263.89C687.68 1269.04 692.26 1272.61 699.35 1273.1C705.04 1272.89 710.51 1271.41 716 1270C716.39 1269.9 716.39 1269.9 718.38 1269.39C723.22 1268.15 728.06 1266.91 732.88 1265.56C734.86 1265.04 736.87 1264.66 738.88 1264.28C742 1263 742 1263 743.76 1260.25C745.75 1254.37 746.68 1248.14 747.81 1242.06C748.34 1239.33 748.88 1236.59 749.42 1233.86C749.55 1233.18 749.69 1232.5 749.83 1231.8C756.05 1200.59 765.54 1169.72 774.97 1139.35C805.38 1040.59 805.38 1040.59 799.81 1026C797.83 1022.71 796.32 1020.93 793 1019C781.29 1017.88 771.76 1029.42 764 1037ZM837 1044C816.39 1070.71 815.21 1109.05 819.19 1141.19C820.78 1152.95 823.21 1164.47 826 1176C826.24 1177.02 826.47 1178.04 826.72 1179.09C831.49 1199.43 838.36 1218.95 845.27 1238.64C877.07 1329.32 877.07 1329.32 862.21 1368.75C859.89 1375.18 859.89 1375.18 860.36 1378.73C862.8 1382.11 865.8 1384.65 868.94 1387.37C910.47 1425.04 920.13 1497.79 925 1551C925.13 1552.41 925.27 1553.81 925.41 1555.22C930.13 1604.94 929.97 1654.51 918.02 1703.24C914.14 1719.17 914.14 1719.17 916.44 1724.06C916.95 1724.7 917.47 1725.34 918 1726C920.96 1725.68 921.92 1725.09 923.96 1722.86C945.48 1692.77 943.56 1640.36 943 1605C942.99 1604.01 942.97 1603.03 942.96 1602.01C942.63 1580.57 940.67 1559.3 938.78 1537.96C928.9 1425.87 928.9 1425.87 938.63 1373.91C938.75 1372.95 938.88 1371.99 939 1371C939.08 1370.68 939.08 1370.68 939.47 1369.08C939.88 1366.35 939.79 1364.66 939 1362C936 1358.08 932.56 1354.78 928.94 1351.44C926 1348.71 923.13 1345.91 920.25 1343.11C919.69 1342.57 919.13 1342.03 918.55 1341.48C913.18 1336.28 908.51 1330.81 904.2 1324.7C902.85 1322.78 901.45 1320.9 900.05 1319.02C889.08 1304.08 880.8 1288.04 873.07 1271.25C871.99 1268.98 870.83 1266.76 869.66 1264.54C865.91 1257.07 863.11 1249.2 860.19 1241.37C859.88 1240.55 859.57 1239.73 859.25 1238.89C851.24 1217.54 843.99 1196.28 839 1174C838.8 1173.1 838.6 1172.2 838.39 1171.28C831.78 1141.01 828.95 1105.54 839.45 1075.78C840 1074 840 1074 840 1071C845.4 1072.22 848.38 1073.76 852.56 1077.56C856.97 1081.43 861.5 1084.84 866.44 1088C867.02 1088.37 867.6 1088.75 868.19 1089.13C873.96 1092.76 879.06 1095.1 886 1094C891.96 1090.9 895.44 1086.94 897.75 1080.69C900.8 1070.59 898.48 1060.64 893.59 1051.48C887.77 1042.4 879.21 1036.53 868.93 1033.36C856.91 1031.1 845.48 1035.34 837 1044Z" fill="#f7f6ef" fill-rule="evenodd"/>
      <path d="M793 1027C794 1028 794 1028 794.5 1030.13C793.69 1034.75 790.37 1036.94 786.94 1039.94C786.28 1040.53 785.62 1041.13 784.95 1041.74C781.15 1045.16 777.28 1048.48 773.35 1051.74C772 1053 772 1053 771 1055C770.34 1055 769.68 1055 769 1055C768.77 1055.55 768.55 1056.09 768.32 1056.65C766.61 1059.7 764.33 1062.05 761.94 1064.56C752.25 1074.97 743.84 1086.12 735.63 1097.71C734.52 1099.27 733.41 1100.82 732.29 1102.37C727.78 1108.65 723.88 1115.17 720.13 1121.94C719.52 1123.04 718.91 1124.13 718.28 1125.27C696.43 1164.97 682.59 1205.52 683 1251C681.35 1251 679.7 1251 678 1251C677.19 1249.4 676.37 1247.79 675.56 1246.19C675.11 1245.29 674.66 1244.4 674.19 1243.48C667.21 1228.95 672.01 1207.02 676 1192C676.2 1191.21 676.41 1190.42 676.62 1189.61C684.07 1161.25 696.59 1134.81 712 1110C712.64 1108.95 713.28 1107.9 713.94 1106.82C718.84 1098.89 724.41 1091.45 730 1084C730.62 1083.18 731.24 1082.35 731.88 1081.5C774.5 1025.77 774.5 1025.77 793 1027Z" fill="#f7f6ef" fill-rule="evenodd"/>
      <path d="M701 1034C701.32 1036.69 701.32 1036.69 701 1040C698.83 1042.5 698.83 1042.5 695.81 1045C690.97 1049.15 686.5 1053.48 682.19 1058.19C681.64 1058.79 681.08 1059.39 680.51 1060.01C679 1061.67 677.5 1063.33 676 1065C675.33 1065.74 674.67 1066.48 673.98 1067.25C672.29 1069.15 670.64 1071.07 669 1073C668.28 1073.84 667.56 1074.68 666.82 1075.55C653.6 1091.18 641.44 1107.47 631.1 1125.15C630.11 1126.82 629.09 1128.47 628.07 1130.13C614.36 1152.89 604.1 1179.14 598 1205C597.79 1205.86 597.58 1206.71 597.36 1207.6C595.08 1217.15 594.77 1226.79 594.44 1236.56C594.39 1237.76 594.35 1238.96 594.31 1240.2C594.2 1243.13 594.1 1246.07 594 1249C592.35 1249 590.7 1249 589 1249C577.19 1225.04 585.43 1196.51 593.48 1172.64C596.5 1163.82 599.66 1155.17 604.01 1146.9C605.18 1144.65 606.32 1142.38 607.45 1140.11C618.67 1117.96 632.2 1097.82 648.41 1079.03C650.88 1076.15 653.26 1073.21 655.63 1070.25C662.04 1062.39 669.28 1055.55 677 1049C678.06 1048.09 679.12 1047.18 680.18 1046.26C681.33 1045.28 682.48 1044.3 683.63 1043.31C684.16 1042.85 684.7 1042.39 685.26 1041.91C695.34 1033.33 695.34 1033.33 701 1034Z" fill="#f7f6ef" fill-rule="evenodd"/>
      <path d="M879 1048C884.99 1051.95 889.74 1057.11 892 1064C892.83 1069.68 893.43 1075.86 890.06 1080.81C886.55 1083.32 884.74 1083.9 880.5 1083.56C869.38 1081.06 859.82 1071.84 851 1065C850.51 1064.62 850.51 1064.62 848.01 1062.7C841.07 1057.35 841.07 1057.35 840.44 1054.25C841 1051 841 1051 842.57 1049.56C853.93 1042.29 867.01 1041.68 879 1048Z" fill="#f7f6ef" fill-rule="evenodd"/>
      <path d="M635 1045C635.33 1048.3 635.66 1051.6 636 1055C624.75 1063.19 612.85 1069.77 600.37 1075.85C598.71 1076.65 597.06 1077.47 595.41 1078.28C581.21 1085.31 566.88 1091.57 552 1097C551.07 1097.34 550.14 1097.68 549.19 1098.03C520.34 1108.52 489.93 1114.92 459.56 1119.06C459.01 1119.14 459.01 1119.14 456.23 1119.52C453.01 1119.94 449.79 1120.33 446.56 1120.7C444.69 1120.92 442.82 1121.14 440.96 1121.37C420.75 1123.81 400.87 1124.44 380.54 1124.32C377.48 1124.31 374.41 1124.31 371.35 1124.32C353.15 1124.34 335.13 1123.83 317 1122C315.93 1121.89 314.86 1121.79 313.76 1121.68C306.04 1120.89 298.33 1120.02 290.63 1119.13C289.47 1118.99 288.31 1118.86 287.12 1118.72C270.04 1116.76 252.98 1114.73 236 1112C235.36 1111.9 234.71 1111.8 234.05 1111.69C217.09 1108.99 200.22 1105.98 183.44 1102.31C182.77 1102.17 182.11 1102.02 181.43 1101.88C174.56 1100.37 167.78 1098.76 161.08 1096.61C158.07 1095.73 155.11 1095.34 152 1095C151.53 1092.36 151.53 1092.36 152 1089C154.2 1086.65 156.86 1085.04 159.56 1083.31C161.13 1082.26 162.7 1081.21 164.27 1080.16C165.07 1079.63 165.86 1079.1 166.68 1078.56C170.1 1076.26 173.39 1073.79 176.69 1071.31C179.12 1069.53 181.56 1067.76 184 1066C184.62 1065.55 185.23 1065.11 185.87 1064.65C187.69 1063.35 189.52 1062.08 191.38 1060.81C192.44 1060.08 193.49 1059.34 194.59 1058.58C202.27 1055.02 209.84 1057.44 217.69 1059.5C235.01 1063.85 252.5 1067.44 270 1071C271.24 1071.25 272.47 1071.5 273.74 1071.76C304.72 1077.99 336.07 1081.65 367.58 1083.83C369.48 1083.96 371.39 1084.11 373.3 1084.26C382.35 1084.92 391.32 1085.12 400.4 1085.06C401.8 1085.06 403.21 1085.05 404.62 1085.05C409.02 1085.04 413.42 1085.02 417.81 1085C422.96 1084.98 428.11 1084.96 433.26 1084.94C435.3 1084.94 437.35 1084.93 439.4 1084.91C440.02 1084.91 440.02 1084.91 443.14 1084.9C444.22 1084.9 445.31 1084.89 446.43 1084.89C449 1085 449 1085 451 1086C450.98 1086.39 450.98 1086.39 450.9 1088.38C450.6 1099.84 450.6 1099.84 454 1105C460.21 1109.28 467.72 1108.61 475 1108C480.25 1106.98 484.81 1105.53 488 1101C489.37 1095.79 489.26 1090.44 489.43 1085.08C489.62 1084.07 489.81 1083.05 490 1082C492.88 1080.1 495.74 1079.56 499.11 1079.04C500.11 1078.88 501.1 1078.72 502.13 1078.55C503.18 1078.39 504.23 1078.23 505.31 1078.06C513.56 1076.75 521.73 1075.32 529.88 1073.52C533.3 1072.95 536.54 1072.91 540 1073C540 1077.29 540 1081.58 540 1086C548.32 1090.16 556.61 1087.34 565.1 1084.66C578.67 1079.95 578.67 1079.95 582 1074C582.4 1071.21 582.56 1068.47 582.69 1065.66C584.58 1061.83 587.06 1061.38 590.98 1060.01C591.48 1059.84 591.48 1059.84 594 1059C596.19 1058.19 598.38 1057.38 600.57 1056.56C604.08 1055.28 607.59 1053.99 611.1 1052.71C616.87 1050.59 622.51 1048.44 628.02 1045.7C630 1045 630 1045 635 1045Z" fill="#f7f6ef" fill-rule="evenodd"/>
      <path d="M197.13 1170.69C198.3 1170.67 199.48 1170.65 200.7 1170.64C205.15 1171.13 207.73 1172.69 210.81 1175.88C212.25 1178.45 212.31 1180.09 212 1183C210.34 1184.66 208.1 1184.41 205.81 1184.69C177.76 1189.37 154.69 1212.75 138.38 1234.69C133.19 1242.32 129.18 1250.78 125 1259C122.12 1259.12 122.12 1259.12 119 1259C116.13 1256.13 115.76 1253.28 115.56 1249.38C116.25 1229.12 132.86 1212.76 146 1199C146.54 1198.44 147.07 1197.87 147.63 1197.29C151.68 1193.14 155.92 1189.47 160.56 1186C161.25 1185.48 161.94 1184.97 162.65 1184.44C172.9 1176.96 184.14 1170.73 197.13 1170.69Z" fill="#f7f6ef" fill-rule="evenodd"/>
      <path d="M509 1183C509.5 1183.12 509.5 1183.12 512.03 1183.75C528.02 1187.75 542.98 1193.25 558 1200C558.87 1200.39 559.75 1200.78 560.65 1201.18C563.04 1202.25 565.43 1203.34 567.81 1204.44C568.51 1204.76 569.2 1205.07 569.91 1205.4C576.56 1208.55 576.56 1208.55 578 1211C578.14 1213.8 578.13 1216.41 578 1219.19C577.61 1237.58 582.02 1253.32 595 1267C603.36 1274.45 610.79 1275.79 621.84 1275.2C630.17 1274.42 638.46 1271.78 645.78 1267.73C649.22 1266.6 652.46 1266.36 656 1267C658.47 1268.59 660.24 1269.95 662.31 1271.94C663.45 1272.96 664.59 1273.99 665.72 1275.02C666.28 1275.53 666.83 1276.04 667.41 1276.56C669.61 1278.55 671.92 1280.36 674.25 1282.19C690.92 1295.79 707.57 1311.37 720.83 1328.33C723.42 1331.51 726.19 1334.46 729 1337.44C733.98 1342.76 738.47 1348.29 742.73 1354.22C744.21 1356.29 745.7 1358.35 747.2 1360.4C750.48 1364.92 753.75 1369.46 757 1374C757.34 1374.48 757.34 1374.48 759.07 1376.88C763.56 1383.21 767.76 1389.72 771.91 1396.28C772.9 1397.84 773.9 1399.39 774.9 1400.94C784.35 1415.89 792.71 1431.65 800.02 1447.76C801.14 1450.21 802.32 1452.61 803.56 1455.01C808.28 1464.12 811.96 1473.39 815.38 1483.06C815.65 1483.84 815.93 1484.62 816.22 1485.42C827.96 1518.37 837 1551.33 842 1586C842.08 1586.56 842.08 1586.56 842.51 1589.37C845.11 1607.42 845.33 1625.48 845.44 1643.69C845.44 1644.26 845.44 1644.26 845.48 1647.17C845.83 1687.05 838.63 1728.29 813 1760C812.59 1760.52 812.18 1761.03 811.76 1761.57C807.23 1767.27 802.66 1772.69 797.01 1777.32C795 1779 795 1779 793.02 1780.93C780.18 1793.34 764.19 1802.67 748 1810C746.7 1810.61 745.39 1811.22 744.09 1811.82C723.99 1821.05 703.1 1826 681.38 1829.75C680.71 1829.87 680.05 1829.98 679.37 1830.1C667.46 1832.04 655.44 1832.19 643.4 1832.19C640.9 1832.19 638.4 1832.21 635.9 1832.23C619.79 1832.28 604.04 1830.64 588.19 1827.75C587.59 1827.64 587.59 1827.64 584.59 1827.1C525.42 1816 469.54 1786.22 422 1750C420.77 1749.07 419.53 1748.14 418.3 1747.22C412.73 1742.97 407.33 1738.63 402.16 1733.91C399.95 1731.95 397.65 1730.17 395.31 1728.38C390.16 1724.32 385.64 1719.75 381.05 1715.08C377.42 1711.4 373.73 1707.91 369.79 1704.57C364.37 1699.83 359.51 1694.56 354.83 1689.11C352.85 1686.82 350.8 1684.6 348.75 1682.38C343.71 1676.78 339.09 1670.9 334.49 1664.94C332.96 1662.95 331.41 1660.97 329.87 1658.99C313.7 1638.21 299.7 1616.21 287.14 1593.09C286.09 1591.16 285.02 1589.25 283.95 1587.34C275.2 1571.61 268.5 1554.76 262 1538C261.54 1536.81 261.07 1535.62 260.6 1534.4C256.9 1524.81 253.78 1515.14 251 1505.25C250.79 1504.49 250.57 1503.74 250.35 1502.96C240.8 1469.05 233.98 1433.54 233.76 1398.21C233.75 1396.9 233.75 1395.6 233.74 1394.26C233.72 1391.5 233.71 1388.75 233.71 1386C233.7 1383.23 233.68 1380.46 233.64 1377.7C233.38 1354.43 234.8 1331.99 243 1310C243.29 1309.22 243.58 1308.43 243.88 1307.63C252.82 1283.66 265.38 1261.79 282.57 1242.71C285 1240 285 1240 286.71 1237.63C287.13 1237.09 287.56 1236.55 288 1236C288.66 1236 289.32 1236 290 1236C290.25 1235.43 290.49 1234.87 290.74 1234.28C302.01 1213.84 333.52 1198.8 354 1190C354.66 1189.71 355.33 1189.43 356.01 1189.13C368.22 1183.94 381.06 1180.77 394 1178C394.85 1177.82 395.69 1177.64 396.57 1177.45C432.53 1170.17 473.8 1174.04 509 1183Z" fill="#f7f6ef" fill-rule="evenodd"/>
      <path d="M213 1192C213.57 1199.26 213.23 1206.87 209 1213C205.55 1214.5 202.41 1215.3 198.75 1216.05C178.43 1220.44 158.75 1235.38 143.55 1249.2C140.71 1251.2 139.39 1251.42 136 1251C135.44 1245.51 136.84 1243.18 140.25 1238.94C140.69 1238.38 141.14 1237.83 141.6 1237.26C146.75 1230.9 152.31 1224.88 158 1219C158.27 1218.71 158.27 1218.71 159.66 1217.27C170.31 1206.35 196.22 1183.61 213 1192Z" fill="#f7f6ef" fill-rule="evenodd"/>
      <path d="M168.63 1257.94C169.03 1257.94 169.03 1257.94 171.1 1257.96C171.73 1257.98 172.36 1257.99 173 1258C173.36 1260.14 173.36 1260.14 173 1263C171.12 1265.1 169.28 1266.89 167.19 1268.75C156.89 1278.45 148.97 1290.74 144 1304C143.76 1304.61 143.53 1305.23 143.29 1305.86C136.35 1324.21 133.64 1342.21 133.56 1361.75C133.56 1362.12 133.56 1362.12 133.54 1363.97C133.5 1371.58 133.62 1378.67 136.36 1385.9C137.1 1388.34 137.1 1390.46 137 1393C134.81 1393.44 134.81 1393.44 132 1393C120.53 1380.17 121.21 1359.29 122 1343C122.97 1326 126.7 1309.43 134 1294C134.45 1293.01 134.9 1292.01 135.37 1290.99C138.82 1283.69 143.12 1277.41 148 1271C148.66 1270.01 149.32 1269.02 150 1268C150.66 1268 151.32 1268 152 1268C152 1267.34 152 1266.68 152 1266C154.12 1264.31 154.12 1264.31 156.88 1262.44C157.78 1261.82 158.69 1261.2 159.62 1260.56C162.97 1258.37 164.66 1257.88 168.63 1257.94Z" fill="#f7f6ef" fill-rule="evenodd"/>
      <path d="M180 1268C180.11 1281.54 179.8 1295.03 179.23 1308.55C179.19 1309.53 179.15 1310.51 179.11 1311.52C178.9 1316.67 178.68 1321.83 178.46 1326.98C178.23 1332.29 178.02 1337.59 177.81 1342.9C177.65 1347.01 177.47 1351.11 177.29 1355.22C177.21 1357.18 177.13 1359.14 177.06 1361.09C176.95 1363.82 176.83 1366.54 176.71 1369.27C176.68 1370.07 176.66 1370.87 176.63 1371.69C176.13 1381.49 170.97 1386.62 164 1393C163.32 1393.63 162.65 1394.26 161.95 1394.91C158.57 1397.78 155.78 1399.44 151.31 1399.88C148.78 1399.66 147.44 1399.36 145.46 1397.76C138.13 1387.64 137.35 1372.62 137.53 1360.57C137.56 1358.5 137.55 1356.43 137.54 1354.36C137.59 1325.03 147.96 1297.2 167 1275C167.61 1274.28 168.22 1273.56 168.85 1272.82C169.14 1272.5 169.14 1272.5 170.63 1270.88C170.88 1270.6 170.88 1270.6 172.16 1269.18C174.76 1267.51 176.97 1267.92 180 1268Z" fill="#f7f6ef" fill-rule="evenodd"/>
      <path d="M863 1272C864.65 1272 866.3 1272 868 1272C868.3 1272.65 868.6 1273.31 868.91 1273.98C880.41 1298.78 893.44 1321.27 911.52 1341.84C913.78 1344.43 915.66 1346.83 917 1350C917.66 1350 918.32 1350 919 1350C919 1350.66 919 1351.32 919 1352C919.55 1352.23 920.11 1352.47 920.68 1352.71C923.62 1354.34 925.77 1356.35 928.19 1358.69C929.07 1359.52 929.95 1360.35 930.86 1361.2C934.46 1365.9 934.19 1370.24 933.48 1375.89C933.2 1377.68 932.92 1379.47 932.63 1381.25C930.51 1394.58 929.77 1407.71 929.44 1421.19C929.39 1422.82 929.35 1424.46 929.31 1426.1C929.2 1430.06 929.1 1434.03 929 1438C927.35 1438 925.7 1438 924 1438C923.89 1437.64 923.89 1437.64 923.3 1435.79C915.5 1411.31 906.38 1388.96 890.44 1368.56C889.99 1367.98 889.54 1367.41 889.08 1366.81C886.9 1364.08 884.83 1361.86 882.12 1359.61C876.89 1355.12 874.85 1352.18 874.3 1345.34C874.12 1340.84 874.11 1336.34 874.11 1331.83C874.05 1315.85 869.85 1300.38 865.29 1285.16C865.14 1284.66 865.14 1284.66 864.39 1282.15C864.12 1281.27 863.86 1280.4 863.58 1279.5C862.98 1276.91 862.9 1274.64 863 1272Z" fill="#f7f6ef" fill-rule="evenodd"/>
      <path d="M872 1359C874.36 1358.85 874.36 1358.85 877 1359C881 1363.11 881 1363.11 881 1366C881.66 1366 882.32 1366 883 1366C884.63 1367.88 886.14 1369.76 887.63 1371.75C888.07 1372.35 888.52 1372.94 888.98 1373.56C890.33 1375.37 891.67 1377.18 893 1379C893.34 1379.45 893.34 1379.45 895.05 1381.73C919.32 1415.79 928.16 1459.86 931.19 1500.69C931.35 1502.81 931.52 1504.93 931.69 1507.05C931.99 1510.93 932.29 1514.81 932.58 1518.69C932.94 1523.34 933.36 1527.98 933.8 1532.61C934.05 1535.64 934.1 1538.65 934.06 1541.69C934.05 1542.7 934.04 1543.72 934.04 1544.76C934.02 1545.5 934.01 1546.24 934 1547C932.35 1547 930.7 1547 929 1547C928.95 1546.58 928.95 1546.58 928.71 1544.46C926.6 1526.11 924.05 1508.04 920 1490C919.89 1489.49 919.89 1489.49 919.32 1486.92C910.97 1449.39 899.13 1400.9 866 1377C866.45 1370.31 869.07 1364.97 872 1359Z" fill="#f7f6ef" fill-rule="evenodd"/>
      <path d="M438 386C436.72 391.1 437.37 394.95 438 400C438.66 405.25 437.34 410.75 438 416C438.74 421.89 439.26 428.11 440 434C441.03 442.21 438.97 450.79 440 459C444.16 492.31 441.83 526.67 446 560C447.15 569.19 444.85 578.81 446 588C448.09 604.74 446.9 622.21 449 639C449.98 646.88 448.02 655.12 449 663C450.39 674.1 448.6 685.81 450 697C450.18 698.46 451 699.46 451 701C451 707.82 450.16 715.24 451 722C454.04 746.3 452 772.32 452 797C452 799.27 452.73 800.87 453 803C454.37 813.94 453 825.96 453 837C453 861.67 453 886.33 453 911C453 950 453 989 453 1028C453 1039.04 452 1050.21 452 1061C452 1064.89 453.49 1072.53 451.75 1076C449.78 1079.94 433.55 1080 429 1080C416.99 1080 403.91 1081.49 392 1080C381.79 1078.72 371.44 1078 361 1078C353.22 1078 344.73 1075.97 337 1075C316.89 1072.49 297.05 1069.51 277 1067C266.94 1065.74 257.11 1062.26 247 1061C235.2 1059.53 223.81 1054.48 212 1053C208.35 1052.54 204.81 1050.52 201 1051C192.24 1052.09 178.81 1063.05 172 1069C165.22 1074.93 156.8 1079.05 150 1085C147.68 1087.03 147.83 1089.91 146 1092C144.26 1093.99 141.7 1094.67 140.25 1097C137.42 1101.53 135.65 1108.82 135 1114C134.57 1117.4 132.42 1120.61 132 1124C130.95 1132.41 129.05 1140.59 128 1149C126.76 1158.95 125.24 1169.05 124 1179C123.51 1182.94 124.49 1187.06 124 1191C123.21 1197.34 120.78 1206.48 124 1212" fill="none" stroke="#111111" stroke-width="10" stroke-linecap="round" stroke-linejoin="round"/>
      <path d="M785 533C790.43 536.62 793.77 542.16 798 547C808.92 559.48 819.12 572.57 830 585C840.63 597.15 849.4 610.89 860 623C871.01 635.58 881.37 649.79 890.25 664C901.24 681.58 916.01 697.52 925.25 716C927.34 720.19 931.26 724.01 933.75 728C941.84 740.94 949.62 753.99 957.75 767C977.74 798.98 992.96 833.42 1009.75 867C1012.3 872.09 1014.25 877.65 1016.25 883C1020.33 893.87 1026.62 903.98 1030.75 915C1034.9 926.07 1039.6 936.93 1043.75 948C1046.96 956.56 1049.09 965.58 1052.25 974C1058.8 991.46 1063.24 1009.63 1069.75 1027C1073.67 1037.47 1074.33 1049.54 1078.25 1060C1082.7 1071.86 1086.43 1088.45 1088 1101C1088.88 1108.07 1092.11 1114.92 1093 1122C1095.22 1139.78 1099.77 1157.18 1102 1175C1104.42 1194.34 1108.58 1213.63 1111 1233C1111.37 1235.95 1110.63 1239.05 1111 1242C1112.45 1253.59 1113.55 1265.39 1115 1277C1115.78 1283.24 1114.22 1289.76 1115 1296C1117.51 1316.05 1117.51 1341.95 1115 1362C1114.18 1368.56 1115.82 1375.44 1115 1382C1114.39 1386.91 1113.61 1392.09 1113 1397C1112.63 1399.95 1113.37 1403.05 1113 1406C1111.08 1421.33 1108.92 1436.65 1107 1452C1105.78 1461.73 1102.21 1471.29 1101 1481C1099.48 1493.19 1094.52 1504.87 1093 1517C1091.4 1529.84 1086.83 1543.79 1082.25 1556C1079.61 1563.03 1078.39 1570.97 1075.75 1578C1070.12 1593.03 1063.91 1607.9 1058.25 1623C1051.85 1640.07 1044.34 1656.82 1036.25 1673C1032.39 1680.72 1029.75 1690.08 1021 1693" fill="none" stroke="#111111" stroke-width="7.75" stroke-linecap="round" stroke-linejoin="round" data-shared="outer_curved_spine rear_clasp_hardware"/>
      <path d="M717 616C723.1 626.46 734.81 635.26 737.75 647C738.19 648.77 735.93 649.64 735.25 651C732.68 656.13 730.72 666.23 730 672C728.65 682.8 725.07 695.8 721.25 706C716.47 718.74 716.08 733.11 711.25 746C702.98 768.05 702.51 792.96 694.25 815C692.36 820.04 692.62 826.02 690.75 831C687 840.99 686.45 852.14 682.75 862C679.16 871.56 676.27 883.87 675 894C672.68 912.59 663.32 930.42 661 949C659.6 960.2 654.39 970.87 653 982C652.02 989.81 650.02 998.6 647.25 1006C644.17 1014.22 644.74 1024.01 640.75 1032C639.64 1034.23 637.27 1037.61 635 1038.75C632.28 1040.11 628.74 1039.22 626 1040.25C612.48 1045.32 599.42 1052.8 585 1054" fill="none" stroke="#111111" stroke-width="10" stroke-linecap="round" stroke-linejoin="round" data-shared="string_wire_set"/>
      <path d="M766 686C768.25 686.75 771.24 687.24 773 689C776.2 692.2 779.3 697.11 781.25 701C784 706.5 789.41 711.65 792.75 717C799.67 728.07 806.36 738.97 813.25 750C826.5 771.19 836.59 793.68 847.75 816C849.78 820.06 857.33 839.3 855.75 843C854.85 845.11 850.65 846.75 849.25 849C840.37 863.21 829.03 877.39 818 890C805.55 904.23 794.46 919.76 782 934C767.27 950.83 750.82 967.28 734 982C730.81 984.79 728.19 988.21 725 991C719.3 995.99 712.7 1000.01 707 1005C703.96 1007.66 700.65 1010.92 697 1012.75C692.97 1014.77 688.13 1015.62 684 1017" fill="none" stroke="#111111" stroke-width="11.25" stroke-linecap="round" stroke-linejoin="round"/>
      <path d="M766 686C761.76 690.62 759.78 698.79 759 705C758.07 712.46 753.93 719.54 753 727C752.18 733.53 750.04 743.89 747.75 750C743.11 762.37 741.89 775.62 737.25 788C736.64 789.62 737.36 791.38 736.75 793C732.14 805.28 731.32 818.82 726.75 831C723.68 839.18 721.08 849.35 720 858C719.12 865.01 715.76 875.31 713.25 882C710.06 890.51 709.94 900.49 706.75 909C703.24 918.36 700.24 930.1 699 940C698.58 943.39 696.43 946.6 696 950C694.14 964.92 686.86 979.09 685 994C684.04 1001.72 679.2 1009.8 684 1017" fill="none" stroke="#111111" stroke-width="10" stroke-linecap="round" stroke-linejoin="round" data-shared="string_wire_set"/>
      <path d="M1056 731C1060.17 737.25 1060.63 745.01 1063.25 752C1069.1 767.61 1070.92 784.45 1076.75 800C1079.84 808.25 1080.37 817.19 1085.25 825C1091.8 835.47 1112.38 837.44 1123 842.75C1126.85 844.68 1132.89 845 1135.75 849C1137.19 851.01 1137.43 853.74 1138 856" fill="none" stroke="#111111" stroke-width="10" stroke-linecap="round" stroke-linejoin="round" data-shared="outer_curved_spine"/>
      <path d="M1025 765C1029.72 783.89 1040.07 801.65 1048.75 819C1053.87 829.23 1057.07 841.18 1066 849C1068.15 850.88 1072.35 850.25 1075 851.25C1083.4 854.4 1090.07 857.88 1099 859C1109.72 860.34 1129.54 863.76 1138 856" fill="none" stroke="#111111" stroke-width="10" stroke-linecap="round" stroke-linejoin="round" data-shared="outer_curved_spine rear_clasp_hardware"/>
      <path d="M856 844C863.43 847.09 869.81 856.12 873.25 863C874.23 864.97 876.57 866.37 878 868C880.82 871.22 883.31 876.12 885.25 880C886.05 881.61 887.95 882.39 888.75 884C893.09 892.68 900.42 900.35 904.75 909C909.27 918.04 915.29 927.26 920.75 936C931.78 953.64 940.93 972.36 950.25 991C969.91 1030.32 988.24 1070.64 1003.75 1112C1011.94 1133.84 1017.6 1156.27 1025.75 1178C1027.13 1181.67 1026.87 1186.33 1028.25 1190C1032.67 1201.79 1036.45 1215.58 1038 1228C1038.26 1230.06 1039.74 1231.94 1040 1234C1041.39 1245.13 1045.61 1255.9 1047 1267C1049.09 1283.75 1052.91 1300.26 1055 1317C1056.38 1328.01 1057.63 1339.04 1059 1350C1059.41 1353.28 1058.59 1356.72 1059 1360C1060.28 1370.21 1060.72 1380.76 1062 1391C1062.66 1396.25 1061.34 1401.75 1062 1407C1064.07 1423.56 1064.07 1442.44 1062 1459C1060.51 1470.91 1062.49 1483.09 1061 1495C1059.39 1507.91 1058.62 1521.05 1057 1534C1055.37 1547.02 1052.63 1559.94 1051 1573C1049.7 1583.43 1045.3 1593.57 1044 1604C1042.88 1612.94 1040.93 1623.53 1037.75 1632C1033.8 1642.54 1018.17 1684.52 1021 1693" fill="none" stroke="#111111" stroke-width="7.75" stroke-linecap="round" stroke-linejoin="round"/>
      <path d="M684 1017C680.91 1021.64 678.63 1027.85 675 1032C672.49 1034.87 669.23 1036.64 666 1038.25C660.36 1041.07 655.79 1046.85 650 1049.75C647.75 1050.88 644.32 1050.09 642 1051.25C639.96 1052.27 639.38 1054.42 638 1056C635.76 1058.56 632.04 1061.23 629 1062.75C617.57 1068.46 604.97 1074.39 594 1081.25C575.39 1092.88 550.65 1099.01 530 1106.75C524 1109 517.04 1108.98 511 1111.25C497.89 1116.17 482.79 1118.28 469 1120C461.34 1120.96 453.68 1123.04 446 1124C435.68 1125.29 425.28 1125.71 415 1127C404.06 1128.37 392.04 1127 381 1127C366.38 1127 351.32 1127.79 337 1126C332.73 1125.47 328.27 1126.53 324 1126C307.71 1123.96 291.28 1122.03 275 1120C255.88 1117.61 237.05 1114.38 218 1112C205.88 1110.48 194.1 1105.51 182 1104C173.04 1102.88 163.52 1100.45 155 1097.25C153.41 1096.65 151.52 1097.51 150 1096.75C148.47 1095.99 147.19 1094.19 146 1093" fill="none" stroke="#111111" stroke-width="10" stroke-linecap="round" stroke-linejoin="round"/>
      <path d="M704 1044C704.35 1039.84 706.05 1035.03 703.75 1031C701.46 1026.98 692.11 1032.16 690 1034C678.41 1044.14 667.02 1053.98 656 1065C644.5 1076.5 632.86 1090.22 624.25 1104C618.75 1112.79 614.24 1122.21 608.75 1131C604.91 1137.14 600.81 1144.17 598.25 1151C593.64 1163.29 589.84 1175.77 585.25 1188C583.19 1193.49 584.24 1198.38 580 1203" fill="none" stroke="#111111" stroke-width="8.5" stroke-linecap="round" stroke-linejoin="round"/>
      <path d="M704 1044C701.62 1044 699.17 1044.16 697 1045.25C691.51 1048 686.91 1055.53 683 1060C677.7 1066.06 672.27 1071.98 667 1078C644.72 1103.47 624.23 1133.05 612.25 1165C607.51 1177.65 603.96 1190.45 599.25 1203C597.5 1207.67 597.61 1213.09 597 1218C596.01 1225.9 593.96 1233.7 595 1242C595.48 1245.87 598.66 1253.26 595 1256C590.58 1259.31 585.81 1249.83 584.75 1247C582.9 1242.07 580.65 1237.23 580 1232C579.33 1226.62 581.69 1207.39 579.75 1204C579.13 1202.92 566.14 1198.82 564 1197.75C549.78 1190.64 534.88 1185.83 520 1180.25C509.2 1176.2 496.35 1174.42 485 1173C476.71 1171.96 468.33 1170.04 460 1169C450.67 1167.83 440.42 1169 431 1169C425.48 1169 419.47 1168.32 414 1169C361.64 1175.55 315.45 1197.49 280 1238C256.63 1264.71 235.39 1304.85 231 1340C229.77 1349.85 231.24 1360.09 230 1370C229.13 1376.96 229.13 1383.04 230 1390C231.41 1401.24 229.6 1412.81 231 1424C232.21 1433.66 233.79 1443.3 235 1453C235.71 1458.71 238.29 1464.32 239 1470C240 1477.97 241.91 1486.42 244.75 1494C246.86 1499.63 247.11 1506.3 249.25 1512C257.21 1533.22 264.55 1554.6 274.75 1575C280.15 1585.81 285.74 1596.98 291.25 1608C295.18 1615.86 301.24 1622.98 305.25 1631C306.05 1632.61 307.95 1633.39 308.75 1635C312.32 1642.14 318.46 1648.14 322.75 1655C326.51 1661.02 331.33 1666.66 336 1672C357.49 1696.56 377.35 1717.44 402 1739C412.37 1748.08 423.28 1756.92 435 1764.25C441.16 1768.1 446.48 1772.99 453 1776.25C456.85 1778.18 460.01 1781.75 464 1783.75C480.09 1791.79 495.77 1801.79 513 1808.25C522.45 1811.79 531.55 1816.21 541 1819.75C550.01 1823.13 560.06 1823.9 569 1827.25C576.14 1829.93 584.49 1832.06 592 1833C599.98 1834 608.02 1835 616 1836C618.95 1836.37 622.05 1835.63 625 1836C634.06 1837.13 644.69 1838.16 654 1837C666.99 1835.38 680.05 1833.62 693 1832C709.72 1829.91 727.21 1822.17 743 1816.25C777.57 1803.29 819.53 1768.25 832.75 1733C843.87 1703.33 848 1673.82 848 1642C848 1634.86 848.89 1627.08 848 1620C846.71 1609.71 845.28 1599.25 844 1589C839.89 1556.16 832.99 1524.3 821.25 1493C815.35 1477.26 810.31 1461.12 802.75 1446C780.79 1402.08 754.27 1360.88 722 1324C708.48 1308.55 693.46 1293.53 678 1280C671.8 1274.58 664.98 1267.61 658 1263.25C656.43 1262.27 653.21 1261.68 652.25 1260C648.41 1253.27 656.96 1222.35 658 1214C658.76 1207.92 661.25 1202.03 662 1196C663.83 1181.37 668.53 1165.93 673.75 1152C680.55 1133.86 683.4 1114.27 690.25 1096C693.71 1086.78 706.47 1051.42 704 1044Z" fill="none" stroke="#111111" stroke-width="10.5" stroke-linecap="round" stroke-linejoin="round"/>
      <path d="M835 1061C837.71 1028.54 880.62 1033.73 892.75 1058C894.87 1062.23 894.53 1069.72 894 1074C891.12 1097.03 867.87 1084.51 857 1075C853.53 1071.96 850.16 1068.83 846 1066.75C844.03 1065.77 841.87 1066.09 840 1064.75C838.24 1063.49 836.85 1061.39 835 1060Z" fill="none" stroke="#111111" stroke-width="12.5" stroke-linecap="round" stroke-linejoin="round"/>
      <path d="M489 1074C483.86 1081.71 489.35 1091.64 484.75 1099C480.67 1105.54 456.94 1106.38 453.25 1099C449.99 1092.47 454.97 1085.62 450 1079" fill="none" stroke="#111111" stroke-width="9.75" stroke-linecap="round" stroke-linejoin="round"/>
      <path d="M825 1078C819.45 1094.64 818.5 1117.49 821 1135C821.34 1137.35 825.64 1138.14 826 1141C827.85 1155.8 829.47 1171.92 834.75 1186C836.01 1189.37 835.96 1193.56 837.25 1197C841.58 1208.54 844.92 1220.46 849.25 1232C851.46 1237.91 854.22 1243.87 855.75 1250C856.52 1253.08 853.55 1257.61 855.25 1261C857.06 1264.61 856.82 1268.2 858.25 1272C866.04 1292.76 872 1315.7 872 1338C872 1340.98 871.72 1350.42 870.75 1353C868.88 1357.99 860.86 1373.22 863.25 1378C864.75 1381.01 870.47 1384.47 873 1387C879.53 1393.53 884.87 1400.19 889.75 1408C898 1421.2 902.37 1436.66 907.75 1451C909.05 1454.47 908.95 1458.53 910.25 1462C911.94 1466.49 913.41 1471.27 914 1476C915.26 1486.07 919.74 1495.91 921 1506C925.29 1540.35 931 1574.93 931 1610C931 1620.73 930 1631.15 930 1642C930 1644.19 929.26 1648.02 930.25 1650C930.85 1651.19 932.12 1652.04 933 1653" fill="none" stroke="#111111" stroke-width="8" stroke-linecap="round" stroke-linejoin="round"/>
      <path d="M215 1187C215 1152.4 181.24 1167.48 164 1178.25C155.09 1183.82 147.44 1192.56 140 1200C133.88 1206.12 131.11 1207.85 124 1212" fill="none" stroke="#111111" stroke-width="11.25" stroke-linecap="round" stroke-linejoin="round"/>
      <path d="M215 1187C211.1 1187 206.86 1186.52 203 1187C201.52 1187.19 200.36 1188.24 199 1188.75C194.78 1190.33 190.14 1191.18 186 1193.25C170.18 1201.16 156.71 1215.62 145 1229C137.79 1237.24 130 1246.57 130 1258" fill="none" stroke="#111111" stroke-width="8.5" stroke-linecap="round" stroke-linejoin="round"/>
      <path d="M215 1187C215 1195.54 216.05 1208.09 210 1215C207.62 1217.72 192.31 1221.63 188 1223.25C174.46 1228.33 163.13 1238.67 151 1246.25C148.2 1248 145.91 1251.29 143 1252.75C138.36 1255.07 125.18 1259.85 123.25 1265C122.4 1267.28 125.65 1287.98 127 1290" fill="none" stroke="#111111" stroke-width="11.25" stroke-linecap="round" stroke-linejoin="round"/>
      <path d="M863 1259C870.66 1269.21 873.4 1283.04 880.25 1294C886.39 1303.82 894.19 1313.87 899.25 1324C900.23 1325.97 902.57 1327.37 904 1329C911.63 1337.72 918.72 1346.72 927 1355C929.61 1357.61 934.09 1360.69 935.75 1364C936.65 1365.8 931.62 1401.07 931 1406C929.67 1416.65 934.29 1436.05 927 1444" fill="none" stroke="#111111" stroke-width="8" stroke-linecap="round" stroke-linejoin="round"/>
      <path d="M177 1263C176.65 1258.81 176.07 1256.28 172 1254.75C159.55 1250.08 148.01 1265.99 141 1274C137.99 1277.45 137 1282.58 134 1286C131.41 1288.96 127.86 1288.7 126.25 1293C124.69 1297.15 125.55 1303.57 125 1308C124.49 1312.1 121.51 1315.9 121 1320C119.15 1334.76 117.12 1348.95 119 1364C120.69 1377.53 122.07 1396.77 138 1400.75C143.5 1402.12 137.18 1385.44 137 1384C136.62 1380.97 135.38 1378.01 135 1375C133.95 1366.63 135 1357.44 135 1349C135 1317.82 150.54 1280.64 177 1263Z" fill="none" stroke="#111111" stroke-width="8.5" stroke-linecap="round" stroke-linejoin="round"/>
      <path d="M177 1263C178.38 1263.92 179.88 1264.26 180.75 1266C182.96 1270.42 180.75 1301 180 1307C179.43 1311.59 180.57 1316.41 180 1321C178.81 1330.55 178 1341.38 178 1351C178 1360.92 179.23 1372.71 175.75 1382C171.74 1392.7 155.95 1403.09 145 1404" fill="none" stroke="#111111" stroke-width="8" stroke-linecap="round" stroke-linejoin="round"/>
      <path d="M871 1354C872.59 1354.4 874.48 1354.49 876 1355.25C879.92 1357.21 883.15 1363.74 886 1367C898.99 1381.85 908.82 1400.52 915.75 1419C918.97 1427.6 919.36 1438.27 927 1444" fill="none" stroke="#111111" stroke-width="7.75" stroke-linecap="round" stroke-linejoin="round"/>
      <path d="M145 1404C145 1422.52 154.16 1449.44 160.75 1467C162.78 1472.41 163.22 1478.59 165.25 1484C169.12 1494.32 172.88 1504.68 176.75 1515C177.7 1517.55 178.04 1520.57 179.25 1523C184.58 1533.65 187.75 1546 193.25 1557C200.3 1571.1 207.53 1585.57 214.75 1600C220.57 1611.63 226.26 1623.81 233.25 1635C237.38 1641.61 241.77 1648.04 245.25 1655C246.05 1656.61 247.95 1657.39 248.75 1659C253.81 1669.11 262.19 1677.88 267.25 1688C269.31 1692.12 273.95 1696.52 277 1700C282.46 1706.24 286.53 1713.75 292 1720C298.23 1727.12 304.75 1733.86 311 1741C324.45 1756.37 338.56 1771.49 354 1785C371.46 1800.28 388.27 1816.92 408 1829.25C415.57 1833.98 422.02 1841.76 430 1845.75C434.85 1848.17 439.05 1852.28 444 1854.75C459.16 1862.33 472.85 1872.68 488 1880.25C511.83 1892.17 534.98 1904.37 560 1913.75C572.12 1918.29 585 1920.75 597 1925.25C605.62 1928.48 615.92 1931.86 625 1933C642.33 1935.17 659.63 1937.83 677 1940C682.79 1940.72 689.16 1940 695 1940C703.77 1940 713.31 1941.09 722 1940C733.66 1938.54 745.31 1936.46 757 1935C768.68 1933.54 780.87 1929.42 792 1925.25C805.39 1920.23 819.13 1916.18 832 1909.75C860.98 1895.26 888.56 1876.39 913 1855C927.56 1842.26 940.42 1827.76 955 1815C957.65 1812.69 961.03 1813.23 964 1811.75C966.59 1810.45 969.78 1806.94 972 1805C979.94 1798.06 987.13 1789.85 994 1782C1000.07 1775.07 1006.96 1768.91 1013 1762C1029.46 1743.18 1043.97 1722.25 1057.25 1701C1065.04 1688.53 1073.66 1676.18 1080.25 1663C1090.63 1642.25 1102.57 1621.82 1110.75 1600C1113.9 1591.6 1117.6 1583.4 1120.75 1575C1123.04 1568.88 1124.33 1561.83 1127.25 1556C1128.46 1553.58 1131.6 1553.29 1132.75 1551C1134.36 1547.77 1129.52 1538.84 1130 1535C1130.5 1531.04 1132.3 1524.08 1135 1521C1136.22 1519.6 1138.89 1518.5 1139.75 1517C1140.96 1514.89 1140.04 1511.42 1141.25 1509C1145.44 1500.62 1169.94 1503.69 1176 1509C1187.43 1519 1185.22 1530.48 1180 1543" fill="none" stroke="#111111" stroke-width="11.25" stroke-linecap="round" stroke-linejoin="round"/>
      <path d="M927 1444C929.14 1450.41 928.17 1457.34 929 1464C930.64 1477.16 930.34 1490.73 932 1504C935.11 1528.88 935.89 1554.12 939 1579C940.19 1588.55 938.82 1598.54 940 1608C941.31 1618.5 939 1629.4 939 1640C939 1648.15 936.38 1647.75 933.25 1654C931.73 1657.04 933.32 1661.85 931.75 1665C930.74 1667.01 928.26 1667.99 927.25 1670C925.55 1673.4 925.48 1679.19 925 1683C924.5 1687.02 919.86 1697.45 924 1701C929.15 1705.41 935.44 1680.95 933.75 1678C933.01 1676.71 928.39 1676.46 927 1676" fill="none" stroke="#111111" stroke-width="8" stroke-linecap="round" stroke-linejoin="round"/>
      <path d="M1021 1693C1018.88 1701.46 1013.28 1707.91 1010.25 1716C1008.29 1721.24 1005.28 1726.16 1002.25 1731C999.3 1735.72 997.7 1741.28 994.75 1746C987.93 1756.91 981.57 1768.09 974.75 1779C967.78 1790.16 955 1799.89 955 1814" fill="none" stroke="#111111" stroke-width="10.5" stroke-linecap="round" stroke-linejoin="round"/>
      <path d="M1062 855C1065.26 855.16 1068.03 855.63 1071 857C1072.44 859.11 1072.44 859.11 1073.69 861.69C1077.42 868.88 1083.84 871.14 1091 874C1091.41 874.17 1091.41 874.17 1093.5 875.02C1101.61 877.87 1110.49 878.21 1119 879C1119 883.95 1119 888.9 1119 894C1117.56 893.44 1116.11 892.89 1114.63 892.31C1108.69 890.14 1102.66 888.45 1096.55 886.84C1091.56 885.51 1086.81 883.88 1082 882C1082.4 882.92 1082.8 883.84 1083.21 884.78C1083.33 885.08 1083.33 885.08 1083.98 886.57C1084.54 887.87 1085.1 889.15 1085.67 890.44C1087.15 893.81 1088.25 896.98 1089 900.56C1091.88 905.51 1095.98 906.51 1101.27 908.04C1108.2 909.82 1114.91 910.91 1122.06 911.28C1122.95 911.34 1123.85 911.39 1124.77 911.45C1126.56 911.57 1128.35 911.65 1130.15 911.69C1132.67 911.85 1134.66 912.06 1137 913C1138.54 914.97 1139.4 916.77 1140.26 919.1C1141 921 1141 921 1143 923C1133.01 922.7 1123.12 922.25 1113.25 920.63C1112.54 920.51 1111.83 920.4 1111.09 920.28C1106.13 919.4 1101.68 917.88 1097 916C1098.32 919.63 1099.64 923.26 1101 927C1100.18 927.17 1100.18 927.17 1096 928C1095.67 930.64 1095.34 933.28 1095 936C1092.86 932.78 1091.63 929.56 1090.33 925.95C1086.96 916.81 1083.35 907.78 1079.69 898.75C1079.36 897.94 1079.04 897.14 1078.7 896.31C1074.52 886 1070.28 875.74 1065.53 865.67C1063.87 862.13 1062.53 858.89 1062 855Z" fill="#111111" fill-rule="evenodd" data-shared="rear_clasp_hardware"/>
      <path d="M696 1022C692.7 1024.64 689.4 1027.28 686 1030C685.67 1029.34 685.34 1028.68 685 1028C686.51 1024.45 687.5 1023.22 691.06 1021.63C694 1021 694 1021 696 1022Z" fill="#111111" fill-rule="evenodd"/>
      <path d="M644 1039C644.33 1039.66 644.66 1040.32 645 1041C644 1044 644 1044 641.93 1045.17C641.11 1045.5 640.29 1045.84 639.44 1046.19C638.61 1046.53 637.79 1046.88 636.93 1047.23C636.3 1047.48 635.66 1047.74 635 1048C635 1047.01 635 1046.02 635 1045C635.93 1044.57 636.86 1044.13 637.81 1043.69C640.47 1042.28 642.08 1041.24 644 1039Z" fill="#111111" fill-rule="evenodd"/>
      <path d="M197 1044C199.64 1044 202.28 1044 205 1044C205 1044.33 205 1044.66 205 1045C202.36 1045 199.72 1045 197 1045C197 1044.67 197 1044.34 197 1044Z" fill="#111111" fill-rule="evenodd"/>
      <path d="M826 1060C828 1062 828 1062 828.38 1064.5C828.48 1064.91 828.48 1064.91 829 1067C830.77 1068.02 830.77 1068.02 833 1069C835.67 1070.33 838.33 1071.67 841 1073C840.73 1074.14 840.47 1075.27 840.2 1076.45C826.18 1137.28 842.75 1194.23 865.23 1250.93C866 1253 866 1253 866 1254C864.35 1254 862.7 1254 861 1254C860.89 1253.27 860.78 1252.54 860.66 1251.78C859.19 1243.69 856.77 1236.34 853.81 1228.69C849.03 1216.27 844.81 1203.75 841 1191C840.72 1190.06 840.44 1189.13 840.15 1188.16C837.41 1178.8 835.16 1169.45 833.66 1159.81C833.61 1159.46 833.61 1159.46 833.33 1157.68C832.8 1154.19 832.29 1150.7 831.82 1147.21C831.64 1145.94 831.46 1144.67 831.27 1143.36C831.12 1142.23 830.97 1141.1 830.82 1139.94C829.87 1136.53 828.49 1135.41 826 1133C825.48 1130.82 825.48 1130.82 825.47 1128.41C825.46 1127.5 825.45 1126.58 825.45 1125.64C825.46 1124.64 825.48 1123.65 825.5 1122.63C825.51 1121.59 825.52 1120.56 825.52 1119.49C825.79 1106.75 827.71 1094.18 829.63 1081.6C830.23 1077.35 830.23 1077.35 828 1074C824.88 1073.31 824.88 1073.31 822 1073C822.48 1071.4 822.96 1069.79 823.44 1068.19C823.7 1067.29 823.97 1066.4 824.25 1065.48C824.8 1063.65 825.39 1061.82 826 1060Z" fill="#111111" fill-rule="evenodd"/>
      <path d="M391 1073C392.98 1073 394.96 1073 397 1073C397 1073.33 397 1073.66 397 1074C395.02 1074 393.04 1074 391 1074C391 1073.67 391 1073.34 391 1073Z" fill="#111111" fill-rule="evenodd"/>
      <path d="M279 1074C288.05 1074.59 296.98 1075.58 305.96 1076.85C307.23 1077.02 308.5 1077.2 309.8 1077.38C313.13 1077.84 316.45 1078.31 319.78 1078.78C323.19 1079.26 326.61 1079.73 330.02 1080.21C336.68 1081.13 343.34 1082.07 350 1083C350 1083.33 350 1083.66 350 1084C338.86 1083.51 327.89 1082.5 316.84 1080.95C314.5 1080.63 312.16 1080.31 309.82 1079.99C299.5 1078.58 289.25 1076.88 279 1075C279 1074.67 279 1074.34 279 1074Z" fill="#111111" fill-rule="evenodd"/>
      <path d="M353 1084C363.4 1083.89 373.64 1084.08 384 1085C384 1085.33 384 1085.66 384 1086C373.61 1086.13 363.36 1085.76 353 1085C353 1084.67 353 1084.34 353 1084Z" fill="#111111" fill-rule="evenodd"/>
      <path d="M384 1086C386.97 1086 389.94 1086 393 1086C393 1086.33 393 1086.66 393 1087C390.03 1087 387.06 1087 384 1087C384 1086.67 384 1086.34 384 1086Z" fill="#111111" fill-rule="evenodd"/>
      <path d="M420 1086C427.59 1086 435.18 1086 443 1086C443 1086.33 443 1086.66 443 1087C435.41 1087 427.82 1087 420 1087C420 1086.67 420 1086.34 420 1086Z" fill="#111111" fill-rule="evenodd"/>
      <path d="M819 1142C819.33 1142.17 819.33 1142.17 821 1143C821.5 1144.85 821.5 1144.85 821.85 1147.26C821.98 1148.13 822.11 1149.01 822.24 1149.9C822.37 1150.82 822.5 1151.74 822.63 1152.69C822.76 1153.59 822.89 1154.49 823.03 1155.41C823.69 1159.98 824.17 1164.37 824 1169C822.46 1166.19 821.64 1163.76 821.15 1160.59C821.02 1159.77 820.89 1158.94 820.76 1158.09C820.63 1157.23 820.51 1156.38 820.38 1155.5C820.24 1154.65 820.11 1153.79 819.97 1152.91C819.4 1149.19 819 1145.78 819 1142Z" fill="#111111" fill-rule="evenodd"/>
      <path d="M429 1175C429 1175.33 429 1175.66 429 1176C422.4 1176.33 415.8 1176.66 409 1177C409 1176.67 409 1176.34 409 1176C415.66 1174.76 422.25 1174.91 429 1175Z" fill="#111111" fill-rule="evenodd"/>
      <path d="M433 1175C437.02 1174.97 441.04 1174.95 445.06 1174.94C445.63 1174.93 445.63 1174.93 448.5 1174.91C454.11 1174.9 459.48 1174.98 465 1176C465 1176.33 465 1176.66 465 1177C454.44 1176.67 443.88 1176.34 433 1176C433 1175.67 433 1175.34 433 1175Z" fill="#111111" fill-rule="evenodd"/>
      <path d="M397 1178C398.65 1178 400.3 1178 402 1178C402 1178.33 402 1178.66 402 1179C400.35 1179 398.7 1179 397 1179C397 1178.67 397 1178.34 397 1178Z" fill="#111111" fill-rule="evenodd"/>
      <path d="M828 1185C830 1188 830 1188 829.63 1190.19C829.52 1190.49 829.52 1190.49 829 1192C828.67 1189.69 828.34 1187.38 828 1185Z" fill="#111111" fill-rule="evenodd"/>
      <path d="M830 1192C830.33 1192 830.66 1192 831 1192C831 1193.65 831 1195.3 831 1197C830.67 1197 830.34 1197 830 1197C830 1195.35 830 1193.7 830 1192Z" fill="#111111" fill-rule="evenodd"/>
      <path d="M832 1200C834.54 1203.8 835.75 1207.69 837.19 1212C837.47 1212.82 837.76 1213.64 838.05 1214.48C838.32 1215.27 838.58 1216.06 838.86 1216.88C839.1 1217.59 839.34 1218.31 839.59 1219.06C840 1221 840 1221 839 1224C837.82 1220.75 836.66 1217.5 835.5 1214.25C835.17 1213.33 834.83 1212.41 834.49 1211.46C834.17 1210.57 833.86 1209.68 833.53 1208.77C833.24 1207.95 832.95 1207.13 832.64 1206.29C832 1204 832 1204 832 1200Z" fill="#111111" fill-rule="evenodd"/>
      <path d="M132 1215C132 1218.71 131.02 1219.63 128.81 1222.56C122.12 1231.86 117.25 1241.32 118 1253C118.39 1253.89 118.78 1254.77 119.19 1255.69C119.46 1256.45 119.72 1257.21 120 1258C119.06 1259.7 118.05 1261.37 117 1263C116.31 1266.81 116.31 1266.81 116 1270C110.35 1265.12 108.29 1260.53 107.68 1253.09C107.34 1244.3 108.1 1237.01 112 1229C112.53 1227.9 113.06 1226.8 113.6 1225.66C115.03 1222.76 116.5 1219.87 118 1217C118.59 1217.11 119.18 1217.21 119.79 1217.32C126.33 1218.32 126.33 1218.32 130.06 1216.56C130.7 1216.05 131.34 1215.53 132 1215Z" fill="#111111" fill-rule="evenodd"/>
      <path d="M842 1230C844.8 1232.8 845.77 1236.17 847.13 1239.81C847.4 1240.53 847.68 1241.24 847.97 1241.97C849.39 1245.77 850.37 1248.87 850 1253C847.56 1249.34 846.32 1245.64 844.88 1241.5C844.6 1240.73 844.32 1239.96 844.04 1239.16C843.77 1238.42 843.51 1237.67 843.24 1236.91C843 1236.23 842.77 1235.55 842.52 1234.85C842 1233 842 1233 842 1230Z" fill="#111111" fill-rule="evenodd"/>
      <path d="M727 1268C724.32 1268.85 721.63 1269.68 718.94 1270.5C718.56 1270.62 718.56 1270.62 716.66 1271.22C711.92 1272.66 707.95 1273.26 703 1273C703 1272.67 703 1272.34 703 1272C708.33 1270.67 713.67 1269.33 719 1268C719.66 1267.79 720.32 1267.59 720.99 1267.38C723.3 1266.94 724.78 1267.29 727 1268Z" fill="#111111" fill-rule="evenodd"/>
      <path d="M692 1272C695.63 1272.33 699.26 1272.66 703 1273C703 1273.33 703 1273.66 703 1274C701.74 1274.04 700.48 1274.08 699.19 1274.13C698.48 1274.15 697.77 1274.17 697.04 1274.2C695 1274 695 1274 692 1272Z" fill="#111111" fill-rule="evenodd"/>
      <path d="M135 1292C135.66 1292.33 136.32 1292.66 137 1293C135.35 1296.63 133.7 1300.26 132 1304C131.67 1304 131.34 1304 131 1304C130.51 1296.62 130.51 1296.62 133 1293.5C133.66 1293.01 134.32 1292.51 135 1292Z" fill="#111111" fill-rule="evenodd"/>
      <path d="M128 1403C131.3 1403.99 134.6 1404.98 138 1406C138 1407.65 138 1409.3 138 1411C132.99 1409.57 131.06 1407.02 128 1403Z" fill="#111111" fill-rule="evenodd"/>
      <path d="M154 1407C154.99 1407.33 155.98 1407.66 157 1408C155.35 1408.66 153.7 1409.32 152 1410C152 1409.34 152 1408.68 152 1408C152.66 1407.67 153.32 1407.34 154 1407Z" fill="#111111" fill-rule="evenodd"/>
      <path d="M933 1444C933.33 1444 933.66 1444 934 1444C934 1445.65 934 1447.3 934 1449C933.67 1449 933.34 1449 933 1449C933 1447.35 933 1445.7 933 1444Z" fill="#111111" fill-rule="evenodd"/>
      <path d="M942 1652C941.89 1654.52 941.76 1657.04 941.63 1659.56C941.61 1659.92 941.61 1659.92 941.53 1661.7C941.27 1666.41 940.45 1670.5 939 1675C937.02 1674.01 935.04 1673.02 933 1672C933.66 1671.67 934.32 1671.34 935 1671C936.51 1667.45 937.12 1664.18 937.44 1660.38C938.21 1652 938.21 1652 942 1652Z" fill="#111111" fill-rule="evenodd"/>
      <path d="M926 1654C926.33 1654 926.66 1654 927 1654C927 1656.97 927 1659.94 927 1663C926.34 1663 925.68 1663 925 1663C925.33 1660.03 925.66 1657.06 926 1654Z" fill="#111111" fill-rule="evenodd"/>
      <path d="M1029 1694C1029.66 1694.33 1030.32 1694.66 1031 1695C1028.03 1700.28 1025.06 1705.56 1022 1711C1021.67 1710.34 1021.34 1709.68 1021 1709C1022.05 1706.58 1023.15 1704.28 1024.38 1701.94C1024.71 1701.29 1025.04 1700.64 1025.38 1699.97C1027.83 1695.17 1027.83 1695.17 1029 1694Z" fill="#111111" fill-rule="evenodd"/>
      <path d="M918 1703C918.68 1703.52 919.36 1704.03 920.06 1704.56C923.86 1706.42 925.95 1705.98 930 1705C930.99 1704.34 931.98 1703.68 933 1703C931.63 1711.22 928.77 1721.55 922 1727C919.5 1727.5 919.5 1727.5 917 1727C914.65 1724.32 914.05 1722.41 913.63 1718.88C914.86 1706.14 914.86 1706.14 918 1703Z" fill="#111111" fill-rule="evenodd"/>
      <path d="M1020 1711C1020.33 1711.99 1020.66 1712.98 1021 1714C1019.68 1715.32 1018.36 1716.64 1017 1718C1018.88 1712.13 1018.88 1712.13 1020 1711Z" fill="#111111" fill-rule="evenodd"/>
      <path d="M948 1809C948 1809.99 948 1810.98 948 1812C947.51 1812.33 947.51 1812.33 945 1814C946.88 1810.13 946.88 1810.13 948 1809Z" fill="#111111" fill-rule="evenodd"/>
      <path d="M963 1819C963.66 1819.33 964.32 1819.66 965 1820C957.89 1826.65 950.71 1833.05 943 1839C942.34 1838.67 941.68 1838.34 941 1838C943.34 1835.57 945.7 1833.16 948.06 1830.75C948.72 1830.07 949.38 1829.39 950.05 1828.68C954.08 1824.6 957.78 1821.43 963 1819Z" fill="#111111" fill-rule="evenodd"/>
      <path d="M679 1840C680.98 1840 682.96 1840 685 1840C685 1840.33 685 1840.66 685 1841C683.02 1841 681.04 1841 679 1841C679 1840.67 679 1840.34 679 1840Z" fill="#111111" fill-rule="evenodd"/>
      <path d="M609 1842C610.98 1842 612.96 1842 615 1842C615 1842.33 615 1842.66 615 1843C613.02 1843 611.04 1843 609 1843C609 1842.67 609 1842.34 609 1842Z" fill="#111111" fill-rule="evenodd"/>
      <path d="M622 1842C625.63 1842.33 629.26 1842.66 633 1843C633 1843.33 633 1843.66 633 1844C629.04 1844 625.08 1844 621 1844C621.33 1843.34 621.66 1842.68 622 1842Z" fill="#111111" fill-rule="evenodd"/>
      <path d="M678 1841C678 1841.33 678 1841.66 678 1842C673.04 1843.32 668.09 1843.09 663 1843C663 1842.67 663 1842.34 663 1842C668.07 1841.29 672.88 1840.89 678 1841Z" fill="#111111" fill-rule="evenodd"/>
      <path d="M656 1843C657.98 1843 659.96 1843 662 1843C662 1843.33 662 1843.66 662 1844C660.02 1844 658.04 1844 656 1844C656 1843.67 656 1843.34 656 1843Z" fill="#111111" fill-rule="evenodd"/>
      <path d="M652 1944C653.98 1944 655.96 1944 658 1944C658 1944.33 658 1944.66 658 1945C656.02 1945 654.04 1945 652 1945C652 1944.67 652 1944.34 652 1944Z" fill="#111111" fill-rule="evenodd"/>
    </g>
</svg>
